<svg xmlns="http://www.w3.org/2000/svg" xmlns:xlink="http://www.w3.org/1999/xlink" version="1.1" class="marks" width="802" height="476" viewBox="0 0 802 476"><rect width="802" height="476" fill="#fff"/><g fill="none" stroke-miterlimit="10" transform="translate(72,33)"><g class="mark-group role-frame root" role="graphics-object" aria-roledescription="group mark container"><g transform="translate(0,0)"><path class="background" aria-hidden="true" d="M0.5,0.5h650v400h-650Z" stroke="#ddd"/><g><g class="mark-group role-axis" aria-hidden="true"><g transform="translate(0.5,400.5)"><path class="background" aria-hidden="true" d="M0,0h0v0h0Z" pointer-events="none"/><g><g class="mark-rule role-axis-grid" pointer-events="none"><line transform="translate(4,-400)" x2="0" y2="400" stroke="#ddd" stroke-width="1" opacity="1"/><line transform="translate(73,-400)" x2="0" y2="400" stroke="#ddd" stroke-width="1" opacity="1"/><line transform="translate(141,-400)" x2="0" y2="400" stroke="#ddd" stroke-width="1" opacity="1"/><line transform="translate(209,-400)" x2="0" y2="400" stroke="#ddd" stroke-width="1" opacity="1"/><line transform="translate(278,-400)" x2="0" y2="400" stroke="#ddd" stroke-width="1" opacity="1"/><line transform="translate(346,-400)" x2="0" y2="400" stroke="#ddd" stroke-width="1" opacity="1"/><line transform="translate(414,-400)" x2="0" y2="400" stroke="#ddd" stroke-width="1" opacity="1"/><line transform="translate(483,-400)" x2="0" y2="400" stroke="#ddd" stroke-width="1" opacity="1"/><line transform="translate(551,-400)" x2="0" y2="400" stroke="#ddd" stroke-width="1" opacity="1"/><line transform="translate(619,-400)" x2="0" y2="400" stroke="#ddd" stroke-width="1" opacity="1"/></g></g><path class="foreground" aria-hidden="true" d="" pointer-events="none" display="none"/></g></g><g class="mark-group role-axis" aria-hidden="true"><g transform="translate(0.5,0.5)"><path class="background" aria-hidden="true" d="M0,0h0v0h0Z" pointer-events="none"/><g><g class="mark-rule role-axis-grid" pointer-events="none"><line transform="translate(0,400)" x2="650" y2="0" stroke="#e1e8f0" stroke-width="1" opacity="1"/><line transform="translate(0,360)" x2="650" y2="0" stroke="#e1e8f0" stroke-width="1" opacity="1"/><line transform="translate(0,320)" x2="650" y2="0" stroke="#e1e8f0" stroke-width="1" opacity="1"/><line transform="translate(0,280)" x2="650" y2="0" stroke="#e1e8f0" stroke-width="1" opacity="1"/><line transform="translate(0,240)" x2="650" y2="0" stroke="#e1e8f0" stroke-width="1" opacity="1"/><line transform="translate(0,200)" x2="650" y2="0" stroke="#e1e8f0" stroke-width="1" opacity="1"/><line transform="translate(0,160)" x2="650" y2="0" stroke="#e1e8f0" stroke-width="1" opacity="1"/><line transform="translate(0,120)" x2="650" y2="0" stroke="#e1e8f0" stroke-width="1" opacity="1"/><line transform="translate(0,80)" x2="650" y2="0" stroke="#e1e8f0" stroke-width="1" opacity="1"/><line transform="translate(0,40)" x2="650" y2="0" stroke="#e1e8f0" stroke-width="1" opacity="1"/><line transform="translate(0,0)" x2="650" y2="0" stroke="#e1e8f0" stroke-width="1" opacity="1"/></g></g><path class="foreground" aria-hidden="true" d="" pointer-events="none" display="none"/></g></g><g class="mark-group role-axis" role="graphics-symbol" aria-roledescription="axis" aria-label="X-axis titled 'Time' for a time scale with values from Tuesday, 04 March 2025, 11:47:04 AM to Tuesday, 04 March 2025, 11:47:52 AM"><g transform="translate(0.5,400.5)"><path class="background" aria-hidden="true" d="M0,0h0v0h0Z" pointer-events="none"/><g><g class="mark-rule role-axis-tick" pointer-events="none"><line transform="translate(4,0)" x2="0" y2="5" stroke="#888" stroke-width="1" opacity="1"/><line transform="translate(73,0)" x2="0" y2="5" stroke="#888" stroke-width="1" opacity="1"/><line transform="translate(141,0)" x2="0" y2="5" stroke="#888" stroke-width="1" opacity="1"/><line transform="translate(209,0)" x2="0" y2="5" stroke="#888" stroke-width="1" opacity="1"/><line transform="translate(278,0)" x2="0" y2="5" stroke="#888" stroke-width="1" opacity="1"/><line transform="translate(346,0)" x2="0" y2="5" stroke="#888" stroke-width="1" opacity="1"/><line transform="translate(414,0)" x2="0" y2="5" stroke="#888" stroke-width="1" opacity="1"/><line transform="translate(483,0)" x2="0" y2="5" stroke="#888" stroke-width="1" opacity="1"/><line transform="translate(551,0)" x2="0" y2="5" stroke="#888" stroke-width="1" opacity="1"/><line transform="translate(619,0)" x2="0" y2="5" stroke="#888" stroke-width="1" opacity="1"/></g><g class="mark-text role-axis-label" pointer-events="none"><text text-anchor="middle" transform="translate(4.455237374374501,15)" font-family="sans-serif" font-size="10px" fill="#000" opacity="1">:05</text><text text-anchor="middle" transform="translate(72.78709894453556,15)" font-family="sans-serif" font-size="10px" fill="#000" opacity="1">:10</text><text text-anchor="middle" transform="translate(141.1189605146966,15)" font-family="sans-serif" font-size="10px" fill="#000" opacity="1">:15</text><text text-anchor="middle" transform="translate(209.45082208485766,15)" font-family="sans-serif" font-size="10px" fill="#000" opacity="1">:20</text><text text-anchor="middle" transform="translate(277.78268365501873,15)" font-family="sans-serif" font-size="10px" fill="#000" opacity="1">:25</text><text text-anchor="middle" transform="translate(346.11454522517977,15)" font-family="sans-serif" font-size="10px" fill="#000" opacity="1">:30</text><text text-anchor="middle" transform="translate(414.44640679534086,15)" font-family="sans-serif" font-size="10px" fill="#000" opacity="1">:35</text><text text-anchor="middle" transform="translate(482.7782683655019,15)" font-family="sans-serif" font-size="10px" fill="#000" opacity="1">:40</text><text text-anchor="middle" transform="translate(551.1101299356629,15)" font-family="sans-serif" font-size="10px" fill="#000" opacity="1">:45</text><text text-anchor="middle" transform="translate(619.4419915058239,15)" font-family="sans-serif" font-size="10px" fill="#000" opacity="1">:50</text></g><g class="mark-rule role-axis-domain" pointer-events="none"><line transform="translate(0,0)" x2="650" y2="0" stroke="#e1e8f0" stroke-width="1" opacity="1"/></g><g class="mark-text role-axis-title" pointer-events="none"><text text-anchor="middle" transform="translate(325,36)" font-family="sans-serif" font-size="11px" font-weight="400" fill="#1c2a3a" opacity="1">Time</text></g></g><path class="foreground" aria-hidden="true" d="" pointer-events="none" display="none"/></g></g><g class="mark-group role-axis" role="graphics-symbol" aria-roledescription="axis" aria-label="Y-axis titled 'Unique TXs, Queue Size' for a linear scale with values from 0 to 1,000"><g transform="translate(0.5,0.5)"><path class="background" aria-hidden="true" d="M0,0h0v0h0Z" pointer-events="none"/><g><g class="mark-rule role-axis-tick" pointer-events="none"><line transform="translate(0,400)" x2="-5" y2="0" stroke="#888" stroke-width="1" opacity="1"/><line transform="translate(0,360)" x2="-5" y2="0" stroke="#888" stroke-width="1" opacity="1"/><line transform="translate(0,320)" x2="-5" y2="0" stroke="#888" stroke-width="1" opacity="1"/><line transform="translate(0,280)" x2="-5" y2="0" stroke="#888" stroke-width="1" opacity="1"/><line transform="translate(0,240)" x2="-5" y2="0" stroke="#888" stroke-width="1" opacity="1"/><line transform="translate(0,200)" x2="-5" y2="0" stroke="#888" stroke-width="1" opacity="1"/><line transform="translate(0,160)" x2="-5" y2="0" stroke="#888" stroke-width="1" opacity="1"/><line transform="translate(0,120)" x2="-5" y2="0" stroke="#888" stroke-width="1" opacity="1"/><line transform="translate(0,80)" x2="-5" y2="0" stroke="#888" stroke-width="1" opacity="1"/><line transform="translate(0,40)" x2="-5" y2="0" stroke="#888" stroke-width="1" opacity="1"/><line transform="translate(0,0)" x2="-5" y2="0" stroke="#888" stroke-width="1" opacity="1"/></g><g class="mark-text role-axis-label" pointer-events="none"><text text-anchor="end" transform="translate(-13,404)" font-family="sans-serif" font-size="12px" fill="#000" opacity="1">0</text><text text-anchor="end" transform="translate(-13,364)" font-family="sans-serif" font-size="12px" fill="#000" opacity="1">100</text><text text-anchor="end" transform="translate(-13,324)" font-family="sans-serif" font-size="12px" fill="#000" opacity="1">200</text><text text-anchor="end" transform="translate(-13,284)" font-family="sans-serif" font-size="12px" fill="#000" opacity="1">300</text><text text-anchor="end" transform="translate(-13,244)" font-family="sans-serif" font-size="12px" fill="#000" opacity="1">400</text><text text-anchor="end" transform="translate(-13,204)" font-family="sans-serif" font-size="12px" fill="#000" opacity="1">500</text><text text-anchor="end" transform="translate(-13,164)" font-family="sans-serif" font-size="12px" fill="#000" opacity="1">600</text><text text-anchor="end" transform="translate(-13,124.00000000000001)" font-family="sans-serif" font-size="12px" fill="#000" opacity="1">700</text><text text-anchor="end" transform="translate(-13,83.99999999999999)" font-family="sans-serif" font-size="12px" fill="#000" opacity="1">800</text><text text-anchor="end" transform="translate(-13,43.99999999999999)" font-family="sans-serif" font-size="12px" fill="#000" opacity="1">900</text><text text-anchor="end" transform="translate(-13,4)" font-family="sans-serif" font-size="12px" fill="#000" opacity="1">1,000</text></g><g class="mark-rule role-axis-domain" pointer-events="none"><line transform="translate(0,400)" x2="0" y2="-400" stroke="#888" stroke-width="1" opacity="1"/></g><g class="mark-text role-axis-title" pointer-events="none"><text text-anchor="middle" transform="translate(-53.662646890247935,200) rotate(-90) translate(0,-3)" font-family="sans-serif" font-size="12px" font-weight="400" fill="#1c2a3a" opacity="1">Unique TXs, Queue Size</text></g></g><path class="foreground" aria-hidden="true" d="" pointer-events="none" display="none"/></g></g><g class="mark-group role-scope layer_0_pathgroup" role="graphics-object" aria-roledescription="group mark container"><g transform="translate(0,0)"><path class="background" aria-hidden="true" d="M0,0h650v400h-650Z"/><g><g class="mark-line role-mark layer_0_marks" role="graphics-object" aria-roledescription="line mark container"><path aria-label="Time: Mar 04, 2025; Unique TXs: 1; Peer: peer_5" role="graphics-symbol" aria-roledescription="line mark" d="M8.842,399.6L13.571,399.6L13.571,400L59.64,400L59.64,394.2L68.25,394.2L68.25,390L81.916,390L81.916,392L82.572,392L82.572,392.4L86.85,392.4L86.85,382.99L95.569,382.99L95.569,378.311L96.239,378.311L96.239,376.4L109.235,376.4L109.235,376.8L114.21,376.8L114.21,370.6L122.902,370.6L122.902,365.267L136.582,365.267L136.582,366.8L137.156,366.8L137.156,366L141.515,366L141.515,359.2L150.234,359.2L150.234,355.2L150.836,355.2L150.836,355.2L163.914,355.2L163.914,356L164.529,356L164.529,355.6L168.862,355.6L168.862,348.4L177.581,348.4L177.581,343.6L191.234,343.6L191.234,345.6L196.208,345.6L196.208,341.4L204.9,341.4L204.9,338L218.58,338L218.58,340L223.568,340L223.568,335.4L232.246,335.4L232.246,331.6L245.899,331.6L245.899,333.6L250.887,333.6L250.887,327.4L259.565,327.4L259.565,322L273.232,322L273.232,324L278.261,324L278.261,319.8L286.898,319.8L286.898,316.4L300.578,316.4L300.578,318.4L305.607,318.4L305.607,314.6L314.231,314.6L314.231,311.6L327.911,311.6L327.911,313.6L332.954,313.6L332.954,308.2L341.577,308.2L341.577,303.6L355.23,303.6L355.23,305.6L360.287,305.6L360.287,299.8L368.91,299.8L368.91,294.8L382.563,294.8L382.563,296.8L387.647,296.8L387.647,292.8L396.243,292.8L396.243,289.6L409.909,289.6L409.909,291.6L410.647,291.6L410.647,290.2L414.993,290.2L414.993,284.6L423.562,284.6L423.562,282.4L437.242,282.4L437.242,284.4L442.339,284.4L442.339,278.6L450.895,278.6L450.895,273.6L464.575,273.6L464.575,275.6L469.713,275.6L469.713,271.2L478.241,271.2L478.241,267.6L478.938,267.6L478.938,265L491.894,265L491.894,263.2L497.032,263.2L497.032,254.6L505.574,254.6L505.574,246.8L506.284,246.8L506.284,241.4L519.24,241.4L519.24,236.8L524.72,236.8L524.72,234.2L532.907,234.2L532.907,232.4L546.559,232.4L546.559,233.129L551.725,233.129L551.725,226.2L560.239,226.2L560.239,223.6L573.906,223.6L573.906,225.6L579.249,225.6L579.249,225.2L587.572,225.2L587.572,225.6L601.238,225.6L601.238,227.6L601.812,227.6L601.812,227.2L606.719,227.2L606.719,225.2L614.891,225.2L614.891,225.6L628.557,225.6L628.557,227.657L634.188,227.657L634.188,226.4L642.238,226.4L642.238,226.8L642.962,226.8L642.962,226.8" stroke="#b7641f" stroke-width="2"/></g></g><path class="foreground" aria-hidden="true" d="" display="none"/></g><g transform="translate(0,0)"><path class="background" aria-hidden="true" d="M0,0h650v400h-650Z"/><g><g class="mark-line role-mark layer_0_marks" role="graphics-object" aria-roledescription="line mark container"><path aria-label="Time: Mar 04, 2025; Unique TXs: 0.5; Peer: peer_3" role="graphics-symbol" aria-roledescription="line mark" d="M32.048,399.8L59.695,399.8L59.695,392.6L68.154,392.6L68.154,386.8L68.851,386.8L68.851,394L86.85,394L86.85,395L95.487,395L95.487,391.6L109.153,391.6L109.153,393.6L114.21,393.6L114.21,393.22L122.82,393.22L122.82,394L136.486,394L136.486,396L141.515,396L141.515,390.6L150.152,390.6L150.152,386L163.819,386L163.819,388L164.516,388L164.516,394.6L168.875,394.6L168.875,393.4L177.485,393.4L177.485,388.4L191.152,388.4L191.152,390.4L196.208,390.4L196.208,393.317L204.818,393.317L204.818,394L218.484,394L218.484,396L223.568,396L223.568,391.4L232.151,391.4L232.151,387.6L232.971,387.6L232.971,394.4L250.887,394.4L250.887,395.6L259.483,395.6L259.483,392.8L273.15,392.8L273.15,394.8L278.261,394.8L278.261,391.489L286.816,391.489L286.816,399.2L305.607,399.2L305.607,394.6L314.149,394.6L314.149,390.8L327.815,390.8L327.815,392.8L328.512,392.8L328.512,397L332.954,397L332.954,394.4L341.482,394.4L341.482,390.4L355.148,390.4L355.148,392.4L360.287,392.4L360.287,390.862L368.814,390.862L368.814,393.6L382.481,393.6L382.481,395.6L387.647,395.6L387.647,390L396.147,390L396.147,385.2L409.814,385.2L409.814,387.2L410.538,387.2L410.538,394.2L414.993,394.2L414.993,396.6L423.48,396.6L423.48,394.8L437.146,394.8L437.146,396.8L442.339,396.8L442.339,391.4L450.813,391.4L450.813,386.8L451.482,386.8L451.482,394L469.713,394L469.713,393.8L478.145,393.8L478.145,389.2L478.938,389.2L478.938,395.2L497.032,395.2L497.032,393.2L505.478,393.2L505.478,388L519.144,388L519.144,390L524.379,390L524.379,385.701L532.811,385.701L532.811,398.8L533.549,398.8L533.549,395.8L546.477,395.8L546.477,400L551.725,400L551.725,396L560.144,396L560.144,393.6L573.81,393.6L573.81,395.6L579.058,395.6L579.058,392.3L587.476,392.3L587.476,389.709L588.269,389.709L588.269,390L601.143,390L601.143,391.6L606.418,391.6L606.418,392.4L614.809,392.4L614.809,394L628.475,394L628.475,396L633.751,396L633.751,390.4L642.142,390.4L642.142,385.6L642.948,385.6L642.948,389.51" stroke="#4aa148" stroke-width="2"/></g></g><path class="foreground" aria-hidden="true" d="" display="none"/></g><g transform="translate(0,0)"><path class="background" aria-hidden="true" d="M0,0h650v400h-650Z"/><g><g class="mark-line role-mark layer_0_marks" role="graphics-object" aria-roledescription="line mark container"><path aria-label="Time: Mar 04, 2025; Unique TXs: 14.5; Peer: peer_0" role="graphics-symbol" aria-roledescription="line mark" d="M59.654,394.2L68.195,394.2L68.195,390L81.848,390L81.848,392L86.85,392L86.85,391.932L95.528,391.932L95.528,395.2L109.194,395.2L109.194,397.2L114.21,397.2L114.21,392L122.847,392L122.847,387.6L123.517,387.6L123.517,394.4L141.515,394.4L141.515,393.4L150.193,393.4L150.193,387.8L163.86,387.8L163.86,389.2L168.862,389.2L168.862,388.021L177.513,388.021L177.513,400L196.208,400L196.208,392.4L204.859,392.4L204.859,386.4L218.512,386.4L218.512,393.8L223.568,393.8L223.568,393.8L232.178,393.8L232.178,389.2L245.858,389.2L245.858,391.2L250.887,391.2L250.887,385.461L259.524,385.461L259.524,397.6L273.191,397.6L273.191,399.4L278.261,399.4L278.261,393.8L286.843,393.8L286.843,389.2L300.537,389.2L300.537,395.2L305.621,395.2L305.621,394L314.19,394L314.19,389.6L327.843,389.6L327.843,391.6L332.94,391.6L332.94,387.889L341.509,387.889L341.509,399.8L360.287,399.8L360.287,393.8L368.842,393.8L368.842,389.2L382.522,389.2L382.522,391.2L383.232,391.2L383.232,396.2L387.647,396.2L387.647,394.6L409.841,394.6L409.841,390.8L414.993,390.8L414.993,388.511L442.339,388.511L442.339,393.2L464.52,393.2L464.52,388L465.203,388L465.203,394.6L469.713,394.6L469.713,393.6L478.173,393.6L478.173,388.8L491.853,388.8L491.853,390.8L497.032,390.8L497.032,386.2L505.519,386.2L505.519,382.4L506.23,382.4L506.23,391.8L524.379,391.8L524.379,392.6L532.852,392.6L532.852,386.6L533.549,386.6L533.549,392L551.725,392L551.725,392.4L560.171,392.4L560.171,388.4L573.837,388.4L573.837,390.4L579.058,390.4L579.058,386L587.517,386L587.517,389.8L601.799,389.8L601.799,394.8L606.418,394.8L606.418,390L614.85,390L614.85,383.6L615.561,383.6L615.561,382.4L628.516,382.4L628.516,384.277L633.751,384.277L633.751,386.2L642.183,386.2L642.183,377.886" stroke="#6583ff" stroke-width="2"/></g></g><path class="foreground" aria-hidden="true" d="" display="none"/></g><g transform="translate(0,0)"><path class="background" aria-hidden="true" d="M0,0h650v400h-650Z"/><g><g class="mark-line role-mark layer_0_marks" role="graphics-object" aria-roledescription="line mark container"><path aria-label="Time: Mar 04, 2025; Unique TXs: 13.5; Peer: peer_1" role="graphics-symbol" aria-roledescription="line mark" d="M59.695,394.6L68.154,394.6L68.154,390.8L81.821,390.8L81.821,392.8L86.85,392.8L86.85,387.4L95.487,387.4L95.487,391L114.21,391L114.21,393.422L122.82,393.422L122.82,388.4L136.486,388.4L136.486,390.4L137.156,390.4L137.156,395.8L141.515,395.8L141.515,393.8L150.152,393.8L150.152,388.6L163.819,388.6L163.819,390L168.862,390L168.862,385L170.119,385L170.119,389.8L177.485,389.8L177.485,400L196.208,400L196.208,392L204.818,392L204.818,385.6L218.484,385.6L218.484,387.6L223.568,387.6L223.568,388.197L232.151,388.197L232.151,390L245.817,390L245.817,392L250.887,392L250.887,387.4L259.47,387.4L259.47,391.4L278.261,391.4L278.261,392.2L286.816,392.2L286.816,386L300.483,386L300.483,388L305.607,388L305.607,389L314.135,389L314.135,390.8L327.815,390.8L327.815,392.8L332.94,392.8L332.94,387.4L341.482,387.4L341.482,391L360.287,391L360.287,394.2L368.814,394.2L368.814,390L382.481,390L382.481,392L387.647,392L387.647,387.8L396.147,387.8L396.147,384.4L396.789,384.4L396.789,392.8L414.993,392.8L414.993,392.6L423.48,392.6L423.48,386.8L424.191,386.8L424.191,394L442.339,394L442.339,395L464.479,395L464.479,391.6L469.713,391.6L469.713,387.421L478.145,387.421L478.145,398.4L491.798,398.4L491.798,399.8L497.046,399.8L497.046,394.2L505.478,394.2L505.478,390L506.858,390L506.858,395.6L524.379,395.6L524.379,394.2L532.811,394.2L532.811,390L546.477,390L546.477,392L551.725,392L551.725,389.033L560.144,389.033L560.144,389.2L573.81,389.2L573.81,391.2L579.058,391.2L579.058,385.2L587.476,385.2L587.476,379.067L588.269,379.067L588.269,386.6L606.418,386.6L606.418,390.217L614.809,390.217L614.809,386.4L628.475,386.4L628.475,388.4L633.751,388.4L633.751,384.116L642.142,384.116L642.142,392" stroke="#ffa83f" stroke-width="2"/></g></g><path class="foreground" aria-hidden="true" d="" display="none"/></g><g transform="translate(0,0)"><path class="background" aria-hidden="true" d="M0,0h650v400h-650Z"/><g><g class="mark-line role-mark layer_0_marks" role="graphics-object" aria-roledescription="line mark container"><path aria-label="Time: Mar 04, 2025; Unique TXs: 10; Peer: peer_2" role="graphics-symbol" aria-roledescription="line mark" d="M59.695,396L68.154,396L68.154,392.8L81.821,392.8L81.821,394.8L82.572,394.8L82.572,391.8L86.85,391.8L86.85,390.4L95.487,390.4L95.487,386.8L96.239,386.8L96.239,394L114.21,394L114.21,394.8L122.806,394.8L122.806,391.2L136.486,391.2L136.486,393.2L141.515,393.2L141.515,388.6L150.152,388.6L150.152,384.8L150.808,384.8L150.808,393L168.862,393L168.862,393.4L177.485,393.4L177.485,388.4L178.155,388.4L178.155,394.8L196.208,394.8L196.208,394.4L204.818,394.4L204.818,390.4L218.484,390.4L218.484,392.4L223.568,392.4L223.568,387.6L232.151,387.6L232.151,391.4L250.901,391.4L250.901,394.4L259.483,394.4L259.483,390.4L273.15,390.4L273.15,392.4L273.819,392.4L273.819,396.8L278.261,396.8L278.261,394.6L286.816,394.6L286.816,390.8L300.483,390.8L300.483,392.8L305.607,392.8L305.607,387L314.135,387L314.135,382L314.791,382L314.791,391.6L332.94,391.6L332.94,393L341.482,393L341.482,387.6L342.22,387.6L342.22,394.4L360.287,394.4L360.287,395L368.814,395L368.814,391.6L382.481,391.6L382.481,393.6L387.647,393.6L387.647,387L396.147,387L396.147,381.2L397.377,381.2L397.377,391.2L414.993,391.2L414.993,393L423.48,393L423.48,387.6L437.146,387.6L437.146,389.6L437.83,389.6L437.83,395.4L442.339,395.4L442.339,393.8L464.479,393.8L464.479,389.2L469.713,389.2L469.713,385L478.145,385L478.145,390.4L497.032,390.4L497.032,394.8L505.478,394.8L505.478,391.2L519.144,391.2L519.144,393.2L524.379,393.2L524.379,392.485L532.811,392.485L532.811,396.4L546.477,396.4L546.477,398.4L551.725,398.4L551.725,393.4L560.144,393.4L560.144,389.2L560.813,389.2L560.813,395.2L579.058,395.2L579.058,393L587.476,393L587.476,387.6L601.143,387.6L601.143,389.6L601.771,389.6L601.771,395.4L606.418,395.4L606.418,394.8L614.809,394.8L614.809,391.2L628.475,391.2L628.475,393.2L633.751,393.2L633.751,388.4L642.142,388.4L642.142,391.8" stroke="#e2474d" stroke-width="2"/></g></g><path class="foreground" aria-hidden="true" d="" display="none"/></g><g transform="translate(0,0)"><path class="background" aria-hidden="true" d="M0,0h650v400h-650Z"/><g><g class="mark-line role-mark layer_0_marks" role="graphics-object" aria-roledescription="line mark container"><path aria-label="Time: Mar 04, 2025; Unique TXs: 11.5; Peer: peer_6" role="graphics-symbol" aria-roledescription="line mark" d="M59.695,395.4L68.305,395.4L68.305,392.4L68.892,392.4L68.892,389.6L81.971,389.6L81.971,394.4L86.85,394.4L86.85,388.4L95.637,388.4L95.637,383.2L96.293,383.2L96.293,383.2L109.304,383.2L109.304,384L114.21,384L114.21,375.8L122.97,375.8L122.97,368.4L123.544,368.4L123.544,368.2L136.636,368.2L136.636,368.8L137.156,368.8L137.156,368.2L141.515,368.2L141.515,361.8L150.303,361.8L150.303,358L163.969,358L163.969,360L164.543,360L164.543,359.6L168.875,359.6L168.875,351L177.636,351L177.636,344.8L191.302,344.8L191.302,346.8L196.208,346.8L196.208,342L204.982,342L204.982,338L218.635,338L218.635,340L223.568,340L223.568,334.4L232.301,334.4L232.301,329.6L245.981,329.6L245.981,331.6L250.901,331.6L250.901,327.6L259.634,327.6L259.634,324.4L273.3,324.4L273.3,325.467L278.261,325.467L278.261,316.6L286.966,316.6L286.966,311.6L300.633,311.6L300.633,313.6L305.607,313.6L305.607,307.2L314.313,307.2L314.313,301.6L327.966,301.6L327.966,303.6L332.94,303.6L332.94,298.8L341.632,298.8L341.632,294.8L355.298,294.8L355.298,296.8L360.287,296.8L360.287,291.6L368.965,291.6L368.965,287.2L382.645,287.2L382.645,289.2L387.647,289.2L387.647,283.8L396.297,283.8L396.297,279.2L409.964,279.2L409.964,279.4L414.993,279.4L414.993,269L423.644,269L423.644,263.6L437.297,263.6L437.297,265.6L442.339,265.6L442.339,262L450.977,262L450.977,259.2L464.629,259.2L464.629,261.2L469.713,261.2L469.713,255.8L478.296,255.8L478.296,251.2L491.976,251.2L491.976,253.2L505.628,253.2L505.628,255.2L519.295,255.2L519.295,257.2L524.72,257.2L524.72,256.8L532.961,256.8L532.961,257.2L546.628,257.2L546.628,258.267L551.725,258.267L551.725,251.4L560.294,251.4L560.294,248.4L573.96,248.4L573.96,250.4L579.249,250.4L579.249,250L587.627,250L587.627,250.4L601.293,250.4L601.293,252.4L601.812,252.4L601.812,252L606.719,252L606.719,250L614.973,250L614.973,250.4L628.626,250.4L628.626,252.2L634.188,252.2L634.188,250L642.292,250L642.292,249.6" stroke="#bc1227" stroke-width="2"/></g></g><path class="foreground" aria-hidden="true" d="" display="none"/></g><g transform="translate(0,0)"><path class="background" aria-hidden="true" d="M0,0h650v400h-650Z"/><g><g class="mark-line role-mark layer_0_marks" role="graphics-object" aria-roledescription="line mark container"><path aria-label="Time: Mar 04, 2025; Unique TXs: 18.5; Peer: peer_4" role="graphics-symbol" aria-roledescription="line mark" d="M59.695,392.6L68.195,392.6L68.195,386.8L68.892,386.8L68.892,387.2L81.862,387.2L81.862,388.4L82.531,388.4L82.531,394.6L86.85,394.6L86.85,394.4L95.528,394.4L95.528,390.8L109.194,390.8L109.194,392.8L114.21,392.8L114.21,387L122.861,387L122.861,390.4L141.515,390.4L141.515,393.6L150.193,393.6L150.193,388.6L163.86,388.6L163.86,390L168.862,390L168.862,389.672L177.513,389.672L177.513,393.6L191.193,393.6L191.193,395.6L196.208,395.6L196.208,391.4L204.859,391.4L204.859,388L205.611,388L205.611,394.4L223.568,394.4L223.568,393.4L232.192,393.4L232.192,388.8L245.858,388.8L245.858,390.8L250.901,390.8L250.901,387.938L259.524,387.938L259.524,389.6L273.191,389.6L273.191,391.6L278.261,391.6L278.261,387L286.857,387L286.857,383.2L287.595,383.2L287.595,392L305.607,392L305.607,394L314.19,394L314.19,390L327.856,390L327.856,392L332.954,392L332.954,393.538L341.523,393.538L341.523,396.8L355.189,396.8L355.189,398.8L360.287,398.8L360.287,394L368.842,394L368.842,390L369.539,390L369.539,395.4L387.647,395.4L387.647,393.4L409.855,393.4L409.855,388.8L414.993,388.8L414.993,389L423.521,389L423.521,390L437.187,390L437.187,392L442.339,392L442.339,386.6L450.854,386.6L450.854,382L452.097,382L452.097,391.4L469.713,391.4L469.713,393.8L478.186,393.8L478.186,389.6L491.853,389.6L491.853,391.6L497.032,391.6L497.032,388.71L505.519,388.71L505.519,389.6L519.185,389.6L519.185,391.6L524.379,391.6L524.379,386L532.852,386L532.852,389.678L551.725,389.678L551.725,391L560.171,391L560.171,384L560.827,384L560.827,378.916L573.851,378.916L573.851,381.2L579.058,381.2L579.058,376.784L587.504,376.784L587.504,389.2L606.418,389.2L606.418,384.4L614.85,384.4L614.85,380.4L615.547,380.4L615.547,381.178L633.751,381.178L633.751,384.4L642.183,384.4L642.183,380.4" stroke="#2d4cdb" stroke-width="2"/></g></g><path class="foreground" aria-hidden="true" d="" display="none"/></g></g><g class="mark-group role-scope layer_1_pathgroup" role="graphics-object" aria-roledescription="group mark container"><g transform="translate(0,0)"><path class="background" aria-hidden="true" d="M0,0h650v400h-650Z"/><g><g class="mark-line role-mark layer_1_marks" role="graphics-object" aria-roledescription="line mark container"><path aria-label="Time: Mar 04, 2025; Queue Size: 0; peer: peer_5" role="graphics-symbol" aria-roledescription="line mark" d="M0,400L4.073,400L4.073,400L8.159,400L8.159,400L12.286,400L12.286,399.6L16.4,399.6L16.4,399.6L20.568,399.6L20.568,399.6L24.64,399.6L24.64,399.6L28.768,399.6L28.768,399.6L32.881,399.6L32.881,400L36.995,400L36.995,400L41.136,400L41.136,400L45.277,400L45.277,400L49.39,400L49.39,400L53.436,400L53.436,400L57.59,400L57.59,400L61.676,400L61.676,388.8L65.776,388.8L65.776,388.8L69.944,388.8L69.944,384.4L74.044,384.4L74.044,384.4L78.172,384.4L78.172,384.4L82.272,384.4L82.272,374.4L86.358,374.4L86.358,384L90.499,384L90.499,377.6L94.585,377.6L94.585,377.6L98.726,377.6L98.726,366.8L102.839,366.8L102.839,366.8L106.953,366.8L106.953,366.8L111.094,366.8L111.094,358.8L115.194,358.8L115.194,373.2L119.253,373.2L119.253,373.2L123.38,373.2L123.38,361.2L127.535,361.2L127.535,362.8L131.593,362.8L131.593,362.8L135.748,362.8L135.748,362.8L139.875,362.8L139.875,357.2L143.948,357.2L143.948,346.4L148.075,346.4L148.075,346.4L152.161,346.4L152.161,338L156.289,338L156.289,338L160.43,338L160.43,338L164.516,338L164.516,328L168.616,328L168.616,330L172.77,330L172.77,341.6L176.843,341.6L176.843,341.6L180.997,341.6L180.997,332.8L185.125,332.8L185.125,332.8L189.184,332.8L189.184,332.8L193.338,332.8L193.338,326.8L197.465,326.8L197.465,317.2L201.538,317.2L201.538,317.2L205.638,317.2L205.638,305.2L209.806,305.2L209.806,305.2L213.906,305.2L213.906,305.2L217.979,305.2L217.979,305.2L222.133,305.2L222.133,295.2L226.206,295.2L226.206,284.8L230.36,284.8L230.36,284.8L234.46,284.8L234.46,272.8L238.547,272.8L238.547,272.8L242.701,272.8L242.701,272.8L246.815,272.8L246.815,264.8L250.887,264.8L250.887,264.8L255.001,264.8L255.001,251.2L259.114,251.2L259.114,251.2L263.269,251.2L263.269,239.2L267.383,239.2L267.383,239.2L271.455,239.2L271.455,239.2L275.569,239.2L275.569,233.6L279.696,233.6L279.696,224L283.81,224L283.81,224L287.964,224L287.964,212L292.037,212L292.037,212L296.178,212L296.178,212L300.305,212L300.305,212L304.418,212L304.418,204L308.491,204L308.491,195.2L312.646,195.2L312.646,195.2L316.732,195.2L316.732,183.2L320.832,183.2L320.832,183.2L324.986,183.2L324.986,183.2L329.059,183.2L329.059,173.2L333.213,173.2L333.213,168L337.286,168L337.286,161.2L341.4,161.2L341.4,161.2L345.568,161.2L345.568,150.4L349.654,150.4L349.654,150.4L353.768,150.4L353.768,150.4L357.922,150.4L357.922,144.4L362.022,144.4L362.022,131.6L366.136,131.6L366.136,131.6L370.208,131.6L370.208,119.6L374.363,119.6L374.363,119.6L378.436,119.6L378.436,119.6L382.549,119.6L382.549,111.6L386.676,111.6L386.676,109.6L390.776,109.6L390.776,100.4L394.944,100.4L394.944,100.4L399.003,100.4L399.003,92.4L403.131,92.4L403.131,92.4L407.285,92.4L407.285,92.4L411.344,92.4L411.344,108.8L415.458,108.8L415.458,101.6L419.626,101.6L419.626,101.6L423.712,101.6L423.712,91.6L427.798,91.6L427.798,91.6L431.912,91.6L431.912,91.6L436.039,91.6L436.039,91.6L440.194,91.6L440.194,83.6L444.266,83.6L444.266,70.8L448.394,70.8L448.394,70.8L452.494,70.8L452.494,64.8L456.607,64.8L456.607,64.8L460.721,64.8L460.721,64.8L464.834,64.8L464.834,56.8L469.003,56.8L469.003,56.8L473.061,56.8L473.061,46.8L477.202,46.8L477.202,46.8L481.289,46.8L481.289,34.8L485.402,34.8L485.402,34.8L489.557,34.8L489.557,34.8L493.629,34.8L493.629,28L497.743,28L497.743,16.4L501.87,16.4L501.87,16.4L505.997,16.4L505.997,4.4L510.097,4.4L510.097,4.4L514.238,4.4L514.238,4.4L518.325,4.4L518.325,4.4L522.438,4.4L522.438,0L526.552,0L526.552,0L530.665,0L530.665,0L534.779,0L534.779,0L538.906,0L538.906,0L543.02,0L543.02,0L547.147,0L547.147,4L551.233,4L551.233,4L555.347,4L555.347,0L559.474,0L559.474,0L563.642,0L563.642,0L567.701,0L567.701,0L571.828,0L571.828,0L575.983,0L575.983,0L580.083,0L580.083,0L584.169,0L584.169,0L588.269,0L588.269,0L592.424,0L592.424,0L596.496,0L596.496,0L600.61,0L600.61,0L604.764,0L604.764,0L608.837,0L608.837,0L612.964,0L612.964,0L617.064,0L617.064,0L621.178,0L621.178,0L625.346,0L625.346,0L629.432,0L629.432,0L633.546,0L633.546,0L637.646,0L637.646,0L641.746,0L641.746,0L645.873,0L645.873,0L650,0L650,0" stroke="#b7641f" stroke-width="2" stroke-dasharray="2,2" opacity="0.5"/></g></g><path class="foreground" aria-hidden="true" d="" display="none"/></g><g transform="translate(0,0)"><path class="background" aria-hidden="true" d="M0,0h650v400h-650Z"/><g><g class="mark-line role-mark layer_1_marks" role="graphics-object" aria-roledescription="line mark container"><path aria-label="Time: Mar 04, 2025; Queue Size: 0; peer: peer_4" role="graphics-symbol" aria-roledescription="line mark" d="M0,400L4.073,400L4.073,400L8.159,400L8.159,400L12.286,400L12.286,400L16.4,400L16.4,399.6L20.568,399.6L20.568,399.6L24.64,399.6L24.64,399.6L28.768,399.6L28.768,399.6L32.868,399.6L32.868,400L36.995,400L36.995,400L41.136,400L41.136,400L45.277,400L45.277,400L49.39,400L49.39,400L53.436,400L53.436,400L57.576,400L57.576,400L61.676,400L61.676,385.6L65.776,385.6L65.776,385.6L69.931,385.6L69.931,381.2L74.044,381.2L74.044,381.2L78.131,381.2L78.131,381.2L82.272,381.2L82.272,371.2L86.358,371.2L86.358,391.2L90.499,391.2L90.499,390L94.585,390L94.585,390L98.726,390L98.726,389.2L102.839,389.2L102.839,389.2L106.953,389.2L106.953,389.2L111.094,389.2L111.094,381.2L115.194,381.2L115.194,381.2L119.253,381.2L119.253,381.2L123.38,381.2L123.38,389.2L127.48,389.2L127.48,397.6L131.593,397.6L131.593,397.6L135.734,397.6L135.734,397.6L139.875,397.6L139.875,398.8L143.948,398.8L143.948,387.2L148.075,387.2L148.075,387.2L152.161,387.2L152.161,383.2L156.289,383.2L156.289,383.2L160.416,383.2L160.416,383.2L164.516,383.2L164.516,377.6L168.616,377.6L168.616,382L172.77,382L172.77,392.8L176.843,392.8L176.843,392.8L180.997,392.8L180.997,393.2L185.125,393.2L185.125,393.2L189.184,393.2L189.184,393.2L193.338,393.2L193.338,387.2L197.465,387.2L197.465,387.2L201.524,387.2L201.524,387.2L205.638,387.2L205.638,395.2L209.806,395.2L209.806,395.2L213.906,395.2L213.906,395.2L217.979,395.2L217.979,395.2L222.133,395.2L222.133,392.4L226.206,392.4L226.206,388L230.36,388L230.36,388L234.46,388L234.46,388.8L238.547,388.8L238.547,388.8L242.701,388.8L242.701,388.8L246.815,388.8L246.815,380.8L250.887,380.8L250.887,380.8L255.015,380.8L255.015,388.8L259.114,388.8L259.114,388.8L263.269,388.8L263.269,381.2L267.369,381.2L267.369,381.2L271.455,381.2L271.455,381.2L275.569,381.2L275.569,384.8L279.682,384.8L279.682,382.4L283.81,382.4L283.81,382.4L287.964,382.4L287.964,390.4L292.037,390.4L292.037,390.4L296.178,390.4L296.178,390.4L300.305,390.4L300.305,390.4L304.418,390.4L304.418,392.4L308.491,392.4L308.491,389.2L312.646,389.2L312.646,389.2L316.732,389.2L316.732,380L320.832,380L320.832,380L324.986,380L324.986,380L329.059,380L329.059,383.6L333.213,383.6L333.213,379.6L337.286,379.6L337.286,396L341.4,396L341.4,396L345.568,396L345.568,397.2L349.654,397.2L349.654,397.2L353.768,397.2L353.768,397.2L357.868,397.2L357.868,391.2L362.022,391.2L362.022,389.2L366.136,389.2L366.136,389.2L370.208,389.2L370.208,397.2L374.363,397.2L374.363,397.2L378.436,397.2L378.436,397.2L382.549,397.2L382.549,389.2L386.676,389.2L386.676,397.2L390.776,397.2L390.776,385.2L394.944,385.2L394.944,385.2L399.003,385.2L399.003,382.4L403.131,382.4L403.131,382.4L407.285,382.4L407.285,382.4L411.344,382.4L411.344,382.4L415.458,382.4L415.458,389.2L419.612,389.2L419.612,389.2L423.712,389.2L423.712,379.2L427.798,379.2L427.798,386.8L431.912,386.8L431.912,386.8L436.039,386.8L436.039,386.8L440.194,386.8L440.194,389.2L444.266,389.2L444.266,377.2L448.394,377.2L448.394,377.2L452.494,377.2L452.494,398.8L456.607,398.8L456.607,398.8L460.721,398.8L460.721,398.8L464.834,398.8L464.834,388.8L469.003,388.8L469.003,397.6L473.061,397.6L473.061,388.8L477.202,388.8L477.202,388.8L481.289,388.8L481.289,389.2L485.402,389.2L485.402,389.2L489.557,389.2L489.557,389.2L493.629,389.2L493.629,382.4L497.743,382.4L497.743,388.8L501.87,388.8L501.87,388.8L505.997,388.8L505.997,376.8L510.111,376.8L510.111,390.8L514.238,390.8L514.238,390.8L518.325,390.8L518.325,390.8L522.438,390.8L522.438,382.8L526.552,382.8L526.552,380.4L530.665,380.4L530.665,380.4L534.779,380.4L534.779,396L538.906,396L538.906,396L543.02,396L543.02,396L547.161,396L547.161,387.6L551.233,387.6L551.233,387.6L555.347,387.6L555.347,383.2L559.474,383.2L559.474,383.2L563.642,383.2L563.642,381.2L567.701,381.2L567.701,381.2L571.828,381.2L571.828,381.2L575.983,381.2L575.983,371.2L580.083,371.2L580.083,398L584.169,398L584.169,398L588.269,398L588.269,392L592.424,392L592.424,392L596.496,392L596.496,392L600.61,392L600.61,392L604.764,392L604.764,394.4L608.837,394.4L608.837,389.2L612.964,389.2L612.964,389.2L617.064,389.2L617.064,397.2L621.178,397.2L621.178,397.2L625.346,397.2L625.346,397.2L629.432,397.2L629.432,393.6L633.546,393.6L633.546,393.6L637.646,393.6L637.646,389.2L641.746,389.2L641.746,389.2L645.873,389.2L645.873,390.4L650,390.4L650,390.4" stroke="#2d4cdb" stroke-width="2" stroke-dasharray="2,2" opacity="0.5"/></g></g><path class="foreground" aria-hidden="true" d="" display="none"/></g><g transform="translate(0,0)"><path class="background" aria-hidden="true" d="M0,0h650v400h-650Z"/><g><g class="mark-line role-mark layer_1_marks" role="graphics-object" aria-roledescription="line mark container"><path aria-label="Time: Mar 04, 2025; Queue Size: 0; peer: peer_1" role="graphics-symbol" aria-roledescription="line mark" d="M0,400L4.059,400L4.059,400L8.159,400L8.159,400L12.286,400L12.286,400L16.4,400L16.4,399.6L20.568,399.6L20.568,399.6L24.64,399.6L24.64,399.6L28.768,399.6L28.768,399.6L32.868,399.6L32.868,400L36.995,400L36.995,400L41.136,400L41.136,400L45.277,400L45.277,400L49.39,400L49.39,400L53.436,400L53.436,400L57.59,400L57.59,400L61.676,400L61.676,389.6L65.776,389.6L65.776,389.6L69.931,389.6L69.931,385.2L74.044,385.2L74.044,385.2L78.172,385.2L78.172,385.2L82.231,385.2L82.231,375.2L86.344,375.2L86.344,384.8L90.458,384.8L90.458,381.6L94.571,381.6L94.571,381.6L98.726,381.6L98.726,397.2L102.839,397.2L102.839,397.2L106.912,397.2L106.912,397.2L111.094,397.2L111.094,387.2L115.194,387.2L115.194,387.2L119.253,387.2L119.253,387.2L123.366,387.2L123.366,378.4L127.48,378.4L127.48,386.8L131.593,386.8L131.593,386.8L135.748,386.8L135.748,386.8L139.875,386.8L139.875,398.8L143.934,398.8L143.934,386.8L148.075,386.8L148.075,386.8L152.161,386.8L152.161,382.8L156.33,382.8L156.33,382.8L160.43,382.8L160.43,382.8L164.502,382.8L164.502,372.8L168.616,372.8L168.616,381.6L172.77,381.6L172.77,399.6L176.843,399.6L176.843,399.6L180.997,399.6L180.997,398.4L185.125,398.4L185.125,398.4L189.184,398.4L189.184,398.4L193.338,398.4L193.338,390.4L197.465,390.4L197.465,384.4L201.524,384.4L201.524,384.4L205.638,384.4L205.638,381.6L209.751,381.6L209.751,381.6L213.906,381.6L213.906,381.6L217.979,381.6L217.979,381.6L222.133,381.6L222.133,380.8L226.206,380.8L226.206,388.8L230.36,388.8L230.36,388.8L234.46,388.8L234.46,389.6L238.547,389.6L238.547,389.6L242.701,389.6L242.701,389.6L246.801,389.6L246.801,381.6L250.887,381.6L250.887,381.6L255.001,381.6L255.001,382.4L259.114,382.4L259.114,382.4L263.269,382.4L263.269,390.4L267.369,390.4L267.369,390.4L271.455,390.4L271.455,390.4L275.569,390.4L275.569,392L279.682,392L279.682,384.8L283.81,384.8L283.81,384.8L287.95,384.8L287.95,377.2L292.037,377.2L292.037,377.2L296.178,377.2L296.178,377.2L300.305,377.2L300.305,377.2L304.418,377.2L304.418,381.2L308.491,381.2L308.491,389.6L312.646,389.6L312.646,389.6L316.732,389.6L316.732,380.4L320.832,380.4L320.832,380.4L324.986,380.4L324.986,380.4L329.059,380.4L329.059,384L333.213,384L333.213,375.6L337.286,375.6L337.286,381.6L341.4,381.6L341.4,381.6L345.568,381.6L345.568,399.2L349.654,399.2L349.654,399.2L353.768,399.2L353.768,399.2L357.868,399.2L357.868,391.2L362.022,391.2L362.022,388.8L366.136,388.8L366.136,388.8L370.208,388.8L370.208,388L374.363,388L374.363,388L378.436,388L378.436,388L382.549,388L382.549,382L386.676,382L386.676,390L390.776,390L390.776,380.4L394.944,380.4L394.944,380.4L399.003,380.4L399.003,394.4L403.131,394.4L403.131,394.4L407.285,394.4L407.285,394.4L411.344,394.4L411.344,392.4L415.458,392.4L415.458,385.6L419.626,385.6L419.626,385.6L423.712,385.6L423.712,375.6L427.798,375.6L427.798,395.6L431.912,395.6L431.912,395.6L436.039,395.6L436.039,395.6L440.194,395.6L440.194,396L444.266,396L444.266,386.4L448.394,386.4L448.394,386.4L452.494,386.4L452.494,389.2L456.607,389.2L456.607,389.2L460.721,389.2L460.721,389.2L464.834,389.2L464.834,381.2L469.003,381.2L469.003,390L473.061,390L473.061,397.2L477.202,397.2L477.202,397.2L481.289,397.2L481.289,397.6L485.402,397.6L485.402,397.6L489.543,397.6L489.543,397.6L493.629,397.6L493.629,389.6L497.743,389.6L497.743,388.8L501.87,388.8L501.87,388.8L505.997,388.8L505.997,376.8L510.097,376.8L510.097,400L514.238,400L514.238,400L518.325,400L518.325,400L522.438,400L522.438,390L526.552,390L526.552,388.8L530.665,388.8L530.665,388.8L534.779,388.8L534.779,386.8L538.906,386.8L538.906,386.8L543.006,386.8L543.006,386.8L547.147,386.8L547.147,380.4L551.233,380.4L551.233,380.4L555.347,380.4L555.347,388L559.474,388L559.474,388L563.642,388L563.642,386L567.701,386L567.701,386L571.815,386L571.815,386L575.983,386L575.983,376L580.083,376L580.083,378.8L584.169,378.8L584.169,378.8L588.269,378.8L588.269,368L592.424,368L592.424,392L596.496,392L596.496,392L600.61,392L600.61,392L604.764,392L604.764,394.4L608.837,394.4L608.837,389.2L612.95,389.2L612.95,389.2L617.064,389.2L617.064,388.4L621.178,388.4L621.178,388.4L625.291,388.4L625.291,388.4L629.432,388.4L629.432,386.8L633.546,386.8L633.546,386.8L637.646,386.8L637.646,394.8L641.746,394.8L641.746,394.8L645.873,394.8L645.873,396L650,396L650,396" stroke="#ffa83f" stroke-width="2" stroke-dasharray="2,2" opacity="0.5"/></g></g><path class="foreground" aria-hidden="true" d="" display="none"/></g><g transform="translate(0,0)"><path class="background" aria-hidden="true" d="M0,0h650v400h-650Z"/><g><g class="mark-line role-mark layer_1_marks" role="graphics-object" aria-roledescription="line mark container"><path aria-label="Time: Mar 04, 2025; Queue Size: 0; peer: peer_3" role="graphics-symbol" aria-roledescription="line mark" d="M0,400L4.073,400L4.073,400L8.159,400L8.159,400L12.286,400L12.286,400L16.4,400L16.4,399.6L20.568,399.6L20.568,399.6L24.64,399.6L24.64,399.6L28.768,399.6L28.768,399.6L32.868,399.6L32.868,400L36.995,400L36.995,400L41.149,400L41.149,400L45.277,400L45.277,400L49.39,400L49.39,400L53.436,400L53.436,400L57.576,400L57.576,400L61.676,400L61.676,385.6L65.776,385.6L65.776,385.6L69.944,385.6L69.944,393.6L74.044,393.6L74.044,393.6L78.172,393.6L78.172,393.6L82.231,393.6L82.231,381.6L86.344,381.6L86.344,391.2L90.471,391.2L90.471,390.4L94.585,390.4L94.585,390.4L98.726,390.4L98.726,389.6L102.839,389.6L102.839,389.6L106.953,389.6L106.953,389.6L111.094,389.6L111.094,381.6L115.194,381.6L115.194,392.8L119.253,392.8L119.253,392.8L123.38,392.8L123.38,384L127.48,384L127.48,392.4L131.593,392.4L131.593,392.4L135.734,392.4L135.734,392.4L139.875,392.4L139.875,395.6L143.934,395.6L143.934,383.6L148.075,383.6L148.075,383.6L152.161,383.6L152.161,380.8L156.33,380.8L156.33,380.8L160.43,380.8L160.43,380.8L164.502,380.8L164.502,370.8L168.616,370.8L168.616,390.8L172.77,390.8L172.77,387.2L176.843,387.2L176.843,387.2L180.997,387.2L180.997,387.6L185.125,387.6L185.125,387.6L189.184,387.6L189.184,387.6L193.338,387.6L193.338,381.6L197.465,381.6L197.465,392.8L201.524,392.8L201.524,392.8L205.638,392.8L205.638,390L209.751,390L209.751,390L213.906,390L213.906,390L217.979,390L217.979,390L222.133,390L222.133,389.2L226.206,389.2L226.206,386.4L230.36,386.4L230.36,386.4L234.46,386.4L234.46,398.8L238.547,398.8L238.547,398.8L242.701,398.8L242.701,398.8L246.815,398.8L246.815,388.8L250.887,388.8L250.887,388.8L255.015,388.8L255.015,391.6L259.114,391.6L259.114,391.6L263.269,391.6L263.269,384L267.369,384L267.369,384L271.455,384L271.455,384L275.569,384L275.569,387.6L279.682,387.6L279.682,398L283.81,398L283.81,398L287.95,398L287.95,390.4L292.037,390.4L292.037,390.4L296.178,390.4L296.178,390.4L300.305,390.4L300.305,390.4L304.418,390.4L304.418,392.4L308.491,392.4L308.491,389.6L312.646,389.6L312.646,389.6L316.732,389.6L316.732,380.4L320.832,380.4L320.832,380.4L324.986,380.4L324.986,380.4L329.059,380.4L329.059,390.4L333.213,390.4L333.213,386L337.286,386L337.286,389.2L341.4,389.2L341.4,389.2L345.568,389.2L345.568,390.4L349.654,390.4L349.654,390.4L353.768,390.4L353.768,390.4L357.922,390.4L357.922,384.4L362.022,384.4L362.022,392.4L366.136,392.4L366.136,392.4L370.208,392.4L370.208,391.6L374.363,391.6L374.363,391.6L378.436,391.6L378.436,391.6L382.549,391.6L382.549,385.6L386.676,385.6L386.676,393.6L390.776,393.6L390.776,381.2L394.944,381.2L394.944,381.2L399.003,381.2L399.003,380.4L403.131,380.4L403.131,380.4L407.285,380.4L407.285,380.4L411.344,380.4L411.344,392.4L415.458,392.4L415.458,393.6L419.626,393.6L419.626,393.6L423.712,393.6L423.712,383.6L427.798,383.6L427.798,391.2L431.912,391.2L431.912,391.2L436.039,391.2L436.039,391.2L440.194,391.2L440.194,393.6L444.266,393.6L444.266,381.6L448.394,381.6L448.394,381.6L452.494,381.6L452.494,398.8L456.607,398.8L456.607,398.8L460.721,398.8L460.721,398.8L464.834,398.8L464.834,388.8L469.003,388.8L469.003,397.6L473.061,397.6L473.061,388L477.202,388L477.202,388L481.289,388L481.289,398.4L485.402,398.4L485.402,398.4L489.557,398.4L489.557,398.4L493.629,398.4L493.629,389.6L497.743,389.6L497.743,386.8L501.87,386.8L501.87,386.8L505.997,386.8L505.997,374.8L510.097,374.8L510.097,388.8L514.238,388.8L514.238,388.8L518.325,388.8L518.325,388.8L522.438,388.8L522.438,380.8L526.552,380.8L526.552,397.6L530.665,397.6L530.665,397.6L534.779,397.6L534.779,395.6L538.906,395.6L538.906,395.6L543.02,395.6L543.02,395.6L547.147,395.6L547.147,387.6L551.233,387.6L551.233,387.6L555.347,387.6L555.347,392.4L559.474,392.4L559.474,392.4L563.642,392.4L563.642,390.4L567.701,390.4L567.701,390.4L571.828,390.4L571.828,390.4L575.983,390.4L575.983,380.4L580.083,380.4L580.083,388.4L584.169,388.4L584.169,388.4L588.269,388.4L588.269,381.6L592.424,381.6L592.424,382.4L596.496,382.4L596.496,382.4L600.61,382.4L600.61,382.4L604.764,382.4L604.764,386.8L608.837,386.8L608.837,392.8L612.95,392.8L612.95,392.8L617.064,392.8L617.064,392L621.178,392L621.178,392L625.291,392L625.291,392L629.432,392L629.432,390.4L633.546,390.4L633.546,390.4L637.632,390.4L637.632,384.4L641.746,384.4L641.746,384.4L645.859,384.4L645.859,399.2L650,399.2L650,399.2" stroke="#4aa148" stroke-width="2" stroke-dasharray="2,2" opacity="0.5"/></g></g><path class="foreground" aria-hidden="true" d="" display="none"/></g><g transform="translate(0,0)"><path class="background" aria-hidden="true" d="M0,0h650v400h-650Z"/><g><g class="mark-line role-mark layer_1_marks" role="graphics-object" aria-roledescription="line mark container"><path aria-label="Time: Mar 04, 2025; Queue Size: 0; peer: peer_2" role="graphics-symbol" aria-roledescription="line mark" d="M0,400L4.073,400L4.073,400L8.159,400L8.159,400L12.286,400L12.286,400L16.386,400L16.386,399.6L20.568,399.6L20.568,399.6L24.64,399.6L24.64,399.6L28.768,399.6L28.768,399.6L32.868,399.6L32.868,400L36.995,400L36.995,400L41.149,400L41.149,400L45.277,400L45.277,400L49.39,400L49.39,400L53.436,400L53.436,400L57.59,400L57.59,400L61.676,400L61.676,391.6L65.776,391.6L65.776,391.6L69.944,391.6L69.944,387.2L74.044,387.2L74.044,387.2L78.158,387.2L78.158,387.2L82.231,387.2L82.231,377.2L86.344,377.2L86.344,386.8L90.458,386.8L90.458,385.6L94.585,385.6L94.585,385.6L98.726,385.6L98.726,397.2L102.839,397.2L102.839,397.2L106.912,397.2L106.912,397.2L111.094,397.2L111.094,387.2L115.194,387.2L115.194,390L119.253,390L119.253,390L123.38,390L123.38,381.2L127.535,381.2L127.535,389.6L131.593,389.6L131.593,389.6L135.734,389.6L135.734,389.6L139.875,389.6L139.875,392.8L143.934,392.8L143.934,382.4L148.075,382.4L148.075,382.4L152.161,382.4L152.161,394L156.33,394L156.33,394L160.43,394L160.43,394L164.502,394L164.502,390.8L168.616,390.8L168.616,390.8L172.77,390.8L172.77,387.2L176.843,387.2L176.843,387.2L180.997,387.2L180.997,398.4L185.125,398.4L185.125,398.4L189.184,398.4L189.184,398.4L193.338,398.4L193.338,390.4L197.465,390.4L197.465,389.2L201.538,389.2L201.538,389.2L205.638,389.2L205.638,386.4L209.806,386.4L209.806,386.4L213.906,386.4L213.906,386.4L217.979,386.4L217.979,386.4L222.133,386.4L222.133,385.6L226.206,385.6L226.206,382.4L230.36,382.4L230.36,382.4L234.46,382.4L234.46,398.8L238.547,398.8L238.547,398.8L242.701,398.8L242.701,398.8L246.815,398.8L246.815,388.8L250.887,388.8L250.887,388.8L255.001,388.8L255.001,389.2L259.114,389.2L259.114,389.2L263.269,389.2L263.269,381.6L267.369,381.6L267.369,381.6L271.455,381.6L271.455,381.6L275.569,381.6L275.569,392L279.682,392L279.682,389.6L283.81,389.6L283.81,389.6L287.964,389.6L287.964,382L292.037,382L292.037,382L296.178,382L296.178,382L300.305,382L300.305,382L304.418,382L304.418,386L308.491,386L308.491,380.8L312.646,380.8L312.646,380.8L316.732,380.8L316.732,388.8L320.832,388.8L320.832,388.8L324.986,388.8L324.986,388.8L329.059,388.8L329.059,390.4L333.213,390.4L333.213,383.6L337.286,383.6L337.286,386.4L341.4,386.4L341.4,386.4L345.568,386.4L345.568,399.2L349.654,399.2L349.654,399.2L353.768,399.2L353.768,399.2L357.922,399.2L357.922,391.2L362.022,391.2L362.022,390.4L366.136,390.4L366.136,390.4L370.208,390.4L370.208,389.6L374.363,389.6L374.363,389.6L378.436,389.6L378.436,389.6L382.549,389.6L382.549,383.6L386.676,383.6L386.676,391.6L390.776,391.6L390.776,377.2L394.944,377.2L394.944,377.2L399.003,377.2L399.003,394.4L403.117,394.4L403.117,394.4L407.285,394.4L407.285,394.4L411.344,394.4L411.344,392.4L415.458,392.4L415.458,386.4L419.571,386.4L419.571,386.4L423.712,386.4L423.712,376.4L427.798,376.4L427.798,384L431.912,384L431.912,384L436.039,384L436.039,384L440.194,384L440.194,396L444.266,396L444.266,384L448.394,384L448.394,384L452.494,384L452.494,386.8L456.607,386.8L456.607,386.8L460.721,386.8L460.721,386.8L464.834,386.8L464.834,378.8L469.003,378.8L469.003,387.6L473.061,387.6L473.061,380.4L477.202,380.4L477.202,380.4L481.289,380.4L481.289,398.4L485.402,398.4L485.402,398.4L489.557,398.4L489.557,398.4L493.629,398.4L493.629,389.6L497.743,389.6L497.743,390L501.87,390L501.87,390L505.997,390L505.997,378L510.097,378L510.097,392L514.238,392L514.238,392L518.325,392L518.325,392L522.438,392L522.438,384L526.552,384L526.552,395.2L530.665,395.2L530.665,395.2L534.779,395.2L534.779,393.2L538.906,393.2L538.906,393.2L543.006,393.2L543.006,393.2L547.147,393.2L547.147,386.8L551.233,386.8L551.233,386.8L555.347,386.8L555.347,388L559.474,388L559.474,388L563.642,388L563.642,396L567.701,396L567.701,396L571.815,396L571.815,396L575.983,396L575.983,384L580.083,384L580.083,386.4L584.169,386.4L584.169,386.4L588.269,386.4L588.269,380.4L592.424,380.4L592.424,380.4L596.496,380.4L596.496,380.4L600.61,380.4L600.61,380.4L604.764,380.4L604.764,394.4L608.837,394.4L608.837,390L612.95,390L612.95,390L617.064,390L617.064,389.2L621.178,389.2L621.178,389.2L625.291,389.2L625.291,389.2L629.432,389.2L629.432,387.6L633.546,387.6L633.546,387.6L637.632,387.6L637.632,383.2L641.746,383.2L641.746,383.2L645.873,383.2L645.873,399.2L650,399.2L650,399.2" stroke="#e2474d" stroke-width="2" stroke-dasharray="2,2" opacity="0.5"/></g></g><path class="foreground" aria-hidden="true" d="" display="none"/></g><g transform="translate(0,0)"><path class="background" aria-hidden="true" d="M0,0h650v400h-650Z"/><g><g class="mark-line role-mark layer_1_marks" role="graphics-object" aria-roledescription="line mark container"><path aria-label="Time: Mar 04, 2025; Queue Size: 0; peer: peer_0" role="graphics-symbol" aria-roledescription="line mark" d="M0,400L4.073,400L4.073,400L8.159,400L8.159,400L12.272,400L12.272,400L16.4,400L16.4,399.6L20.568,399.6L20.568,399.6L24.627,399.6L24.627,399.6L28.768,399.6L28.768,399.6L32.868,399.6L32.868,400L36.981,400L36.981,400L41.136,400L41.136,400L45.277,400L45.277,400L49.39,400L49.39,400L53.436,400L53.436,400L57.576,400L57.576,400L61.676,400L61.676,388.8L65.776,388.8L65.776,388.8L69.944,388.8L69.944,384.4L74.044,384.4L74.044,384.4L78.131,384.4L78.131,384.4L82.231,384.4L82.231,374.4L86.344,374.4L86.344,384L90.471,384L90.471,394L94.571,394L94.571,394L98.726,394L98.726,393.2L102.839,393.2L102.839,393.2L106.953,393.2L106.953,393.2L111.094,393.2L111.094,385.2L115.194,385.2L115.194,386.4L119.253,386.4L119.253,386.4L123.38,386.4L123.38,377.6L127.535,377.6L127.535,397.6L131.593,397.6L131.593,397.6L135.734,397.6L135.734,397.6L139.862,397.6L139.862,398.8L143.934,398.8L143.934,386L148.075,386L148.075,386L152.161,386L152.161,382L156.289,382L156.289,382L160.43,382L160.43,382L164.502,382L164.502,372L168.616,372L168.616,380.8L172.77,380.8L172.77,399.6L176.843,399.6L176.843,399.6L180.997,399.6L180.997,398.4L185.125,398.4L185.125,398.4L189.184,398.4L189.184,398.4L193.338,398.4L193.338,390.4L197.465,390.4L197.465,385.2L201.524,385.2L201.524,385.2L205.638,385.2L205.638,379.6L209.751,379.6L209.751,382.4L213.906,382.4L213.906,382.4L217.979,382.4L217.979,382.4L222.133,382.4L222.133,392.4L226.206,392.4L226.206,388L230.36,388L230.36,388L234.46,388L234.46,388.8L238.547,388.8L238.547,388.8L242.701,388.8L242.701,388.8L246.801,388.8L246.801,380.8L250.887,380.8L250.887,380.8L255.015,380.8L255.015,396.4L259.114,396.4L259.114,396.4L263.269,396.4L263.269,388.8L267.369,388.8L267.369,388.8L271.455,388.8L271.455,388.8L275.569,388.8L275.569,392L279.682,392L279.682,388L283.81,388L283.81,388L287.964,388L287.964,380.4L292.037,380.4L292.037,380.4L296.178,380.4L296.178,380.4L300.305,380.4L300.305,380.4L304.418,380.4L304.418,392.4L308.491,392.4L308.491,388.4L312.646,388.4L312.646,388.4L316.718,388.4L316.718,379.2L320.832,379.2L320.832,379.2L324.986,379.2L324.986,379.2L329.059,379.2L329.059,382.8L333.213,382.8L333.213,374.8L337.286,374.8L337.286,399.2L341.4,399.2L341.4,399.2L345.568,399.2L345.568,399.2L349.654,399.2L349.654,399.2L353.768,399.2L353.768,399.2L357.868,399.2L357.868,391.2L362.022,391.2L362.022,388L366.136,388L366.136,388L370.208,388L370.208,387.2L374.363,387.2L374.363,387.2L378.436,387.2L378.436,387.2L382.549,387.2L382.549,381.2L386.676,381.2L386.676,397.2L390.776,397.2L390.776,386.8L394.944,386.8L394.944,386.8L399.003,386.8L399.003,384L403.117,384L403.117,384L407.285,384L407.285,384L411.344,384L411.344,384L415.458,384L415.458,380L419.571,380L419.571,400L423.712,400L423.712,388L427.798,388L427.798,395.6L431.912,395.6L431.912,395.6L436.039,395.6L436.039,395.6L440.194,395.6L440.194,396L444.266,396L444.266,382.8L448.38,382.8L448.38,382.8L452.494,382.8L452.494,385.6L456.607,385.6L456.607,385.6L460.721,385.6L460.721,385.6L464.834,385.6L464.834,377.6L468.989,377.6L468.989,397.6L473.061,397.6L473.061,387.6L477.202,387.6L477.202,387.6L481.289,387.6L481.289,388L485.402,388L485.402,388L489.557,388L489.557,388L493.629,388L493.629,381.2L497.743,381.2L497.743,381.2L501.87,381.2L501.87,381.2L505.984,381.2L505.984,369.2L510.097,369.2L510.097,400L514.238,400L514.238,400L518.325,400L518.325,400L522.438,400L522.438,390L526.552,390L526.552,385.6L530.665,385.6L530.665,385.6L534.779,385.6L534.779,396L538.906,396L538.906,396L543.006,396L543.006,396L547.147,396L547.147,387.6L551.233,387.6L551.233,387.6L555.347,387.6L555.347,389.2L559.474,389.2L559.474,389.2L563.629,389.2L563.629,387.2L567.701,387.2L567.701,387.2L571.815,387.2L571.815,387.2L575.983,387.2L575.983,377.2L580.069,377.2L580.069,383.2L584.155,383.2L584.155,383.2L588.269,383.2L588.269,392L592.383,392L592.383,392L596.496,392L596.496,392L600.61,392L600.61,392L604.764,392L604.764,394.4L608.837,394.4L608.837,384.4L612.95,384.4L612.95,384.4L617.064,384.4L617.064,383.6L621.178,383.6L621.178,383.6L625.291,383.6L625.291,383.6L629.432,383.6L629.432,393.6L633.546,393.6L633.546,393.6L637.632,393.6L637.632,384L641.746,384L641.746,384L645.873,384L645.873,385.2L650,385.2L650,385.2" stroke="#6583ff" stroke-width="2" stroke-dasharray="2,2" opacity="0.5"/></g></g><path class="foreground" aria-hidden="true" d="" display="none"/></g><g transform="translate(0,0)"><path class="background" aria-hidden="true" d="M0,0h650v400h-650Z"/><g><g class="mark-line role-mark layer_1_marks" role="graphics-object" aria-roledescription="line mark container"><path aria-label="Time: Mar 04, 2025; Queue Size: 0; peer: peer_6" role="graphics-symbol" aria-roledescription="line mark" d="M4.086,400L8.159,400L8.159,400L12.286,400L12.286,400L16.4,400L16.4,399.6L20.568,399.6L20.568,399.6L24.695,399.6L24.695,399.6L28.768,399.6L28.768,399.6L32.881,399.6L32.881,400L36.995,400L36.995,400L41.149,400L41.149,400L45.277,400L45.277,400L49.39,400L49.39,400L53.436,400L53.436,400L57.59,400L57.59,400L61.676,400L61.676,391.2L65.776,391.2L65.776,391.2L69.944,391.2L69.944,386.8L74.044,386.8L74.044,386.8L78.172,386.8L78.172,386.8L82.272,386.8L82.272,376.8L86.358,376.8L86.358,386.4L90.499,386.4L90.499,382L94.585,382L94.585,382L98.726,382L98.726,381.2L102.839,381.2L102.839,381.2L106.953,381.2L106.953,381.2L111.094,381.2L111.094,373.2L115.194,373.2L115.194,370.4L119.253,370.4L119.253,370.4L123.38,370.4L123.38,360.4L127.535,360.4L127.535,360.4L131.593,360.4L131.593,360.4L135.748,360.4L135.748,360.4L139.875,360.4L139.875,355.2L143.948,355.2L143.948,344.8L148.075,344.8L148.075,344.8L152.161,344.8L152.161,337.6L156.33,337.6L156.33,337.6L160.43,337.6L160.43,337.6L164.516,337.6L164.516,327.6L168.616,327.6L168.616,329.6L172.77,329.6L172.77,318.4L176.843,318.4L176.843,318.4L180.997,318.4L180.997,309.6L185.125,309.6L185.125,309.6L189.184,309.6L189.184,309.6L193.338,309.6L193.338,303.6L197.465,303.6L197.465,292.8L201.538,292.8L201.538,292.8L205.638,292.8L205.638,280.8L209.806,280.8L209.806,280.8L213.906,280.8L213.906,280.8L217.979,280.8L217.979,280.8L222.133,280.8L222.133,270.8L226.206,270.8L226.206,258.4L230.36,258.4L230.36,258.4L234.46,258.4L234.46,246.4L238.547,246.4L238.547,246.4L242.701,246.4L242.701,246.4L246.815,246.4L246.815,238.4L250.887,238.4L250.887,238.4L255.001,238.4L255.001,229.2L259.114,229.2L259.114,229.2L263.269,229.2L263.269,217.2L267.383,217.2L267.383,217.2L271.455,217.2L271.455,217.2L275.569,217.2L275.569,207.6L279.682,207.6L279.682,194.8L283.81,194.8L283.81,194.8L287.964,194.8L287.964,182.8L292.037,182.8L292.037,182.8L296.178,182.8L296.178,182.8L300.305,182.8L300.305,182.8L304.418,182.8L304.418,174.8L308.491,174.8L308.491,160.8L312.646,160.8L312.646,160.8L316.732,160.8L316.732,148.8L320.832,148.8L320.832,148.8L324.986,148.8L324.986,148.8L329.059,148.8L329.059,138.8L333.213,138.8L333.213,132L337.286,132L337.286,128L341.4,128L341.4,128L345.568,128L345.568,117.2L349.654,117.2L349.654,117.2L353.768,117.2L353.768,117.2L357.868,117.2L357.868,111.2L362.022,111.2L362.022,99.6L366.136,99.6L366.136,99.6L370.208,99.6L370.208,87.6L374.363,87.6L374.363,87.6L378.436,87.6L378.436,87.6L382.549,87.6L382.549,79.6L386.676,79.6L386.676,77.6L390.776,77.6L390.776,65.6L394.944,65.6L394.944,65.6L399.003,65.6L399.003,57.6L403.131,57.6L403.131,57.6L407.285,57.6L407.285,57.6L411.344,57.6L411.344,71.6L415.458,71.6L415.458,58L419.626,58L419.626,58L423.712,58L423.712,48L427.798,48L427.798,48L431.912,48L431.912,48L436.039,48L436.039,48L440.194,48L440.194,40L444.266,40L444.266,31.6L448.394,31.6L448.394,31.6L452.494,31.6L452.494,25.6L456.607,25.6L456.607,25.6L460.721,25.6L460.721,25.6L464.834,25.6L464.834,17.6L469.003,17.6L469.003,17.6L473.061,17.6L473.061,5.6L477.202,5.6L477.202,5.6L481.289,5.6L481.289,0L485.402,0L485.402,0L489.557,0L489.557,0L493.629,0L493.629,0L497.743,0L497.743,0L501.87,0L501.87,0L505.997,0L505.997,0L510.097,0L510.097,0L514.238,0L514.238,0L518.325,0L518.325,0L522.438,0L522.438,0L526.552,0L526.552,0L530.665,0L530.665,0L534.779,0L534.779,0L538.906,0L538.906,0L543.02,0L543.02,0L547.161,0L547.161,4.8L551.233,4.8L551.233,4.8L555.347,4.8L555.347,0L559.474,0L559.474,0L563.642,0L563.642,0L567.701,0L567.701,0L571.828,0L571.828,0L575.983,0L575.983,0L580.083,0L580.083,0L584.169,0L584.169,0L588.269,0L588.269,0L592.424,0L592.424,0L596.496,0L596.496,0L600.61,0L600.61,0L604.764,0L604.764,0L608.837,0L608.837,0L612.964,0L612.964,0L617.064,0L617.064,0L621.178,0L621.178,0L625.346,0L625.346,0L629.432,0L629.432,0L633.546,0L633.546,0L637.646,0L637.646,0L641.746,0L641.746,0L645.873,0L645.873,0L650,0L650,0" stroke="#bc1227" stroke-width="2" stroke-dasharray="2,2" opacity="0.5"/></g></g><path class="foreground" aria-hidden="true" d="" display="none"/></g></g><g class="mark-group role-legend" role="graphics-symbol" aria-roledescription="legend" aria-label="Symbol legend titled 'Peer' for stroke color with 7 values: peer_0, peer_1, peer_2, peer_3, peer_4, peer_5, peer_6"><g transform="translate(670,0)"><path class="background" aria-hidden="true" d="M0,0h55v132h-55Z" pointer-events="none"/><g><g class="mark-group role-legend-entry"><g transform="translate(0,23)"><path class="background" aria-hidden="true" d="M0,0h0v0h0Z" pointer-events="none"/><g><g class="mark-group role-scope" role="graphics-object" aria-roledescription="group mark container"><g transform="translate(0,0)"><path class="background" aria-hidden="true" d="M0,0h54.0699713782287v13h-54.0699713782287Z" pointer-events="none" opacity="1"/><g><g class="mark-symbol role-legend-symbol" pointer-events="none"><path transform="translate(6,6)" d="M5,0A5,5,0,1,1,-5,0A5,5,0,1,1,5,0" stroke="#6583ff" stroke-width="2" opacity="1"/></g><g class="mark-text role-legend-label" pointer-events="none"><text text-anchor="start" transform="translate(16,10)" font-family="sans-serif" font-size="12px" fill="#000" opacity="1">peer_0</text></g></g><path class="foreground" aria-hidden="true" d="" pointer-events="none" display="none"/></g><g transform="translate(0,16)"><path class="background" aria-hidden="true" d="M0,0h54.0699713782287v13h-54.0699713782287Z" pointer-events="none" opacity="1"/><g><g class="mark-symbol role-legend-symbol" pointer-events="none"><path transform="translate(6,6)" d="M5,0A5,5,0,1,1,-5,0A5,5,0,1,1,5,0" stroke="#ffa83f" stroke-width="2" opacity="1"/></g><g class="mark-text role-legend-label" pointer-events="none"><text text-anchor="start" transform="translate(16,10)" font-family="sans-serif" font-size="12px" fill="#000" opacity="1">peer_1</text></g></g><path class="foreground" aria-hidden="true" d="" pointer-events="none" display="none"/></g><g transform="translate(0,32)"><path class="background" aria-hidden="true" d="M0,0h54.0699713782287v13h-54.0699713782287Z" pointer-events="none" opacity="1"/><g><g class="mark-symbol role-legend-symbol" pointer-events="none"><path transform="translate(6,6)" d="M5,0A5,5,0,1,1,-5,0A5,5,0,1,1,5,0" stroke="#e2474d" stroke-width="2" opacity="1"/></g><g class="mark-text role-legend-label" pointer-events="none"><text text-anchor="start" transform="translate(16,10)" font-family="sans-serif" font-size="12px" fill="#000" opacity="1">peer_2</text></g></g><path class="foreground" aria-hidden="true" d="" pointer-events="none" display="none"/></g><g transform="translate(0,48)"><path class="background" aria-hidden="true" d="M0,0h54.0699713782287v13h-54.0699713782287Z" pointer-events="none" opacity="1"/><g><g class="mark-symbol role-legend-symbol" pointer-events="none"><path transform="translate(6,6)" d="M5,0A5,5,0,1,1,-5,0A5,5,0,1,1,5,0" stroke="#4aa148" stroke-width="2" opacity="1"/></g><g class="mark-text role-legend-label" pointer-events="none"><text text-anchor="start" transform="translate(16,10)" font-family="sans-serif" font-size="12px" fill="#000" opacity="1">peer_3</text></g></g><path class="foreground" aria-hidden="true" d="" pointer-events="none" display="none"/></g><g transform="translate(0,64)"><path class="background" aria-hidden="true" d="M0,0h54.0699713782287v13h-54.0699713782287Z" pointer-events="none" opacity="1"/><g><g class="mark-symbol role-legend-symbol" pointer-events="none"><path transform="translate(6,6)" d="M5,0A5,5,0,1,1,-5,0A5,5,0,1,1,5,0" stroke="#2d4cdb" stroke-width="2" opacity="1"/></g><g class="mark-text role-legend-label" pointer-events="none"><text text-anchor="start" transform="translate(16,10)" font-family="sans-serif" font-size="12px" fill="#000" opacity="1">peer_4</text></g></g><path class="foreground" aria-hidden="true" d="" pointer-events="none" display="none"/></g><g transform="translate(0,80)"><path class="background" aria-hidden="true" d="M0,0h54.0699713782287v13h-54.0699713782287Z" pointer-events="none" opacity="1"/><g><g class="mark-symbol role-legend-symbol" pointer-events="none"><path transform="translate(6,6)" d="M5,0A5,5,0,1,1,-5,0A5,5,0,1,1,5,0" stroke="#b7641f" stroke-width="2" opacity="1"/></g><g class="mark-text role-legend-label" pointer-events="none"><text text-anchor="start" transform="translate(16,10)" font-family="sans-serif" font-size="12px" fill="#000" opacity="1">peer_5</text></g></g><path class="foreground" aria-hidden="true" d="" pointer-events="none" display="none"/></g><g transform="translate(0,96)"><path class="background" aria-hidden="true" d="M0,0h54.0699713782287v13h-54.0699713782287Z" pointer-events="none" opacity="1"/><g><g class="mark-symbol role-legend-symbol" pointer-events="none"><path transform="translate(6,6)" d="M5,0A5,5,0,1,1,-5,0A5,5,0,1,1,5,0" stroke="#bc1227" stroke-width="2" opacity="1"/></g><g class="mark-text role-legend-label" pointer-events="none"><text text-anchor="start" transform="translate(16,10)" font-family="sans-serif" font-size="12px" fill="#000" opacity="1">peer_6</text></g></g><path class="foreground" aria-hidden="true" d="" pointer-events="none" display="none"/></g></g></g><path class="foreground" aria-hidden="true" d="" pointer-events="none" display="none"/></g></g><g class="mark-text role-legend-title" pointer-events="none"><text text-anchor="start" transform="translate(0,10)" font-family="sans-serif" font-size="13px" font-weight="400" fill="#000" opacity="1">Peer</text></g></g><path class="foreground" aria-hidden="true" d="" pointer-events="none" display="none"/></g></g><g class="mark-group role-title"><g transform="translate(329.168676554876,-28)"><path class="background" aria-hidden="true" d="M0,0h0v0h0Z" pointer-events="none"/><g><g class="mark-text role-title-text" role="graphics-symbol" aria-roledescription="title" aria-label="Title text 'Unique Transactions and Queue Size over time'" pointer-events="none"><text text-anchor="middle" transform="translate(0,14)" font-family="Inter" font-size="18px" font-weight="400" fill="#445668" opacity="1">Unique Transactions and Queue Size over time</text></g></g><path class="foreground" aria-hidden="true" d="" pointer-events="none" display="none"/></g></g></g><path class="foreground" aria-hidden="true" d="" display="none"/></g></g></g></svg>