<svg xmlns="http://www.w3.org/2000/svg" xmlns:xlink="http://www.w3.org/1999/xlink" version="1.1" class="marks" width="804" height="842" viewBox="0 0 804 842"><rect width="804" height="842" fill="#fff"/><g fill="none" stroke-miterlimit="10" transform="translate(73,28)"><g class="mark-group role-frame root" role="graphics-object" aria-roledescription="group mark container"><g transform="translate(0,0)"><path class="background" aria-hidden="true" d="M0,0h650v0h-650Z"/><g><g class="mark-group role-scope concat_0_group" role="graphics-object" aria-roledescription="group mark container"><g transform="translate(0,0)"><path class="background" aria-hidden="true" d="M0.5,0.5h650v200h-650Z" stroke="#ddd"/><g><g class="mark-group role-axis" aria-hidden="true"><g transform="translate(0.5,200.5)"><path class="background" aria-hidden="true" d="M0,0h0v0h0Z" pointer-events="none"/><g><g class="mark-rule role-axis-grid" pointer-events="none"><line transform="translate(35,-200)" x2="0" y2="200" stroke="#ddd" stroke-width="1" opacity="1"/><line transform="translate(79,-200)" x2="0" y2="200" stroke="#ddd" stroke-width="1" opacity="1"/><line transform="translate(123,-200)" x2="0" y2="200" stroke="#ddd" stroke-width="1" opacity="1"/><line transform="translate(167,-200)" x2="0" y2="200" stroke="#ddd" stroke-width="1" opacity="1"/><line transform="translate(212,-200)" x2="0" y2="200" stroke="#ddd" stroke-width="1" opacity="1"/><line transform="translate(256,-200)" x2="0" y2="200" stroke="#ddd" stroke-width="1" opacity="1"/><line transform="translate(300,-200)" x2="0" y2="200" stroke="#ddd" stroke-width="1" opacity="1"/><line transform="translate(344,-200)" x2="0" y2="200" stroke="#ddd" stroke-width="1" opacity="1"/><line transform="translate(389,-200)" x2="0" y2="200" stroke="#ddd" stroke-width="1" opacity="1"/><line transform="translate(433,-200)" x2="0" y2="200" stroke="#ddd" stroke-width="1" opacity="1"/><line transform="translate(477,-200)" x2="0" y2="200" stroke="#ddd" stroke-width="1" opacity="1"/><line transform="translate(521,-200)" x2="0" y2="200" stroke="#ddd" stroke-width="1" opacity="1"/><line transform="translate(566,-200)" x2="0" y2="200" stroke="#ddd" stroke-width="1" opacity="1"/><line transform="translate(610,-200)" x2="0" y2="200" stroke="#ddd" stroke-width="1" opacity="1"/></g></g><path class="foreground" aria-hidden="true" d="" pointer-events="none" display="none"/></g></g><g class="mark-group role-axis" aria-hidden="true"><g transform="translate(0.5,0.5)"><path class="background" aria-hidden="true" d="M0,0h0v0h0Z" pointer-events="none"/><g><g class="mark-rule role-axis-grid" pointer-events="none"><line transform="translate(0,200)" x2="650" y2="0" stroke="#e1e8f0" stroke-width="1" opacity="1"/><line transform="translate(0,158)" x2="650" y2="0" stroke="#e1e8f0" stroke-width="1" opacity="1"/><line transform="translate(0,117)" x2="650" y2="0" stroke="#e1e8f0" stroke-width="1" opacity="1"/><line transform="translate(0,75)" x2="650" y2="0" stroke="#e1e8f0" stroke-width="1" opacity="1"/><line transform="translate(0,33)" x2="650" y2="0" stroke="#e1e8f0" stroke-width="1" opacity="1"/></g></g><path class="foreground" aria-hidden="true" d="" pointer-events="none" display="none"/></g></g><g class="mark-group role-axis" role="graphics-symbol" aria-roledescription="axis" aria-label="X-axis titled 'time' for a time scale with values from Wednesday, 05 March 2025, 1:12:21 AM to Wednesday, 05 March 2025, 1:13:34 AM"><g transform="translate(0.5,200.5)"><path class="background" aria-hidden="true" d="M0,0h0v0h0Z" pointer-events="none"/><g><g class="mark-rule role-axis-tick" pointer-events="none"><line transform="translate(35,0)" x2="0" y2="5" stroke="#888" stroke-width="1" opacity="1"/><line transform="translate(79,0)" x2="0" y2="5" stroke="#888" stroke-width="1" opacity="1"/><line transform="translate(123,0)" x2="0" y2="5" stroke="#888" stroke-width="1" opacity="1"/><line transform="translate(167,0)" x2="0" y2="5" stroke="#888" stroke-width="1" opacity="1"/><line transform="translate(212,0)" x2="0" y2="5" stroke="#888" stroke-width="1" opacity="1"/><line transform="translate(256,0)" x2="0" y2="5" stroke="#888" stroke-width="1" opacity="1"/><line transform="translate(300,0)" x2="0" y2="5" stroke="#888" stroke-width="1" opacity="1"/><line transform="translate(344,0)" x2="0" y2="5" stroke="#888" stroke-width="1" opacity="1"/><line transform="translate(389,0)" x2="0" y2="5" stroke="#888" stroke-width="1" opacity="1"/><line transform="translate(433,0)" x2="0" y2="5" stroke="#888" stroke-width="1" opacity="1"/><line transform="translate(477,0)" x2="0" y2="5" stroke="#888" stroke-width="1" opacity="1"/><line transform="translate(521,0)" x2="0" y2="5" stroke="#888" stroke-width="1" opacity="1"/><line transform="translate(566,0)" x2="0" y2="5" stroke="#888" stroke-width="1" opacity="1"/><line transform="translate(610,0)" x2="0" y2="5" stroke="#888" stroke-width="1" opacity="1"/></g><g class="mark-text role-axis-label" pointer-events="none"><text text-anchor="middle" transform="translate(34.564959906334664,15)" font-family="sans-serif" font-size="10px" fill="#000" opacity="1">:25</text><text text-anchor="middle" transform="translate(78.81094032919009,15)" font-family="sans-serif" font-size="10px" fill="#000" opacity="1">:30</text><text text-anchor="middle" transform="translate(123.05692075204553,15)" font-family="sans-serif" font-size="10px" fill="#000" opacity="1">:35</text><text text-anchor="middle" transform="translate(167.30290117490094,15)" font-family="sans-serif" font-size="10px" fill="#000" opacity="1">:40</text><text text-anchor="middle" transform="translate(211.54888159775638,15)" font-family="sans-serif" font-size="10px" fill="#000" opacity="1">:45</text><text text-anchor="middle" transform="translate(255.79486202061182,15)" font-family="sans-serif" font-size="10px" fill="#000" opacity="1">:50</text><text text-anchor="middle" transform="translate(300.0408424434672,15)" font-family="sans-serif" font-size="10px" fill="#000" opacity="1">:55</text><text text-anchor="middle" transform="translate(344.2868228663227,15)" font-family="sans-serif" font-size="10px" fill="#000" opacity="1">01:13</text><text text-anchor="middle" transform="translate(388.5328032891781,15)" font-family="sans-serif" font-size="10px" fill="#000" opacity="1">:05</text><text text-anchor="middle" transform="translate(432.77878371203354,15)" font-family="sans-serif" font-size="10px" fill="#000" opacity="1">:10</text><text text-anchor="middle" transform="translate(477.024764134889,15)" font-family="sans-serif" font-size="10px" fill="#000" opacity="1">:15</text><text text-anchor="middle" transform="translate(521.2707445577444,15)" font-family="sans-serif" font-size="10px" fill="#000" opacity="1">:20</text><text text-anchor="middle" transform="translate(565.5167249805999,15)" font-family="sans-serif" font-size="10px" fill="#000" opacity="1">:25</text><text text-anchor="middle" transform="translate(609.7627054034552,15)" font-family="sans-serif" font-size="10px" fill="#000" opacity="1">:30</text></g><g class="mark-rule role-axis-domain" pointer-events="none"><line transform="translate(0,0)" x2="650" y2="0" stroke="#e1e8f0" stroke-width="1" opacity="1"/></g><g class="mark-text role-axis-title" pointer-events="none"><text text-anchor="middle" transform="translate(325,36)" font-family="sans-serif" font-size="11px" font-weight="400" fill="#1c2a3a" opacity="1">time</text></g></g><path class="foreground" aria-hidden="true" d="" pointer-events="none" display="none"/></g></g><g class="mark-group role-axis" role="graphics-symbol" aria-roledescription="axis" aria-label="Y-axis titled 'blocks' for a linear scale with values from 0 to 240"><g transform="translate(0.5,0.5)"><path class="background" aria-hidden="true" d="M0,0h0v0h0Z" pointer-events="none"/><g><g class="mark-rule role-axis-tick" pointer-events="none"><line transform="translate(0,200)" x2="-5" y2="0" stroke="#888" stroke-width="1" opacity="1"/><line transform="translate(0,158)" x2="-5" y2="0" stroke="#888" stroke-width="1" opacity="1"/><line transform="translate(0,117)" x2="-5" y2="0" stroke="#888" stroke-width="1" opacity="1"/><line transform="translate(0,75)" x2="-5" y2="0" stroke="#888" stroke-width="1" opacity="1"/><line transform="translate(0,33)" x2="-5" y2="0" stroke="#888" stroke-width="1" opacity="1"/></g><g class="mark-text role-axis-label" pointer-events="none"><text text-anchor="end" transform="translate(-13,204)" font-family="sans-serif" font-size="12px" fill="#000" opacity="1">0</text><text text-anchor="end" transform="translate(-13,162.33333333333331)" font-family="sans-serif" font-size="12px" fill="#000" opacity="1">50</text><text text-anchor="end" transform="translate(-13,120.66666666666666)" font-family="sans-serif" font-size="12px" fill="#000" opacity="1">100</text><text text-anchor="end" transform="translate(-13,79)" font-family="sans-serif" font-size="12px" fill="#000" opacity="1">150</text><text text-anchor="end" transform="translate(-13,37.33333333333333)" font-family="sans-serif" font-size="12px" fill="#000" opacity="1">200</text></g><g class="mark-rule role-axis-domain" pointer-events="none"><line transform="translate(0,200)" x2="0" y2="-200" stroke="#888" stroke-width="1" opacity="1"/></g><g class="mark-text role-axis-title" pointer-events="none"><text text-anchor="middle" transform="translate(-43.59513753976676,100) rotate(-90) translate(0,-3)" font-family="sans-serif" font-size="12px" font-weight="400" fill="#1c2a3a" opacity="1">blocks</text></g></g><path class="foreground" aria-hidden="true" d="" pointer-events="none" display="none"/></g></g><g class="mark-group role-scope concat_0_pathgroup" role="graphics-object" aria-roledescription="group mark container"><g transform="translate(0,0)"><path class="background" aria-hidden="true" d="M0,0h650v200h-650Z"/><g><g class="mark-line role-mark concat_0_marks" role="graphics-object" aria-roledescription="line mark container"><path aria-label="time: Mar 05, 2025; blocks: 0; peer: peer_2" role="graphics-symbol" aria-roledescription="line mark" d="M0,200L2.619,200L5.283,199.167L7.938,199.167L10.61,199.167L13.274,199.167L15.929,199.167L18.592,199.167L21.273,198.333L23.919,198.333L26.583,198.333L29.255,198.333L31.999,196.667L34.645,195.833L37.308,194.167L39.963,193.333L42.627,193.333L45.29,192.5L48.219,191.667L50.626,190.833L54.007,190.833L56.192,188.333L58.98,188.333L61.528,186.667L64.201,185.833L66.856,185.833L69.528,185L72.431,183.333L74.891,182.5L77.59,182.5L80.227,180.833L82.882,180L85.545,180L88.306,178.333L91.058,176.667L93.713,176.667L96.403,176.667L99.031,174.167L101.695,174.167L104.376,174.167L107.332,173.333L109.845,170.833L112.473,170.833L115.137,170.833L117.8,168.333L120.473,168.333L123.137,168.333L126.03,166.667L128.667,165L131.34,165L134.003,163.333L136.685,163.333L139.331,162.5L142.277,162.5L144.764,160L147.428,159.167L150.091,159.167L152.755,157.5L155.418,156.667L158.073,156.667L160.923,155.833L163.436,154.167L166.091,153.333L168.763,153.333L171.427,151.667L174.134,150.833L176.825,150.833L179.462,148.333L182.116,148.333L184.789,148.333L187.647,146.667L190.187,145.833L192.851,145.833L196.151,145.833L198.364,142.5L201.027,142.5L203.7,142.5L206.354,140L209.062,140L211.69,140L214.389,137.5L217.044,136.667L219.699,136.667L222.407,135.833L225.124,135L227.708,134.167L230.893,134.167L233.141,131.667L235.813,130.833L238.468,130.833L241.132,129.167L243.822,129.167L246.459,128.333L249.123,126.667L251.813,125.833L254.45,125.833L257.273,123.333L259.91,123.333L262.573,123.333L265.379,123.333L267.901,120L270.644,120L273.228,120L275.944,118.333L278.599,117.5L281.289,117.5L284.157,116.667L286.723,114.167L289.422,114.167L292.05,114.167L294.758,111.667L297.413,111.667L300.076,111.667L302.74,109.167L305.678,108.333L308.102,108.333L310.766,106.667L313.43,106.667L316.102,105.833L319.217,105.833L321.474,103.333L324.164,103.333L326.792,102.5L329.464,100.833L332.128,100.833L334.783,100L337.668,99.167L340.269,97.5L342.924,96.667L345.712,96.667L348.251,95L350.915,95L353.587,94.167L356.251,91.667L358.932,91.667L361.569,91.667L364.569,90L366.914,89.167L369.596,89.167L372.631,88.333L374.94,85.833L377.604,85.833L380.268,85.833L382.94,83.333L385.604,83.333L388.294,83.333L390.984,81.667L393.639,80L396.285,80L398.957,80L401.762,78.333L404.293,77.5L406.93,77.5L409.594,75L412.257,74.167L414.921,74.167L417.585,72.5L420.248,72.5L422.921,71.667L425.699,70.833L428.239,69.167L430.929,69.167L433.593,68.333L436.265,66.667L438.894,66.667L441.566,65.833L444.3,63.333L446.955,63.333L449.619,63.333L452.327,60.833L454.946,60.833L457.61,60.833L460.751,60L462.999,57.5L465.689,57.5L468.335,57.5L470.99,55L473.689,55L476.317,55L479.034,54.167L481.865,52.5L484.414,51.667L487.086,51.667L489.75,50L492.44,49.167L495.077,49.167L497.75,46.667L500.404,46.667L503.077,45.833L505.732,44.167L508.395,44.167L511.059,43.333L514.014,42.5L516.395,40.833L519.067,40.833L521.731,40L524.386,38.333L527.076,38.333L529.722,37.5L532.536,35.833L535.129,35L537.792,35L540.456,34.167L543.119,32.5L545.783,32.5L548.447,31.667L551.11,29.167L553.783,29.167L556.437,29.167L559.101,26.667L561.774,26.667L564.428,26.667L567.331,25.833L569.862,23.333L572.534,23.333L575.224,23.333L577.914,20.833L580.613,20.833L583.242,20.833L585.914,18.333L588.578,18.333L591.232,17.5L593.94,15.833L596.569,15.833L599.259,15L602.365,15L604.674,12.5L607.338,12.5L610.01,11.667L612.665,10L615.364,10L618.161,9.167L620.7,8.333L623.364,8.333L626.019,8.333L628.691,8.333L631.355,8.333L634.045,8.333L636.682,8.333L639.372,8.333L642,8.333L644.664,8.333L647.354,8.333L650,8.333" stroke="#e2474d" stroke-width="2"/></g></g><path class="foreground" aria-hidden="true" d="" display="none"/></g><g transform="translate(0,0)"><path class="background" aria-hidden="true" d="M0,0h650v200h-650Z"/><g><g class="mark-line role-mark concat_0_marks" role="graphics-object" aria-roledescription="line mark container"><path aria-label="time: Mar 05, 2025; blocks: 0; peer: peer_1" role="graphics-symbol" aria-roledescription="line mark" d="M0,200L2.619,200L5.283,199.167L7.938,199.167L10.61,199.167L13.274,199.167L15.929,199.167L18.592,199.167L21.273,198.333L23.919,198.333L26.583,198.333L29.255,198.333L32.008,196.667L34.645,195.833L37.308,194.167L39.963,193.333L42.627,193.333L45.29,192.5L48.033,191.667L50.617,190.833L54.042,190.833L56.192,188.333L58.98,188.333L61.528,186.667L64.192,185.833L66.856,185.833L69.528,185L72.324,183.333L74.891,182.5L77.581,182.5L80.227,180.833L82.882,180L85.545,180L88.306,178.333L91.058,176.667L93.704,176.667L96.368,176.667L99.04,174.167L101.695,174.167L104.376,174.167L107.332,172.5L109.845,170.833L112.473,170.833L115.137,170.833L117.8,168.333L120.473,168.333L123.137,168.333L126.013,166.667L128.667,165L131.34,165L134.003,163.333L136.658,163.333L139.331,162.5L142.277,162.5L144.764,160L147.428,159.167L150.091,159.167L152.746,157.5L155.41,156.667L158.073,156.667L161.002,155L163.436,154.167L166.091,153.333L168.763,153.333L171.418,151.667L174.134,151.667L176.798,150.833L179.462,148.333L182.116,148.333L184.78,148.333L187.647,146.667L190.178,145.833L192.842,145.833L196.072,145L198.364,142.5L201.027,142.5L203.7,142.5L206.354,140L209.062,140L211.682,140L214.389,137.5L217.044,136.667L219.699,136.667L222.407,135L225.124,135L227.708,134.167L230.893,134.167L233.141,131.667L235.813,130.833L238.468,130.833L241.132,129.167L243.831,129.167L246.459,128.333L249.123,126.667L251.822,125.833L254.45,125.833L257.264,124.167L259.91,123.333L262.573,123.333L265.494,122.5L267.901,120L270.644,120L273.228,120L275.936,117.5L278.599,117.5L281.289,117.5L284.165,116.667L286.723,114.167L289.422,114.167L292.05,114.167L294.758,111.667L297.413,111.667L300.085,111.667L302.74,109.167L305.678,109.167L308.102,108.333L310.766,106.667L313.439,106.667L316.093,105.833L319.217,105.833L321.474,103.333L324.164,103.333L326.792,102.5L329.464,100.833L332.128,100.833L334.783,100L337.668,99.167L340.269,97.5L342.924,96.667L345.588,96.667L348.251,95L350.915,95L353.578,94.167L356.242,91.667L358.932,91.667L361.569,91.667L364.569,90L366.914,89.167L369.596,89.167L372.631,89.167L374.94,85.833L377.604,85.833L380.268,85.833L382.94,83.333L385.604,83.333L388.294,83.333L390.984,81.667L393.63,80L396.285,80L398.957,80L401.762,77.5L404.293,77.5L406.93,77.5L409.594,75L412.257,74.167L414.921,74.167L417.585,72.5L420.248,72.5L422.912,71.667L425.708,71.667L428.239,69.167L430.929,69.167L433.593,68.333L436.265,66.667L438.894,66.667L441.557,65.833L444.3,64.167L446.955,63.333L449.619,63.333L452.327,60.833L454.946,60.833L457.61,60.833L460.919,60L462.999,57.5L465.662,57.5L468.326,57.5L470.99,55L473.689,55L476.317,55L479.034,54.167L481.856,52.5L484.414,51.667L487.086,51.667L489.75,50L492.44,49.167L495.077,49.167L497.75,46.667L500.404,46.667L503.077,45.833L505.732,44.167L508.395,44.167L511.059,43.333L514.014,42.5L516.395,40.833L519.058,40.833L521.722,40L524.386,38.333L527.076,38.333L529.722,37.5L532.536,35.833L535.129,35L537.792,35L540.456,34.167L543.119,32.5L545.783,32.5L548.447,31.667L551.11,29.167L553.783,29.167L556.437,29.167L559.101,26.667L561.765,26.667L564.428,26.667L567.331,26.667L569.871,23.333L572.525,23.333L575.224,23.333L577.923,21.667L580.613,20.833L583.242,20.833L585.905,18.333L588.578,18.333L591.232,17.5L593.94,15.833L596.569,15.833L599.259,15L602.365,15L604.674,12.5L607.338,12.5L610.01,11.667L612.665,10L615.364,10L618.161,9.167L620.7,8.333L623.364,8.333L626.019,8.333L628.691,8.333L631.346,8.333L634.045,8.333L636.682,8.333L639.372,8.333L642,8.333L644.664,8.333L647.354,8.333L650,8.333" stroke="#ffa83f" stroke-width="2"/></g></g><path class="foreground" aria-hidden="true" d="" display="none"/></g><g transform="translate(0,0)"><path class="background" aria-hidden="true" d="M0,0h650v200h-650Z"/><g><g class="mark-line role-mark concat_0_marks" role="graphics-object" aria-roledescription="line mark container"><path aria-label="time: Mar 05, 2025; blocks: 0; peer: peer_0" role="graphics-symbol" aria-roledescription="line mark" d="M0,200L2.619,199.167L5.283,199.167L7.938,199.167L10.61,199.167L13.274,199.167L15.929,199.167L18.592,199.167L21.282,198.333L23.919,198.333L26.583,198.333L29.255,198.333L32.008,196.667L34.645,195.833L37.308,194.167L39.963,193.333L42.635,193.333L45.29,192.5L48.033,190.833L50.617,190.833L54.042,190.833L56.192,188.333L58.98,188.333L61.528,186.667L64.192,185.833L66.856,185.833L69.528,185L72.316,183.333L74.891,182.5L77.59,182.5L80.227,180.833L82.882,180L85.545,180L88.306,178.333L91.049,176.667L93.704,176.667L96.403,176.667L99.031,174.167L101.695,174.167L104.376,174.167L107.341,172.5L109.845,170.833L112.473,170.833L115.137,170.833L117.8,168.333L120.473,168.333L123.137,168.333L126.021,165.833L128.667,165L131.34,165L134.003,163.333L136.658,163.333L139.331,162.5L142.269,162.5L144.764,160L147.428,159.167L150.091,159.167L152.755,157.5L155.418,156.667L158.073,156.667L160.923,155L163.427,154.167L166.091,153.333L168.754,153.333L171.427,151.667L174.134,150.833L176.798,150.833L179.462,148.333L182.116,148.333L184.78,148.333L187.647,147.5L190.187,145.833L192.842,145.833L196.072,145L198.364,142.5L201.027,142.5L203.7,142.5L206.354,140L209.018,140L211.682,140L214.389,137.5L217.035,136.667L219.699,136.667L222.407,135L225.079,135L227.708,134.167L230.893,134.167L233.141,131.667L235.813,130.833L238.468,130.833L241.132,129.167L243.822,129.167L246.459,128.333L249.123,126.667L251.786,125.833L254.45,125.833L257.255,123.333L259.91,123.333L262.573,123.333L265.379,123.333L267.901,120L270.635,120L273.228,120L275.936,117.5L278.599,117.5L281.289,117.5L284.157,117.5L286.723,114.167L289.422,114.167L292.05,114.167L294.758,111.667L297.413,111.667L300.085,111.667L302.74,109.167L305.678,108.333L308.102,108.333L310.766,106.667L313.43,106.667L316.093,105.833L319.102,105.833L321.465,103.333L324.164,103.333L326.792,102.5L329.456,100.833L332.119,100.833L334.783,100L337.668,98.333L340.269,97.5L342.924,96.667L345.712,96.667L348.251,95L350.915,95L353.578,94.167L356.242,91.667L358.932,91.667L361.569,91.667L364.569,90L366.905,89.167L369.596,89.167L372.631,88.333L374.94,85.833L377.604,85.833L380.268,85.833L382.94,83.333L385.604,83.333L388.294,83.333L390.984,80.833L393.63,80L396.285,80L398.957,80L401.762,77.5L404.293,77.5L406.93,77.5L409.594,75L412.257,74.167L414.921,74.167L417.629,72.5L420.248,72.5L422.912,71.667L425.708,70.833L428.239,69.167L430.903,69.167L433.593,68.333L436.257,66.667L438.894,66.667L441.557,65.833L444.3,63.333L446.955,63.333L449.619,63.333L452.282,60.833L454.946,60.833L457.61,60.833L460.919,60L462.99,57.5L465.662,57.5L468.326,57.5L470.99,55L473.689,55L476.317,55L479.034,54.167L481.865,52.5L484.414,51.667L487.086,51.667L489.75,50L492.44,49.167L495.077,49.167L497.75,46.667L500.404,46.667L503.068,45.833L505.732,44.167L508.395,44.167L511.059,43.333L514.014,42.5L516.395,40.833L519.058,40.833L521.722,40L524.386,38.333L527.076,38.333L529.713,37.5L532.536,35.833L535.129,35L537.792,35L540.456,34.167L543.119,32.5L545.783,32.5L548.447,31.667L551.11,29.167L553.783,29.167L556.437,29.167L559.101,26.667L561.774,26.667L564.428,26.667L567.331,25.833L569.871,23.333L572.525,23.333L575.224,23.333L577.914,20.833L580.613,20.833L583.242,20.833L585.914,18.333L588.578,18.333L591.232,17.5L593.94,15.833L596.569,15.833L599.259,15L602.321,15L604.674,12.5L607.338,12.5L610.002,11.667L612.665,10L615.364,10L618.152,10L620.691,8.333L623.364,8.333L626.019,8.333L628.682,8.333L631.346,8.333L634.036,8.333L636.682,8.333L639.363,8.333L642,8.333L644.664,8.333L647.354,8.333L650,8.333" stroke="#6583ff" stroke-width="2"/></g></g><path class="foreground" aria-hidden="true" d="" display="none"/></g><g transform="translate(0,0)"><path class="background" aria-hidden="true" d="M0,0h650v200h-650Z"/><g><g class="mark-line role-mark concat_0_marks" role="graphics-object" aria-roledescription="line mark container"><path aria-label="time: Mar 05, 2025; blocks: 0; peer: peer_3" role="graphics-symbol" aria-roledescription="line mark" d="M0,200L2.619,200L5.283,199.167L7.938,199.167L10.61,199.167L13.274,199.167L15.929,199.167L18.592,199.167L21.282,198.333L23.919,198.333L26.583,198.333L29.264,198.333L32.016,196.667L34.645,195.833L37.308,194.167L39.963,193.333L42.635,193.333L45.29,192.5L48.219,190.833L50.626,190.833L53.998,190.833L56.192,188.333L58.98,188.333L61.537,186.667L64.192,185.833L66.856,185.833L69.528,185L72.431,183.333L74.891,182.5L77.59,182.5L80.227,180.833L82.882,180L85.545,180L88.306,178.333L91.058,176.667L93.713,176.667L96.403,176.667L99.04,174.167L101.695,174.167L104.376,174.167L107.332,172.5L109.81,170.833L112.473,170.833L115.137,170.833L117.8,168.333L120.473,168.333L123.137,168.333L126.03,165.833L128.667,165L131.34,165L134.003,163.333L136.685,163.333L139.331,162.5L142.277,162.5L144.764,160L147.428,159.167L150.091,159.167L152.746,157.5L155.418,156.667L158.073,156.667L160.923,155L163.436,154.167L166.091,153.333L168.763,153.333L171.427,151.667L174.134,150.833L176.798,150.833L179.462,148.333L182.116,148.333L184.789,148.333L187.656,146.667L190.187,145.833L192.851,145.833L196.151,145L198.364,142.5L201.027,142.5L203.7,142.5L206.354,140L209.062,140L211.69,140L214.389,137.5L217.053,136.667L219.699,136.667L222.407,135L225.124,135L227.708,134.167L230.893,134.167L233.141,131.667L235.813,130.833L238.468,130.833L241.132,129.167L243.831,129.167L246.459,128.333L249.123,126.667L251.822,125.833L254.45,125.833L257.273,123.333L259.91,123.333L262.573,123.333L265.379,123.333L267.901,120L270.644,120L273.228,120L275.944,117.5L278.608,117.5L281.289,117.5L284.157,117.5L286.723,114.167L289.422,114.167L292.05,114.167L294.758,111.667L297.413,111.667L300.085,111.667L302.74,109.167L305.678,109.167L308.102,108.333L310.766,106.667L313.439,106.667L316.102,105.833L319.217,105.833L321.474,103.333L324.164,103.333L326.792,102.5L329.464,100.833L332.128,100.833L334.783,100L337.668,98.333L340.269,97.5L342.924,96.667L345.72,96.667L348.251,95L350.915,95L353.587,94.167L356.251,91.667L358.932,91.667L361.569,91.667L364.56,90L366.914,89.167L369.596,89.167L372.631,89.167L374.94,89.167L377.604,89.167L380.268,89.167L382.94,89.167L385.604,89.167L388.294,89.167L390.984,89.167L393.639,89.167L396.285,89.167L398.957,89.167L401.762,89.167L404.293,89.167L406.93,89.167L409.594,89.167L412.257,89.167L414.921,89.167L417.629,89.167L420.248,89.167L422.921,89.167L425.708,89.167L428.239,89.167L430.929,89.167L433.593,89.167L436.265,89.167L438.894,89.167L441.566,89.167L444.3,85.833L446.955,85.833L449.619,85.833L452.282,85.833L454.946,85.833L457.61,85.833L460.928,85.833L462.999,85.833L465.689,85.833L468.335,85.833L470.99,85.833L473.689,85.833L476.317,85.833L479.034,85.833L481.865,85.833L484.414,85.833L487.086,85.833L489.75,85.833L492.44,85.833L495.077,85.833L497.75,85.833L500.404,85.833L503.077,85.833L505.732,85.833L508.395,85.833L511.059,85.833L514.014,85.833L516.395,85.833L519.067,85.833L521.722,85.833L524.386,85.833L527.076,85.833L529.722,85.833L532.536,82.5L535.129,82.5L537.792,82.5L540.456,82.5L543.119,82.5L545.783,82.5L548.447,82.5L551.11,82.5L553.783,82.5L556.437,82.5L559.101,82.5L561.774,82.5L564.428,82.5L567.331,82.5L569.871,82.5L572.534,82.5L575.224,82.5L577.914,82.5L580.613,82.5L583.242,82.5L585.914,82.5L588.578,82.5L591.232,82.5L593.94,82.5L596.569,82.5L599.259,82.5L602.365,82.5L604.674,82.5L607.338,82.5L610.01,82.5L612.665,82.5L615.364,82.5L618.161,82.5L620.7,79.167L623.364,79.167L626.019,79.167L628.691,79.167L631.355,79.167L634.045,79.167L636.682,79.167L639.372,79.167L642,79.167L644.664,79.167L647.354,79.167L650,79.167" stroke="#4aa148" stroke-width="2"/></g></g><path class="foreground" aria-hidden="true" d="" display="none"/></g></g><g class="mark-group role-title"><g transform="translate(297.70243123011664,-22)"><path class="background" aria-hidden="true" d="M0,0h0v0h0Z" pointer-events="none"/><g><g class="mark-text role-title-text" role="graphics-symbol" aria-roledescription="title" aria-label="Title text 'Blocks'" pointer-events="none"><text text-anchor="middle" transform="translate(0,14)" font-family="Inter" font-size="18px" font-weight="400" fill="#445668" opacity="1">Blocks</text></g></g><path class="foreground" aria-hidden="true" d="" pointer-events="none" display="none"/></g></g></g><path class="foreground" aria-hidden="true" d="" display="none"/></g></g><g class="mark-group role-scope concat_1_group" role="graphics-object" aria-roledescription="group mark container"><g transform="translate(0,282)"><path class="background" aria-hidden="true" d="M0.5,0.5h650v200h-650Z" stroke="#ddd"/><g><g class="mark-group role-axis" aria-hidden="true"><g transform="translate(0.5,200.5)"><path class="background" aria-hidden="true" d="M0,0h0v0h0Z" pointer-events="none"/><g><g class="mark-rule role-axis-grid" pointer-events="none"><line transform="translate(35,-200)" x2="0" y2="200" stroke="#ddd" stroke-width="1" opacity="1"/><line transform="translate(79,-200)" x2="0" y2="200" stroke="#ddd" stroke-width="1" opacity="1"/><line transform="translate(123,-200)" x2="0" y2="200" stroke="#ddd" stroke-width="1" opacity="1"/><line transform="translate(167,-200)" x2="0" y2="200" stroke="#ddd" stroke-width="1" opacity="1"/><line transform="translate(212,-200)" x2="0" y2="200" stroke="#ddd" stroke-width="1" opacity="1"/><line transform="translate(256,-200)" x2="0" y2="200" stroke="#ddd" stroke-width="1" opacity="1"/><line transform="translate(300,-200)" x2="0" y2="200" stroke="#ddd" stroke-width="1" opacity="1"/><line transform="translate(344,-200)" x2="0" y2="200" stroke="#ddd" stroke-width="1" opacity="1"/><line transform="translate(389,-200)" x2="0" y2="200" stroke="#ddd" stroke-width="1" opacity="1"/><line transform="translate(433,-200)" x2="0" y2="200" stroke="#ddd" stroke-width="1" opacity="1"/><line transform="translate(477,-200)" x2="0" y2="200" stroke="#ddd" stroke-width="1" opacity="1"/><line transform="translate(521,-200)" x2="0" y2="200" stroke="#ddd" stroke-width="1" opacity="1"/><line transform="translate(566,-200)" x2="0" y2="200" stroke="#ddd" stroke-width="1" opacity="1"/><line transform="translate(610,-200)" x2="0" y2="200" stroke="#ddd" stroke-width="1" opacity="1"/></g></g><path class="foreground" aria-hidden="true" d="" pointer-events="none" display="none"/></g></g><g class="mark-group role-axis" aria-hidden="true"><g transform="translate(0.5,0.5)"><path class="background" aria-hidden="true" d="M0,0h0v0h0Z" pointer-events="none"/><g><g class="mark-rule role-axis-grid" pointer-events="none"><line transform="translate(0,200)" x2="650" y2="0" stroke="#e1e8f0" stroke-width="1" opacity="1"/><line transform="translate(0,158)" x2="650" y2="0" stroke="#e1e8f0" stroke-width="1" opacity="1"/><line transform="translate(0,117)" x2="650" y2="0" stroke="#e1e8f0" stroke-width="1" opacity="1"/><line transform="translate(0,75)" x2="650" y2="0" stroke="#e1e8f0" stroke-width="1" opacity="1"/><line transform="translate(0,33)" x2="650" y2="0" stroke="#e1e8f0" stroke-width="1" opacity="1"/></g></g><path class="foreground" aria-hidden="true" d="" pointer-events="none" display="none"/></g></g><g class="mark-group role-axis" role="graphics-symbol" aria-roledescription="axis" aria-label="X-axis titled 'time' for a time scale with values from Wednesday, 05 March 2025, 1:12:21 AM to Wednesday, 05 March 2025, 1:13:34 AM"><g transform="translate(0.5,200.5)"><path class="background" aria-hidden="true" d="M0,0h0v0h0Z" pointer-events="none"/><g><g class="mark-rule role-axis-tick" pointer-events="none"><line transform="translate(35,0)" x2="0" y2="5" stroke="#888" stroke-width="1" opacity="1"/><line transform="translate(79,0)" x2="0" y2="5" stroke="#888" stroke-width="1" opacity="1"/><line transform="translate(123,0)" x2="0" y2="5" stroke="#888" stroke-width="1" opacity="1"/><line transform="translate(167,0)" x2="0" y2="5" stroke="#888" stroke-width="1" opacity="1"/><line transform="translate(212,0)" x2="0" y2="5" stroke="#888" stroke-width="1" opacity="1"/><line transform="translate(256,0)" x2="0" y2="5" stroke="#888" stroke-width="1" opacity="1"/><line transform="translate(300,0)" x2="0" y2="5" stroke="#888" stroke-width="1" opacity="1"/><line transform="translate(344,0)" x2="0" y2="5" stroke="#888" stroke-width="1" opacity="1"/><line transform="translate(389,0)" x2="0" y2="5" stroke="#888" stroke-width="1" opacity="1"/><line transform="translate(433,0)" x2="0" y2="5" stroke="#888" stroke-width="1" opacity="1"/><line transform="translate(477,0)" x2="0" y2="5" stroke="#888" stroke-width="1" opacity="1"/><line transform="translate(521,0)" x2="0" y2="5" stroke="#888" stroke-width="1" opacity="1"/><line transform="translate(566,0)" x2="0" y2="5" stroke="#888" stroke-width="1" opacity="1"/><line transform="translate(610,0)" x2="0" y2="5" stroke="#888" stroke-width="1" opacity="1"/></g><g class="mark-text role-axis-label" pointer-events="none"><text text-anchor="middle" transform="translate(34.564959906334664,15)" font-family="sans-serif" font-size="10px" fill="#000" opacity="1">:25</text><text text-anchor="middle" transform="translate(78.81094032919009,15)" font-family="sans-serif" font-size="10px" fill="#000" opacity="1">:30</text><text text-anchor="middle" transform="translate(123.05692075204553,15)" font-family="sans-serif" font-size="10px" fill="#000" opacity="1">:35</text><text text-anchor="middle" transform="translate(167.30290117490094,15)" font-family="sans-serif" font-size="10px" fill="#000" opacity="1">:40</text><text text-anchor="middle" transform="translate(211.54888159775638,15)" font-family="sans-serif" font-size="10px" fill="#000" opacity="1">:45</text><text text-anchor="middle" transform="translate(255.79486202061182,15)" font-family="sans-serif" font-size="10px" fill="#000" opacity="1">:50</text><text text-anchor="middle" transform="translate(300.0408424434672,15)" font-family="sans-serif" font-size="10px" fill="#000" opacity="1">:55</text><text text-anchor="middle" transform="translate(344.2868228663227,15)" font-family="sans-serif" font-size="10px" fill="#000" opacity="1">01:13</text><text text-anchor="middle" transform="translate(388.5328032891781,15)" font-family="sans-serif" font-size="10px" fill="#000" opacity="1">:05</text><text text-anchor="middle" transform="translate(432.77878371203354,15)" font-family="sans-serif" font-size="10px" fill="#000" opacity="1">:10</text><text text-anchor="middle" transform="translate(477.024764134889,15)" font-family="sans-serif" font-size="10px" fill="#000" opacity="1">:15</text><text text-anchor="middle" transform="translate(521.2707445577444,15)" font-family="sans-serif" font-size="10px" fill="#000" opacity="1">:20</text><text text-anchor="middle" transform="translate(565.5167249805999,15)" font-family="sans-serif" font-size="10px" fill="#000" opacity="1">:25</text><text text-anchor="middle" transform="translate(609.7627054034552,15)" font-family="sans-serif" font-size="10px" fill="#000" opacity="1">:30</text></g><g class="mark-rule role-axis-domain" pointer-events="none"><line transform="translate(0,0)" x2="650" y2="0" stroke="#e1e8f0" stroke-width="1" opacity="1"/></g><g class="mark-text role-axis-title" pointer-events="none"><text text-anchor="middle" transform="translate(325,36)" font-family="sans-serif" font-size="11px" font-weight="400" fill="#1c2a3a" opacity="1">time</text></g></g><path class="foreground" aria-hidden="true" d="" pointer-events="none" display="none"/></g></g><g class="mark-group role-axis" role="graphics-symbol" aria-roledescription="axis" aria-label="Y-axis titled 'Max of max_block, lag' for a linear scale with values from 0 to 240"><g transform="translate(0.5,0.5)"><path class="background" aria-hidden="true" d="M0,0h0v0h0Z" pointer-events="none"/><g><g class="mark-rule role-axis-tick" pointer-events="none"><line transform="translate(0,200)" x2="-5" y2="0" stroke="#888" stroke-width="1" opacity="1"/><line transform="translate(0,158)" x2="-5" y2="0" stroke="#888" stroke-width="1" opacity="1"/><line transform="translate(0,117)" x2="-5" y2="0" stroke="#888" stroke-width="1" opacity="1"/><line transform="translate(0,75)" x2="-5" y2="0" stroke="#888" stroke-width="1" opacity="1"/><line transform="translate(0,33)" x2="-5" y2="0" stroke="#888" stroke-width="1" opacity="1"/></g><g class="mark-text role-axis-label" pointer-events="none"><text text-anchor="end" transform="translate(-13,204)" font-family="sans-serif" font-size="12px" fill="#000" opacity="1">0</text><text text-anchor="end" transform="translate(-13,162.33333333333331)" font-family="sans-serif" font-size="12px" fill="#000" opacity="1">50</text><text text-anchor="end" transform="translate(-13,120.66666666666666)" font-family="sans-serif" font-size="12px" fill="#000" opacity="1">100</text><text text-anchor="end" transform="translate(-13,79)" font-family="sans-serif" font-size="12px" fill="#000" opacity="1">150</text><text text-anchor="end" transform="translate(-13,37.33333333333333)" font-family="sans-serif" font-size="12px" fill="#000" opacity="1">200</text></g><g class="mark-rule role-axis-domain" pointer-events="none"><line transform="translate(0,200)" x2="0" y2="-200" stroke="#888" stroke-width="1" opacity="1"/></g><g class="mark-text role-axis-title" pointer-events="none"><text text-anchor="middle" transform="translate(-43.59513753976676,100) rotate(-90) translate(0,-3)" font-family="sans-serif" font-size="12px" font-weight="400" fill="#1c2a3a" opacity="1">Max of max_block, lag</text></g></g><path class="foreground" aria-hidden="true" d="" pointer-events="none" display="none"/></g></g><g class="mark-area role-mark concat_1_layer_0_layer_0_marks" role="graphics-object" aria-roledescription="area mark container"><path aria-label="time: Mar 05, 2025; Max of max_block: 0" role="graphics-symbol" aria-roledescription="area mark" d="M0,200L2.619,200L2.619,199.167L5.283,199.167L5.283,199.167L7.938,199.167L7.938,199.167L10.61,199.167L10.61,199.167L13.274,199.167L13.274,199.167L15.929,199.167L15.929,199.167L18.592,199.167L18.592,199.167L21.273,199.167L21.273,198.333L21.282,198.333L21.282,198.333L23.919,198.333L23.919,198.333L26.583,198.333L26.583,198.333L29.255,198.333L29.255,198.333L29.264,198.333L29.264,198.333L31.999,198.333L31.999,196.667L32.008,196.667L32.008,196.667L32.016,196.667L32.016,196.667L34.645,196.667L34.645,195.833L37.308,195.833L37.308,194.167L39.963,194.167L39.963,193.333L42.627,193.333L42.627,193.333L42.635,193.333L42.635,193.333L45.29,193.333L45.29,192.5L48.033,192.5L48.033,190.833L48.219,190.833L48.219,190.833L50.617,190.833L50.617,190.833L50.626,190.833L50.626,190.833L53.998,190.833L53.998,190.833L54.007,190.833L54.007,190.833L54.042,190.833L54.042,190.833L56.192,190.833L56.192,188.333L58.98,188.333L58.98,188.333L61.528,188.333L61.528,186.667L61.537,186.667L61.537,186.667L64.192,186.667L64.192,185.833L64.201,185.833L64.201,185.833L66.856,185.833L66.856,185.833L69.528,185.833L69.528,185L72.316,185L72.316,183.333L72.324,183.333L72.324,183.333L72.431,183.333L72.431,183.333L74.891,183.333L74.891,182.5L77.581,182.5L77.581,182.5L77.59,182.5L77.59,182.5L80.227,182.5L80.227,180.833L82.882,180.833L82.882,180L85.545,180L85.545,180L88.306,180L88.306,178.333L91.049,178.333L91.049,176.667L91.058,176.667L91.058,176.667L93.704,176.667L93.704,176.667L93.713,176.667L93.713,176.667L96.368,176.667L96.368,176.667L96.403,176.667L96.403,176.667L99.031,176.667L99.031,174.167L99.04,174.167L99.04,174.167L101.695,174.167L101.695,174.167L104.376,174.167L104.376,174.167L107.332,174.167L107.332,172.5L107.341,172.5L107.341,172.5L109.81,172.5L109.81,170.833L109.845,170.833L109.845,170.833L112.473,170.833L112.473,170.833L115.137,170.833L115.137,170.833L117.8,170.833L117.8,168.333L120.473,168.333L120.473,168.333L123.137,168.333L123.137,168.333L126.013,168.333L126.013,166.667L126.021,166.667L126.021,165.833L126.03,165.833L126.03,165.833L128.667,165.833L128.667,165L131.34,165L131.34,165L134.003,165L134.003,163.333L136.658,163.333L136.658,163.333L136.685,163.333L136.685,163.333L139.331,163.333L139.331,162.5L142.269,162.5L142.269,162.5L142.277,162.5L142.277,162.5L144.764,162.5L144.764,160L147.428,160L147.428,159.167L150.091,159.167L150.091,159.167L152.746,159.167L152.746,157.5L152.755,157.5L152.755,157.5L155.41,157.5L155.41,156.667L155.418,156.667L155.418,156.667L158.073,156.667L158.073,156.667L160.923,156.667L160.923,155L161.002,155L161.002,155L163.427,155L163.427,154.167L163.436,154.167L163.436,154.167L166.091,154.167L166.091,153.333L168.754,153.333L168.754,153.333L168.763,153.333L168.763,153.333L171.418,153.333L171.418,151.667L171.427,151.667L171.427,151.667L174.134,151.667L174.134,150.833L176.798,150.833L176.798,150.833L176.825,150.833L176.825,150.833L179.462,150.833L179.462,148.333L182.116,148.333L182.116,148.333L184.78,148.333L184.78,148.333L184.789,148.333L184.789,148.333L187.647,148.333L187.647,146.667L187.656,146.667L187.656,146.667L190.178,146.667L190.178,145.833L190.187,145.833L190.187,145.833L192.842,145.833L192.842,145.833L192.851,145.833L192.851,145.833L196.072,145.833L196.072,145L196.151,145L196.151,145L198.364,145L198.364,142.5L201.027,142.5L201.027,142.5L203.7,142.5L203.7,142.5L206.354,142.5L206.354,140L209.018,140L209.018,140L209.062,140L209.062,140L211.682,140L211.682,140L211.69,140L211.69,140L214.389,140L214.389,137.5L217.035,137.5L217.035,136.667L217.044,136.667L217.044,136.667L217.053,136.667L217.053,136.667L219.699,136.667L219.699,136.667L222.407,136.667L222.407,135L225.079,135L225.079,135L225.124,135L225.124,135L227.708,135L227.708,134.167L230.893,134.167L230.893,134.167L233.141,134.167L233.141,131.667L235.813,131.667L235.813,130.833L238.468,130.833L238.468,130.833L241.132,130.833L241.132,129.167L243.822,129.167L243.822,129.167L243.831,129.167L243.831,129.167L246.459,129.167L246.459,128.333L249.123,128.333L249.123,126.667L251.786,126.667L251.786,125.833L251.813,125.833L251.813,125.833L251.822,125.833L251.822,125.833L254.45,125.833L254.45,125.833L257.255,125.833L257.255,123.333L257.264,123.333L257.264,123.333L257.273,123.333L257.273,123.333L259.91,123.333L259.91,123.333L262.573,123.333L262.573,123.333L265.379,123.333L265.379,123.333L265.494,123.333L265.494,122.5L267.901,122.5L267.901,120L270.635,120L270.635,120L270.644,120L270.644,120L273.228,120L273.228,120L275.936,120L275.936,117.5L275.944,117.5L275.944,117.5L278.599,117.5L278.599,117.5L278.608,117.5L278.608,117.5L281.289,117.5L281.289,117.5L284.157,117.5L284.157,116.667L284.165,116.667L284.165,116.667L286.723,116.667L286.723,114.167L289.422,114.167L289.422,114.167L292.05,114.167L292.05,114.167L294.758,114.167L294.758,111.667L297.413,111.667L297.413,111.667L300.076,111.667L300.076,111.667L300.085,111.667L300.085,111.667L302.74,111.667L302.74,109.167L305.678,109.167L305.678,108.333L308.102,108.333L308.102,108.333L310.766,108.333L310.766,106.667L313.43,106.667L313.43,106.667L313.439,106.667L313.439,106.667L316.093,106.667L316.093,105.833L316.102,105.833L316.102,105.833L319.102,105.833L319.102,105.833L319.217,105.833L319.217,105.833L321.465,105.833L321.465,103.333L321.474,103.333L321.474,103.333L324.164,103.333L324.164,103.333L326.792,103.333L326.792,102.5L329.456,102.5L329.456,100.833L329.464,100.833L329.464,100.833L332.119,100.833L332.119,100.833L332.128,100.833L332.128,100.833L334.783,100.833L334.783,100L337.668,100L337.668,98.333L340.269,98.333L340.269,97.5L342.924,97.5L342.924,96.667L345.588,96.667L345.588,96.667L345.712,96.667L345.712,96.667L345.72,96.667L345.72,96.667L348.251,96.667L348.251,95L350.915,95L350.915,95L353.578,95L353.578,94.167L353.587,94.167L353.587,94.167L356.242,94.167L356.242,91.667L356.251,91.667L356.251,91.667L358.932,91.667L358.932,91.667L361.569,91.667L361.569,91.667L364.56,91.667L364.56,90L364.569,90L364.569,90L366.905,90L366.905,89.167L366.914,89.167L366.914,89.167L369.596,89.167L369.596,89.167L372.631,89.167L372.631,88.333L374.94,88.333L374.94,85.833L377.604,85.833L377.604,85.833L380.268,85.833L380.268,85.833L382.94,85.833L382.94,83.333L385.604,83.333L385.604,83.333L388.294,83.333L388.294,83.333L390.984,83.333L390.984,80.833L393.63,80.833L393.63,80L393.639,80L393.639,80L396.285,80L396.285,80L398.957,80L398.957,80L401.762,80L401.762,77.5L404.293,77.5L404.293,77.5L406.93,77.5L406.93,77.5L409.594,77.5L409.594,75L412.257,75L412.257,74.167L414.921,74.167L414.921,74.167L417.585,74.167L417.585,72.5L417.629,72.5L417.629,72.5L420.248,72.5L420.248,72.5L422.912,72.5L422.912,71.667L422.921,71.667L422.921,71.667L425.699,71.667L425.699,70.833L425.708,70.833L425.708,70.833L428.239,70.833L428.239,69.167L430.903,69.167L430.903,69.167L430.929,69.167L430.929,69.167L433.593,69.167L433.593,68.333L436.257,68.333L436.257,66.667L436.265,66.667L436.265,66.667L438.894,66.667L438.894,66.667L441.557,66.667L441.557,65.833L441.566,65.833L441.566,65.833L444.3,65.833L444.3,63.333L446.955,63.333L446.955,63.333L449.619,63.333L449.619,63.333L452.282,63.333L452.282,60.833L452.327,60.833L452.327,60.833L454.946,60.833L454.946,60.833L457.61,60.833L457.61,60.833L460.751,60.833L460.751,60L460.919,60L460.919,60L460.928,60L460.928,60L462.99,60L462.99,57.5L462.999,57.5L462.999,57.5L465.662,57.5L465.662,57.5L465.689,57.5L465.689,57.5L468.326,57.5L468.326,57.5L468.335,57.5L468.335,57.5L470.99,57.5L470.99,55L473.689,55L473.689,55L476.317,55L476.317,55L479.034,55L479.034,54.167L481.856,54.167L481.856,52.5L481.865,52.5L481.865,52.5L484.414,52.5L484.414,51.667L487.086,51.667L487.086,51.667L489.75,51.667L489.75,50L492.44,50L492.44,49.167L495.077,49.167L495.077,49.167L497.75,49.167L497.75,46.667L500.404,46.667L500.404,46.667L503.068,46.667L503.068,45.833L503.077,45.833L503.077,45.833L505.732,45.833L505.732,44.167L508.395,44.167L508.395,44.167L511.059,44.167L511.059,43.333L514.014,43.333L514.014,42.5L516.395,42.5L516.395,40.833L519.058,40.833L519.058,40.833L519.067,40.833L519.067,40.833L521.722,40.833L521.722,40L521.731,40L521.731,40L524.386,40L524.386,38.333L527.076,38.333L527.076,38.333L529.713,38.333L529.713,37.5L529.722,37.5L529.722,37.5L532.536,37.5L532.536,35.833L535.129,35.833L535.129,35L537.792,35L537.792,35L540.456,35L540.456,34.167L543.119,34.167L543.119,32.5L545.783,32.5L545.783,32.5L548.447,32.5L548.447,31.667L551.11,31.667L551.11,29.167L553.783,29.167L553.783,29.167L556.437,29.167L556.437,29.167L559.101,29.167L559.101,26.667L561.765,26.667L561.765,26.667L561.774,26.667L561.774,26.667L564.428,26.667L564.428,26.667L567.331,26.667L567.331,25.833L569.862,25.833L569.862,23.333L569.871,23.333L569.871,23.333L572.525,23.333L572.525,23.333L572.534,23.333L572.534,23.333L575.224,23.333L575.224,23.333L577.914,23.333L577.914,20.833L577.923,20.833L577.923,20.833L580.613,20.833L580.613,20.833L583.242,20.833L583.242,20.833L585.905,20.833L585.905,18.333L585.914,18.333L585.914,18.333L588.578,18.333L588.578,18.333L591.232,18.333L591.232,17.5L593.94,17.5L593.94,15.833L596.569,15.833L596.569,15.833L599.259,15.833L599.259,15L602.321,15L602.321,15L602.365,15L602.365,15L604.674,15L604.674,12.5L607.338,12.5L607.338,12.5L610.002,12.5L610.002,11.667L610.01,11.667L610.01,11.667L612.665,11.667L612.665,10L615.364,10L615.364,10L618.152,10L618.152,10L618.161,10L618.161,9.167L620.691,9.167L620.691,8.333L620.7,8.333L620.7,8.333L623.364,8.333L623.364,8.333L626.019,8.333L626.019,8.333L628.682,8.333L628.682,8.333L628.691,8.333L628.691,8.333L631.346,8.333L631.346,8.333L631.355,8.333L631.355,8.333L634.036,8.333L634.036,8.333L634.045,8.333L634.045,8.333L636.682,8.333L636.682,8.333L639.363,8.333L639.363,8.333L639.372,8.333L639.372,8.333L642,8.333L642,8.333L644.664,8.333L644.664,8.333L647.354,8.333L647.354,8.333L650,8.333L650,8.333L650,200L650,200L647.354,200L647.354,200L644.664,200L644.664,200L642,200L642,200L639.372,200L639.372,200L639.363,200L639.363,200L636.682,200L636.682,200L634.045,200L634.045,200L634.036,200L634.036,200L631.355,200L631.355,200L631.346,200L631.346,200L628.691,200L628.691,200L628.682,200L628.682,200L626.019,200L626.019,200L623.364,200L623.364,200L620.7,200L620.7,200L620.691,200L620.691,200L618.161,200L618.161,200L618.152,200L618.152,200L615.364,200L615.364,200L612.665,200L612.665,200L610.01,200L610.01,200L610.002,200L610.002,200L607.338,200L607.338,200L604.674,200L604.674,200L602.365,200L602.365,200L602.321,200L602.321,200L599.259,200L599.259,200L596.569,200L596.569,200L593.94,200L593.94,200L591.232,200L591.232,200L588.578,200L588.578,200L585.914,200L585.914,200L585.905,200L585.905,200L583.242,200L583.242,200L580.613,200L580.613,200L577.923,200L577.923,200L577.914,200L577.914,200L575.224,200L575.224,200L572.534,200L572.534,200L572.525,200L572.525,200L569.871,200L569.871,200L569.862,200L569.862,200L567.331,200L567.331,200L564.428,200L564.428,200L561.774,200L561.774,200L561.765,200L561.765,200L559.101,200L559.101,200L556.437,200L556.437,200L553.783,200L553.783,200L551.11,200L551.11,200L548.447,200L548.447,200L545.783,200L545.783,200L543.119,200L543.119,200L540.456,200L540.456,200L537.792,200L537.792,200L535.129,200L535.129,200L532.536,200L532.536,200L529.722,200L529.722,200L529.713,200L529.713,200L527.076,200L527.076,200L524.386,200L524.386,200L521.731,200L521.731,200L521.722,200L521.722,200L519.067,200L519.067,200L519.058,200L519.058,200L516.395,200L516.395,200L514.014,200L514.014,200L511.059,200L511.059,200L508.395,200L508.395,200L505.732,200L505.732,200L503.077,200L503.077,200L503.068,200L503.068,200L500.404,200L500.404,200L497.75,200L497.75,200L495.077,200L495.077,200L492.44,200L492.44,200L489.75,200L489.75,200L487.086,200L487.086,200L484.414,200L484.414,200L481.865,200L481.865,200L481.856,200L481.856,200L479.034,200L479.034,200L476.317,200L476.317,200L473.689,200L473.689,200L470.99,200L470.99,200L468.335,200L468.335,200L468.326,200L468.326,200L465.689,200L465.689,200L465.662,200L465.662,200L462.999,200L462.999,200L462.99,200L462.99,200L460.928,200L460.928,200L460.919,200L460.919,200L460.751,200L460.751,200L457.61,200L457.61,200L454.946,200L454.946,200L452.327,200L452.327,200L452.282,200L452.282,200L449.619,200L449.619,200L446.955,200L446.955,200L444.3,200L444.3,200L441.566,200L441.566,200L441.557,200L441.557,200L438.894,200L438.894,200L436.265,200L436.265,200L436.257,200L436.257,200L433.593,200L433.593,200L430.929,200L430.929,200L430.903,200L430.903,200L428.239,200L428.239,200L425.708,200L425.708,200L425.699,200L425.699,200L422.921,200L422.921,200L422.912,200L422.912,200L420.248,200L420.248,200L417.629,200L417.629,200L417.585,200L417.585,200L414.921,200L414.921,200L412.257,200L412.257,200L409.594,200L409.594,200L406.93,200L406.93,200L404.293,200L404.293,200L401.762,200L401.762,200L398.957,200L398.957,200L396.285,200L396.285,200L393.639,200L393.639,200L393.63,200L393.63,200L390.984,200L390.984,200L388.294,200L388.294,200L385.604,200L385.604,200L382.94,200L382.94,200L380.268,200L380.268,200L377.604,200L377.604,200L374.94,200L374.94,200L372.631,200L372.631,200L369.596,200L369.596,200L366.914,200L366.914,200L366.905,200L366.905,200L364.569,200L364.569,200L364.56,200L364.56,200L361.569,200L361.569,200L358.932,200L358.932,200L356.251,200L356.251,200L356.242,200L356.242,200L353.587,200L353.587,200L353.578,200L353.578,200L350.915,200L350.915,200L348.251,200L348.251,200L345.72,200L345.72,200L345.712,200L345.712,200L345.588,200L345.588,200L342.924,200L342.924,200L340.269,200L340.269,200L337.668,200L337.668,200L334.783,200L334.783,200L332.128,200L332.128,200L332.119,200L332.119,200L329.464,200L329.464,200L329.456,200L329.456,200L326.792,200L326.792,200L324.164,200L324.164,200L321.474,200L321.474,200L321.465,200L321.465,200L319.217,200L319.217,200L319.102,200L319.102,200L316.102,200L316.102,200L316.093,200L316.093,200L313.439,200L313.439,200L313.43,200L313.43,200L310.766,200L310.766,200L308.102,200L308.102,200L305.678,200L305.678,200L302.74,200L302.74,200L300.085,200L300.085,200L300.076,200L300.076,200L297.413,200L297.413,200L294.758,200L294.758,200L292.05,200L292.05,200L289.422,200L289.422,200L286.723,200L286.723,200L284.165,200L284.165,200L284.157,200L284.157,200L281.289,200L281.289,200L278.608,200L278.608,200L278.599,200L278.599,200L275.944,200L275.944,200L275.936,200L275.936,200L273.228,200L273.228,200L270.644,200L270.644,200L270.635,200L270.635,200L267.901,200L267.901,200L265.494,200L265.494,200L265.379,200L265.379,200L262.573,200L262.573,200L259.91,200L259.91,200L257.273,200L257.273,200L257.264,200L257.264,200L257.255,200L257.255,200L254.45,200L254.45,200L251.822,200L251.822,200L251.813,200L251.813,200L251.786,200L251.786,200L249.123,200L249.123,200L246.459,200L246.459,200L243.831,200L243.831,200L243.822,200L243.822,200L241.132,200L241.132,200L238.468,200L238.468,200L235.813,200L235.813,200L233.141,200L233.141,200L230.893,200L230.893,200L227.708,200L227.708,200L225.124,200L225.124,200L225.079,200L225.079,200L222.407,200L222.407,200L219.699,200L219.699,200L217.053,200L217.053,200L217.044,200L217.044,200L217.035,200L217.035,200L214.389,200L214.389,200L211.69,200L211.69,200L211.682,200L211.682,200L209.062,200L209.062,200L209.018,200L209.018,200L206.354,200L206.354,200L203.7,200L203.7,200L201.027,200L201.027,200L198.364,200L198.364,200L196.151,200L196.151,200L196.072,200L196.072,200L192.851,200L192.851,200L192.842,200L192.842,200L190.187,200L190.187,200L190.178,200L190.178,200L187.656,200L187.656,200L187.647,200L187.647,200L184.789,200L184.789,200L184.78,200L184.78,200L182.116,200L182.116,200L179.462,200L179.462,200L176.825,200L176.825,200L176.798,200L176.798,200L174.134,200L174.134,200L171.427,200L171.427,200L171.418,200L171.418,200L168.763,200L168.763,200L168.754,200L168.754,200L166.091,200L166.091,200L163.436,200L163.436,200L163.427,200L163.427,200L161.002,200L161.002,200L160.923,200L160.923,200L158.073,200L158.073,200L155.418,200L155.418,200L155.41,200L155.41,200L152.755,200L152.755,200L152.746,200L152.746,200L150.091,200L150.091,200L147.428,200L147.428,200L144.764,200L144.764,200L142.277,200L142.277,200L142.269,200L142.269,200L139.331,200L139.331,200L136.685,200L136.685,200L136.658,200L136.658,200L134.003,200L134.003,200L131.34,200L131.34,200L128.667,200L128.667,200L126.03,200L126.03,200L126.021,200L126.021,200L126.013,200L126.013,200L123.137,200L123.137,200L120.473,200L120.473,200L117.8,200L117.8,200L115.137,200L115.137,200L112.473,200L112.473,200L109.845,200L109.845,200L109.81,200L109.81,200L107.341,200L107.341,200L107.332,200L107.332,200L104.376,200L104.376,200L101.695,200L101.695,200L99.04,200L99.04,200L99.031,200L99.031,200L96.403,200L96.403,200L96.368,200L96.368,200L93.713,200L93.713,200L93.704,200L93.704,200L91.058,200L91.058,200L91.049,200L91.049,200L88.306,200L88.306,200L85.545,200L85.545,200L82.882,200L82.882,200L80.227,200L80.227,200L77.59,200L77.59,200L77.581,200L77.581,200L74.891,200L74.891,200L72.431,200L72.431,200L72.324,200L72.324,200L72.316,200L72.316,200L69.528,200L69.528,200L66.856,200L66.856,200L64.201,200L64.201,200L64.192,200L64.192,200L61.537,200L61.537,200L61.528,200L61.528,200L58.98,200L58.98,200L56.192,200L56.192,200L54.042,200L54.042,200L54.007,200L54.007,200L53.998,200L53.998,200L50.626,200L50.626,200L50.617,200L50.617,200L48.219,200L48.219,200L48.033,200L48.033,200L45.29,200L45.29,200L42.635,200L42.635,200L42.627,200L42.627,200L39.963,200L39.963,200L37.308,200L37.308,200L34.645,200L34.645,200L32.016,200L32.016,200L32.008,200L32.008,200L31.999,200L31.999,200L29.264,200L29.264,200L29.255,200L29.255,200L26.583,200L26.583,200L23.919,200L23.919,200L21.282,200L21.282,200L21.273,200L21.273,200L18.592,200L18.592,200L15.929,200L15.929,200L13.274,200L13.274,200L10.61,200L10.61,200L7.938,200L7.938,200L5.283,200L5.283,200L2.619,200L2.619,200L0,200Z" fill="#00000010" opacity="0.7"/></g><g class="mark-line role-mark concat_1_layer_0_layer_1_marks" role="graphics-object" aria-roledescription="line mark container"><path aria-label="time: Mar 05, 2025; Max of max_block: 0" role="graphics-symbol" aria-roledescription="line mark" d="M0,200L2.619,200L2.619,199.167L5.283,199.167L5.283,199.167L7.938,199.167L7.938,199.167L10.61,199.167L10.61,199.167L13.274,199.167L13.274,199.167L15.929,199.167L15.929,199.167L18.592,199.167L18.592,199.167L21.273,199.167L21.273,198.333L21.282,198.333L21.282,198.333L23.919,198.333L23.919,198.333L26.583,198.333L26.583,198.333L29.255,198.333L29.255,198.333L29.264,198.333L29.264,198.333L31.999,198.333L31.999,196.667L32.008,196.667L32.008,196.667L32.016,196.667L32.016,196.667L34.645,196.667L34.645,195.833L37.308,195.833L37.308,194.167L39.963,194.167L39.963,193.333L42.627,193.333L42.627,193.333L42.635,193.333L42.635,193.333L45.29,193.333L45.29,192.5L48.033,192.5L48.033,190.833L48.219,190.833L48.219,190.833L50.617,190.833L50.617,190.833L50.626,190.833L50.626,190.833L53.998,190.833L53.998,190.833L54.007,190.833L54.007,190.833L54.042,190.833L54.042,190.833L56.192,190.833L56.192,188.333L58.98,188.333L58.98,188.333L61.528,188.333L61.528,186.667L61.537,186.667L61.537,186.667L64.192,186.667L64.192,185.833L64.201,185.833L64.201,185.833L66.856,185.833L66.856,185.833L69.528,185.833L69.528,185L72.316,185L72.316,183.333L72.324,183.333L72.324,183.333L72.431,183.333L72.431,183.333L74.891,183.333L74.891,182.5L77.581,182.5L77.581,182.5L77.59,182.5L77.59,182.5L80.227,182.5L80.227,180.833L82.882,180.833L82.882,180L85.545,180L85.545,180L88.306,180L88.306,178.333L91.049,178.333L91.049,176.667L91.058,176.667L91.058,176.667L93.704,176.667L93.704,176.667L93.713,176.667L93.713,176.667L96.368,176.667L96.368,176.667L96.403,176.667L96.403,176.667L99.031,176.667L99.031,174.167L99.04,174.167L99.04,174.167L101.695,174.167L101.695,174.167L104.376,174.167L104.376,174.167L107.332,174.167L107.332,172.5L107.341,172.5L107.341,172.5L109.81,172.5L109.81,170.833L109.845,170.833L109.845,170.833L112.473,170.833L112.473,170.833L115.137,170.833L115.137,170.833L117.8,170.833L117.8,168.333L120.473,168.333L120.473,168.333L123.137,168.333L123.137,168.333L126.013,168.333L126.013,166.667L126.021,166.667L126.021,165.833L126.03,165.833L126.03,165.833L128.667,165.833L128.667,165L131.34,165L131.34,165L134.003,165L134.003,163.333L136.658,163.333L136.658,163.333L136.685,163.333L136.685,163.333L139.331,163.333L139.331,162.5L142.269,162.5L142.269,162.5L142.277,162.5L142.277,162.5L144.764,162.5L144.764,160L147.428,160L147.428,159.167L150.091,159.167L150.091,159.167L152.746,159.167L152.746,157.5L152.755,157.5L152.755,157.5L155.41,157.5L155.41,156.667L155.418,156.667L155.418,156.667L158.073,156.667L158.073,156.667L160.923,156.667L160.923,155L161.002,155L161.002,155L163.427,155L163.427,154.167L163.436,154.167L163.436,154.167L166.091,154.167L166.091,153.333L168.754,153.333L168.754,153.333L168.763,153.333L168.763,153.333L171.418,153.333L171.418,151.667L171.427,151.667L171.427,151.667L174.134,151.667L174.134,150.833L176.798,150.833L176.798,150.833L176.825,150.833L176.825,150.833L179.462,150.833L179.462,148.333L182.116,148.333L182.116,148.333L184.78,148.333L184.78,148.333L184.789,148.333L184.789,148.333L187.647,148.333L187.647,146.667L187.656,146.667L187.656,146.667L190.178,146.667L190.178,145.833L190.187,145.833L190.187,145.833L192.842,145.833L192.842,145.833L192.851,145.833L192.851,145.833L196.072,145.833L196.072,145L196.151,145L196.151,145L198.364,145L198.364,142.5L201.027,142.5L201.027,142.5L203.7,142.5L203.7,142.5L206.354,142.5L206.354,140L209.018,140L209.018,140L209.062,140L209.062,140L211.682,140L211.682,140L211.69,140L211.69,140L214.389,140L214.389,137.5L217.035,137.5L217.035,136.667L217.044,136.667L217.044,136.667L217.053,136.667L217.053,136.667L219.699,136.667L219.699,136.667L222.407,136.667L222.407,135L225.079,135L225.079,135L225.124,135L225.124,135L227.708,135L227.708,134.167L230.893,134.167L230.893,134.167L233.141,134.167L233.141,131.667L235.813,131.667L235.813,130.833L238.468,130.833L238.468,130.833L241.132,130.833L241.132,129.167L243.822,129.167L243.822,129.167L243.831,129.167L243.831,129.167L246.459,129.167L246.459,128.333L249.123,128.333L249.123,126.667L251.786,126.667L251.786,125.833L251.813,125.833L251.813,125.833L251.822,125.833L251.822,125.833L254.45,125.833L254.45,125.833L257.255,125.833L257.255,123.333L257.264,123.333L257.264,123.333L257.273,123.333L257.273,123.333L259.91,123.333L259.91,123.333L262.573,123.333L262.573,123.333L265.379,123.333L265.379,123.333L265.494,123.333L265.494,122.5L267.901,122.5L267.901,120L270.635,120L270.635,120L270.644,120L270.644,120L273.228,120L273.228,120L275.936,120L275.936,117.5L275.944,117.5L275.944,117.5L278.599,117.5L278.599,117.5L278.608,117.5L278.608,117.5L281.289,117.5L281.289,117.5L284.157,117.5L284.157,116.667L284.165,116.667L284.165,116.667L286.723,116.667L286.723,114.167L289.422,114.167L289.422,114.167L292.05,114.167L292.05,114.167L294.758,114.167L294.758,111.667L297.413,111.667L297.413,111.667L300.076,111.667L300.076,111.667L300.085,111.667L300.085,111.667L302.74,111.667L302.74,109.167L305.678,109.167L305.678,108.333L308.102,108.333L308.102,108.333L310.766,108.333L310.766,106.667L313.43,106.667L313.43,106.667L313.439,106.667L313.439,106.667L316.093,106.667L316.093,105.833L316.102,105.833L316.102,105.833L319.102,105.833L319.102,105.833L319.217,105.833L319.217,105.833L321.465,105.833L321.465,103.333L321.474,103.333L321.474,103.333L324.164,103.333L324.164,103.333L326.792,103.333L326.792,102.5L329.456,102.5L329.456,100.833L329.464,100.833L329.464,100.833L332.119,100.833L332.119,100.833L332.128,100.833L332.128,100.833L334.783,100.833L334.783,100L337.668,100L337.668,98.333L340.269,98.333L340.269,97.5L342.924,97.5L342.924,96.667L345.588,96.667L345.588,96.667L345.712,96.667L345.712,96.667L345.72,96.667L345.72,96.667L348.251,96.667L348.251,95L350.915,95L350.915,95L353.578,95L353.578,94.167L353.587,94.167L353.587,94.167L356.242,94.167L356.242,91.667L356.251,91.667L356.251,91.667L358.932,91.667L358.932,91.667L361.569,91.667L361.569,91.667L364.56,91.667L364.56,90L364.569,90L364.569,90L366.905,90L366.905,89.167L366.914,89.167L366.914,89.167L369.596,89.167L369.596,89.167L372.631,89.167L372.631,88.333L374.94,88.333L374.94,85.833L377.604,85.833L377.604,85.833L380.268,85.833L380.268,85.833L382.94,85.833L382.94,83.333L385.604,83.333L385.604,83.333L388.294,83.333L388.294,83.333L390.984,83.333L390.984,80.833L393.63,80.833L393.63,80L393.639,80L393.639,80L396.285,80L396.285,80L398.957,80L398.957,80L401.762,80L401.762,77.5L404.293,77.5L404.293,77.5L406.93,77.5L406.93,77.5L409.594,77.5L409.594,75L412.257,75L412.257,74.167L414.921,74.167L414.921,74.167L417.585,74.167L417.585,72.5L417.629,72.5L417.629,72.5L420.248,72.5L420.248,72.5L422.912,72.5L422.912,71.667L422.921,71.667L422.921,71.667L425.699,71.667L425.699,70.833L425.708,70.833L425.708,70.833L428.239,70.833L428.239,69.167L430.903,69.167L430.903,69.167L430.929,69.167L430.929,69.167L433.593,69.167L433.593,68.333L436.257,68.333L436.257,66.667L436.265,66.667L436.265,66.667L438.894,66.667L438.894,66.667L441.557,66.667L441.557,65.833L441.566,65.833L441.566,65.833L444.3,65.833L444.3,63.333L446.955,63.333L446.955,63.333L449.619,63.333L449.619,63.333L452.282,63.333L452.282,60.833L452.327,60.833L452.327,60.833L454.946,60.833L454.946,60.833L457.61,60.833L457.61,60.833L460.751,60.833L460.751,60L460.919,60L460.919,60L460.928,60L460.928,60L462.99,60L462.99,57.5L462.999,57.5L462.999,57.5L465.662,57.5L465.662,57.5L465.689,57.5L465.689,57.5L468.326,57.5L468.326,57.5L468.335,57.5L468.335,57.5L470.99,57.5L470.99,55L473.689,55L473.689,55L476.317,55L476.317,55L479.034,55L479.034,54.167L481.856,54.167L481.856,52.5L481.865,52.5L481.865,52.5L484.414,52.5L484.414,51.667L487.086,51.667L487.086,51.667L489.75,51.667L489.75,50L492.44,50L492.44,49.167L495.077,49.167L495.077,49.167L497.75,49.167L497.75,46.667L500.404,46.667L500.404,46.667L503.068,46.667L503.068,45.833L503.077,45.833L503.077,45.833L505.732,45.833L505.732,44.167L508.395,44.167L508.395,44.167L511.059,44.167L511.059,43.333L514.014,43.333L514.014,42.5L516.395,42.5L516.395,40.833L519.058,40.833L519.058,40.833L519.067,40.833L519.067,40.833L521.722,40.833L521.722,40L521.731,40L521.731,40L524.386,40L524.386,38.333L527.076,38.333L527.076,38.333L529.713,38.333L529.713,37.5L529.722,37.5L529.722,37.5L532.536,37.5L532.536,35.833L535.129,35.833L535.129,35L537.792,35L537.792,35L540.456,35L540.456,34.167L543.119,34.167L543.119,32.5L545.783,32.5L545.783,32.5L548.447,32.5L548.447,31.667L551.11,31.667L551.11,29.167L553.783,29.167L553.783,29.167L556.437,29.167L556.437,29.167L559.101,29.167L559.101,26.667L561.765,26.667L561.765,26.667L561.774,26.667L561.774,26.667L564.428,26.667L564.428,26.667L567.331,26.667L567.331,25.833L569.862,25.833L569.862,23.333L569.871,23.333L569.871,23.333L572.525,23.333L572.525,23.333L572.534,23.333L572.534,23.333L575.224,23.333L575.224,23.333L577.914,23.333L577.914,20.833L577.923,20.833L577.923,20.833L580.613,20.833L580.613,20.833L583.242,20.833L583.242,20.833L585.905,20.833L585.905,18.333L585.914,18.333L585.914,18.333L588.578,18.333L588.578,18.333L591.232,18.333L591.232,17.5L593.94,17.5L593.94,15.833L596.569,15.833L596.569,15.833L599.259,15.833L599.259,15L602.321,15L602.321,15L602.365,15L602.365,15L604.674,15L604.674,12.5L607.338,12.5L607.338,12.5L610.002,12.5L610.002,11.667L610.01,11.667L610.01,11.667L612.665,11.667L612.665,10L615.364,10L615.364,10L618.152,10L618.152,10L618.161,10L618.161,9.167L620.691,9.167L620.691,8.333L620.7,8.333L620.7,8.333L623.364,8.333L623.364,8.333L626.019,8.333L626.019,8.333L628.682,8.333L628.682,8.333L628.691,8.333L628.691,8.333L631.346,8.333L631.346,8.333L631.355,8.333L631.355,8.333L634.036,8.333L634.036,8.333L634.045,8.333L634.045,8.333L636.682,8.333L636.682,8.333L639.363,8.333L639.363,8.333L639.372,8.333L639.372,8.333L642,8.333L642,8.333L644.664,8.333L644.664,8.333L647.354,8.333L647.354,8.333L650,8.333L650,8.333" stroke="#00000020" stroke-width="2"/></g><g class="mark-group role-scope concat_1_layer_1_pathgroup" role="graphics-object" aria-roledescription="group mark container"><g transform="translate(0,0)"><path class="background" aria-hidden="true" d="M0,0h650v200h-650Z"/><g><g class="mark-line role-mark concat_1_layer_1_marks" role="graphics-object" aria-roledescription="line mark container"><path aria-label="time: Mar 05, 2025; lag: 0; peer: peer_2" role="graphics-symbol" aria-roledescription="line mark" d="M0,200L2.619,199.167L5.283,200L7.938,200L10.61,200L13.274,200L15.929,200L18.592,200L21.273,200L23.919,200L26.583,200L29.255,200L31.999,200L34.645,200L37.308,200L39.963,200L42.627,200L45.29,200L48.219,199.167L50.626,200L54.007,200L56.192,200L58.98,200L61.528,200L64.201,200L66.856,200L69.528,200L72.431,200L74.891,200L77.59,200L80.227,200L82.882,200L85.545,200L88.306,200L91.058,200L93.713,200L96.403,200L99.031,200L101.695,200L104.376,200L107.332,199.167L109.845,200L112.473,200L115.137,200L117.8,200L120.473,200L123.137,200L126.03,199.167L128.667,200L131.34,200L134.003,200L136.685,200L139.331,200L142.277,200L144.764,200L147.428,200L150.091,200L152.755,200L155.418,200L158.073,200L160.923,199.167L163.436,200L166.091,200L168.763,200L171.427,200L174.134,200L176.825,200L179.462,200L182.116,200L184.789,200L187.647,200L190.187,200L192.851,200L196.151,199.167L198.364,200L201.027,200L203.7,200L206.354,200L209.062,200L211.69,200L214.389,200L217.044,200L219.699,200L222.407,199.167L225.124,200L227.708,200L230.893,200L233.141,200L235.813,200L238.468,200L241.132,200L243.822,200L246.459,200L249.123,200L251.813,200L254.45,200L257.273,200L259.91,200L262.573,200L265.379,200L267.901,200L270.644,200L273.228,200L275.944,199.167L278.599,200L281.289,200L284.157,200L286.723,200L289.422,200L292.05,200L294.758,200L297.413,200L300.076,200L302.74,200L305.678,200L308.102,200L310.766,200L313.43,200L316.102,200L319.217,200L321.474,200L324.164,200L326.792,200L329.464,200L332.128,200L334.783,200L337.668,199.167L340.269,200L342.924,200L345.712,200L348.251,200L350.915,200L353.587,200L356.251,200L358.932,200L361.569,200L364.569,200L366.914,200L369.596,200L372.631,200L374.94,200L377.604,200L380.268,200L382.94,200L385.604,200L388.294,200L390.984,199.167L393.639,200L396.285,200L398.957,200L401.762,200L404.293,200L406.93,200L409.594,200L412.257,200L414.921,200L417.585,200L420.248,200L422.921,200L425.699,200L428.239,200L430.929,200L433.593,200L436.265,200L438.894,200L441.566,200L444.3,200L446.955,200L449.619,200L452.327,200L454.946,200L457.61,200L460.751,200L462.999,200L465.689,200L468.335,200L470.99,200L473.689,200L476.317,200L479.034,200L481.865,200L484.414,200L487.086,200L489.75,200L492.44,200L495.077,200L497.75,200L500.404,200L503.077,200L505.732,200L508.395,200L511.059,200L514.014,200L516.395,200L519.067,200L521.731,200L524.386,200L527.076,200L529.722,200L532.536,200L535.129,200L537.792,200L540.456,200L543.119,200L545.783,200L548.447,200L551.11,200L553.783,200L556.437,200L559.101,200L561.774,200L564.428,200L567.331,200L569.862,200L572.534,200L575.224,200L577.914,200L580.613,200L583.242,200L585.914,200L588.578,200L591.232,200L593.94,200L596.569,200L599.259,200L602.365,200L604.674,200L607.338,200L610.01,200L612.665,200L615.364,200L618.161,200L620.7,200L623.364,200L626.019,200L628.691,200L631.355,200L634.045,200L636.682,200L639.372,200L642,200L644.664,200L647.354,200L650,200" stroke="#e2474d" stroke-width="2"/></g></g><path class="foreground" aria-hidden="true" d="" display="none"/></g><g transform="translate(0,0)"><path class="background" aria-hidden="true" d="M0,0h650v200h-650Z"/><g><g class="mark-line role-mark concat_1_layer_1_marks" role="graphics-object" aria-roledescription="line mark container"><path aria-label="time: Mar 05, 2025; lag: 0; peer: peer_1" role="graphics-symbol" aria-roledescription="line mark" d="M0,200L2.619,199.167L5.283,200L7.938,200L10.61,200L13.274,200L15.929,200L18.592,200L21.273,200L23.919,200L26.583,200L29.255,200L32.008,200L34.645,200L37.308,200L39.963,200L42.627,200L45.29,200L48.033,199.167L50.617,200L54.042,200L56.192,200L58.98,200L61.528,200L64.192,200L66.856,200L69.528,200L72.324,200L74.891,200L77.581,200L80.227,200L82.882,200L85.545,200L88.306,200L91.058,200L93.704,200L96.368,200L99.04,200L101.695,200L104.376,200L107.332,200L109.845,200L112.473,200L115.137,200L117.8,200L120.473,200L123.137,200L126.013,200L128.667,200L131.34,200L134.003,200L136.658,200L139.331,200L142.277,200L144.764,200L147.428,200L150.091,200L152.746,200L155.41,200L158.073,200L161.002,200L163.436,200L166.091,200L168.763,200L171.418,200L174.134,199.167L176.798,200L179.462,200L182.116,200L184.78,200L187.647,200L190.178,200L192.842,200L196.072,200L198.364,200L201.027,200L203.7,200L206.354,200L209.062,200L211.682,200L214.389,200L217.044,200L219.699,200L222.407,200L225.124,200L227.708,200L230.893,200L233.141,200L235.813,200L238.468,200L241.132,200L243.831,200L246.459,200L249.123,200L251.822,200L254.45,200L257.264,199.167L259.91,200L262.573,200L265.494,200L267.901,200L270.644,200L273.228,200L275.936,200L278.599,200L281.289,200L284.165,200L286.723,200L289.422,200L292.05,200L294.758,200L297.413,200L300.085,200L302.74,200L305.678,200L308.102,200L310.766,200L313.439,200L316.093,200L319.217,200L321.474,200L324.164,200L326.792,200L329.464,200L332.128,200L334.783,200L337.668,200L340.269,200L342.924,200L345.588,200L348.251,200L350.915,200L353.578,200L356.242,200L358.932,200L361.569,200L364.569,200L366.914,200L369.596,200L372.631,199.167L374.94,200L377.604,200L380.268,200L382.94,200L385.604,200L388.294,200L390.984,199.167L393.63,200L396.285,200L398.957,200L401.762,200L404.293,200L406.93,200L409.594,200L412.257,200L414.921,200L417.585,200L420.248,200L422.912,200L425.708,199.167L428.239,200L430.929,200L433.593,200L436.265,200L438.894,200L441.557,200L444.3,199.167L446.955,200L449.619,200L452.327,200L454.946,200L457.61,200L460.919,200L462.999,200L465.662,200L468.326,200L470.99,200L473.689,200L476.317,200L479.034,200L481.856,200L484.414,200L487.086,200L489.75,200L492.44,200L495.077,200L497.75,200L500.404,200L503.077,200L505.732,200L508.395,200L511.059,200L514.014,200L516.395,200L519.058,200L521.722,200L524.386,200L527.076,200L529.722,200L532.536,200L535.129,200L537.792,200L540.456,200L543.119,200L545.783,200L548.447,200L551.11,200L553.783,200L556.437,200L559.101,200L561.765,200L564.428,200L567.331,200L569.871,200L572.525,200L575.224,200L577.923,199.167L580.613,200L583.242,200L585.905,200L588.578,200L591.232,200L593.94,200L596.569,200L599.259,200L602.365,200L604.674,200L607.338,200L610.01,200L612.665,200L615.364,200L618.161,200L620.7,200L623.364,200L626.019,200L628.691,200L631.346,200L634.045,200L636.682,200L639.372,200L642,200L644.664,200L647.354,200L650,200" stroke="#ffa83f" stroke-width="2"/></g></g><path class="foreground" aria-hidden="true" d="" display="none"/></g><g transform="translate(0,0)"><path class="background" aria-hidden="true" d="M0,0h650v200h-650Z"/><g><g class="mark-line role-mark concat_1_layer_1_marks" role="graphics-object" aria-roledescription="line mark container"><path aria-label="time: Mar 05, 2025; lag: 0; peer: peer_0" role="graphics-symbol" aria-roledescription="line mark" d="M0,200L2.619,200L5.283,200L7.938,200L10.61,200L13.274,200L15.929,200L18.592,200L21.282,200L23.919,200L26.583,200L29.255,200L32.008,200L34.645,200L37.308,200L39.963,200L42.635,200L45.29,200L48.033,200L50.617,200L54.042,200L56.192,200L58.98,200L61.528,200L64.192,200L66.856,200L69.528,200L72.316,200L74.891,200L77.59,200L80.227,200L82.882,200L85.545,200L88.306,200L91.049,200L93.704,200L96.403,200L99.031,200L101.695,200L104.376,200L107.341,200L109.845,200L112.473,200L115.137,200L117.8,200L120.473,200L123.137,200L126.021,200L128.667,200L131.34,200L134.003,200L136.658,200L139.331,200L142.269,200L144.764,200L147.428,200L150.091,200L152.755,200L155.418,200L158.073,200L160.923,200L163.427,200L166.091,200L168.754,200L171.427,200L174.134,200L176.798,200L179.462,200L182.116,200L184.78,200L187.647,199.167L190.187,200L192.842,200L196.072,200L198.364,200L201.027,200L203.7,200L206.354,200L209.018,200L211.682,200L214.389,200L217.035,200L219.699,200L222.407,200L225.079,200L227.708,200L230.893,200L233.141,200L235.813,200L238.468,200L241.132,200L243.822,200L246.459,200L249.123,200L251.786,200L254.45,200L257.255,200L259.91,200L262.573,200L265.379,200L267.901,200L270.635,200L273.228,200L275.936,200L278.599,200L281.289,200L284.157,200L286.723,200L289.422,200L292.05,200L294.758,200L297.413,200L300.085,200L302.74,200L305.678,200L308.102,200L310.766,200L313.43,200L316.093,200L319.102,200L321.465,200L324.164,200L326.792,200L329.456,200L332.119,200L334.783,200L337.668,200L340.269,200L342.924,200L345.712,200L348.251,200L350.915,200L353.578,200L356.242,200L358.932,200L361.569,200L364.569,200L366.905,200L369.596,200L372.631,200L374.94,200L377.604,200L380.268,200L382.94,200L385.604,200L388.294,200L390.984,200L393.63,200L396.285,200L398.957,200L401.762,200L404.293,200L406.93,200L409.594,200L412.257,200L414.921,200L417.629,200L420.248,200L422.912,200L425.708,200L428.239,200L430.903,200L433.593,200L436.257,200L438.894,200L441.557,200L444.3,200L446.955,200L449.619,200L452.282,200L454.946,200L457.61,200L460.919,200L462.99,200L465.662,200L468.326,200L470.99,200L473.689,200L476.317,200L479.034,200L481.865,200L484.414,200L487.086,200L489.75,200L492.44,200L495.077,200L497.75,200L500.404,200L503.068,200L505.732,200L508.395,200L511.059,200L514.014,200L516.395,200L519.058,200L521.722,200L524.386,200L527.076,200L529.713,200L532.536,200L535.129,200L537.792,200L540.456,200L543.119,200L545.783,200L548.447,200L551.11,200L553.783,200L556.437,200L559.101,200L561.774,200L564.428,200L567.331,200L569.871,200L572.525,200L575.224,200L577.914,200L580.613,200L583.242,200L585.914,200L588.578,200L591.232,200L593.94,200L596.569,200L599.259,200L602.321,200L604.674,200L607.338,200L610.002,200L612.665,200L615.364,200L618.152,200L620.691,200L623.364,200L626.019,200L628.682,200L631.346,200L634.036,200L636.682,200L639.363,200L642,200L644.664,200L647.354,200L650,200" stroke="#6583ff" stroke-width="2"/></g></g><path class="foreground" aria-hidden="true" d="" display="none"/></g><g transform="translate(0,0)"><path class="background" aria-hidden="true" d="M0,0h650v200h-650Z"/><g><g class="mark-line role-mark concat_1_layer_1_marks" role="graphics-object" aria-roledescription="line mark container"><path aria-label="time: Mar 05, 2025; lag: 0; peer: peer_3" role="graphics-symbol" aria-roledescription="line mark" d="M0,200L2.619,199.167L5.283,200L7.938,200L10.61,200L13.274,200L15.929,200L18.592,200L21.282,200L23.919,200L26.583,200L29.264,200L32.016,200L34.645,200L37.308,200L39.963,200L42.635,200L45.29,200L48.219,200L50.626,200L53.998,200L56.192,200L58.98,200L61.537,200L64.192,200L66.856,200L69.528,200L72.431,200L74.891,200L77.59,200L80.227,200L82.882,200L85.545,200L88.306,200L91.058,200L93.713,200L96.403,200L99.04,200L101.695,200L104.376,200L107.332,200L109.81,200L112.473,200L115.137,200L117.8,200L120.473,200L123.137,200L126.03,200L128.667,200L131.34,200L134.003,200L136.685,200L139.331,200L142.277,200L144.764,200L147.428,200L150.091,200L152.746,200L155.418,200L158.073,200L160.923,200L163.436,200L166.091,200L168.763,200L171.427,200L174.134,200L176.798,200L179.462,200L182.116,200L184.789,200L187.656,200L190.187,200L192.851,200L196.151,200L198.364,200L201.027,200L203.7,200L206.354,200L209.062,200L211.69,200L214.389,200L217.053,200L219.699,200L222.407,200L225.124,200L227.708,200L230.893,200L233.141,200L235.813,200L238.468,200L241.132,200L243.831,200L246.459,200L249.123,200L251.822,200L254.45,200L257.273,200L259.91,200L262.573,200L265.379,200L267.901,200L270.644,200L273.228,200L275.944,200L278.608,200L281.289,200L284.157,199.167L286.723,200L289.422,200L292.05,200L294.758,200L297.413,200L300.085,200L302.74,200L305.678,200L308.102,200L310.766,200L313.439,200L316.102,200L319.217,200L321.474,200L324.164,200L326.792,200L329.464,200L332.128,200L334.783,200L337.668,200L340.269,200L342.924,200L345.72,200L348.251,200L350.915,200L353.587,200L356.251,200L358.932,200L361.569,200L364.56,200L366.914,200L369.596,200L372.631,199.167L374.94,196.667L377.604,196.667L380.268,196.667L382.94,194.167L385.604,194.167L388.294,194.167L390.984,191.667L393.639,190.833L396.285,190.833L398.957,190.833L401.762,189.167L404.293,188.333L406.93,188.333L409.594,185.833L412.257,185.833L414.921,185L417.629,183.333L420.248,183.333L422.921,182.5L425.708,181.667L428.239,180L430.929,180L433.593,180L436.265,177.5L438.894,177.5L441.566,176.667L444.3,177.5L446.955,177.5L449.619,177.5L452.282,175L454.946,175L457.61,175L460.928,174.167L462.999,171.667L465.689,171.667L468.335,171.667L470.99,169.167L473.689,169.167L476.317,169.167L479.034,169.167L481.865,166.667L484.414,165.833L487.086,165.833L489.75,164.167L492.44,163.333L495.077,163.333L497.75,160.833L500.404,160.833L503.077,160L505.732,158.333L508.395,158.333L511.059,157.5L514.014,156.667L516.395,155L519.067,155L521.722,154.167L524.386,152.5L527.076,152.5L529.722,151.667L532.536,153.333L535.129,152.5L537.792,152.5L540.456,151.667L543.119,150L545.783,150L548.447,149.167L551.11,146.667L553.783,146.667L556.437,146.667L559.101,146.667L561.774,144.167L564.428,144.167L567.331,144.167L569.871,140.833L572.534,140.833L575.224,140.833L577.914,140.833L580.613,138.333L583.242,138.333L585.914,135.833L588.578,135.833L591.232,135L593.94,133.333L596.569,133.333L599.259,132.5L602.365,132.5L604.674,132.5L607.338,130L610.01,129.167L612.665,127.5L615.364,127.5L618.161,126.667L620.7,129.167L623.364,129.167L626.019,129.167L628.691,129.167L631.355,129.167L634.045,129.167L636.682,129.167L639.372,129.167L642,129.167L644.664,129.167L647.354,129.167L650,129.167" stroke="#4aa148" stroke-width="2"/></g></g><path class="foreground" aria-hidden="true" d="" display="none"/></g></g><g class="mark-group role-title"><g transform="translate(297.70243123011664,-22)"><path class="background" aria-hidden="true" d="M0,0h0v0h0Z" pointer-events="none"/><g><g class="mark-text role-title-text" role="graphics-symbol" aria-roledescription="title" aria-label="Title text 'Max block and lags'" pointer-events="none"><text text-anchor="middle" transform="translate(0,14)" font-family="Inter" font-size="18px" font-weight="400" fill="#445668" opacity="1">Max block and lags</text></g></g><path class="foreground" aria-hidden="true" d="" pointer-events="none" display="none"/></g></g></g><path class="foreground" aria-hidden="true" d="" display="none"/></g></g><g class="mark-group role-scope concat_2_group" role="graphics-object" aria-roledescription="group mark container"><g transform="translate(0,570)"><path class="background" aria-hidden="true" d="M0.5,0.5h650v200h-650Z" stroke="#ddd"/><g><g class="mark-group role-axis" aria-hidden="true"><g transform="translate(0.5,200.5)"><path class="background" aria-hidden="true" d="M0,0h0v0h0Z" pointer-events="none"/><g><g class="mark-rule role-axis-grid" pointer-events="none"><line transform="translate(10,-200)" x2="0" y2="200" stroke="#ddd" stroke-width="1" opacity="1"/><line transform="translate(56,-200)" x2="0" y2="200" stroke="#ddd" stroke-width="1" opacity="1"/><line transform="translate(102,-200)" x2="0" y2="200" stroke="#ddd" stroke-width="1" opacity="1"/><line transform="translate(148,-200)" x2="0" y2="200" stroke="#ddd" stroke-width="1" opacity="1"/><line transform="translate(194,-200)" x2="0" y2="200" stroke="#ddd" stroke-width="1" opacity="1"/><line transform="translate(240,-200)" x2="0" y2="200" stroke="#ddd" stroke-width="1" opacity="1"/><line transform="translate(287,-200)" x2="0" y2="200" stroke="#ddd" stroke-width="1" opacity="1"/><line transform="translate(333,-200)" x2="0" y2="200" stroke="#ddd" stroke-width="1" opacity="1"/><line transform="translate(379,-200)" x2="0" y2="200" stroke="#ddd" stroke-width="1" opacity="1"/><line transform="translate(425,-200)" x2="0" y2="200" stroke="#ddd" stroke-width="1" opacity="1"/><line transform="translate(471,-200)" x2="0" y2="200" stroke="#ddd" stroke-width="1" opacity="1"/><line transform="translate(517,-200)" x2="0" y2="200" stroke="#ddd" stroke-width="1" opacity="1"/><line transform="translate(563,-200)" x2="0" y2="200" stroke="#ddd" stroke-width="1" opacity="1"/><line transform="translate(609,-200)" x2="0" y2="200" stroke="#ddd" stroke-width="1" opacity="1"/></g></g><path class="foreground" aria-hidden="true" d="" pointer-events="none" display="none"/></g></g><g class="mark-group role-axis" aria-hidden="true"><g transform="translate(0.5,0.5)"><path class="background" aria-hidden="true" d="M0,0h0v0h0Z" pointer-events="none"/><g><g class="mark-rule role-axis-grid" pointer-events="none"><line transform="translate(0,200)" x2="650" y2="0" stroke="#e1e8f0" stroke-width="1" opacity="1"/><line transform="translate(0,150)" x2="650" y2="0" stroke="#e1e8f0" stroke-width="1" opacity="1"/><line transform="translate(0,100)" x2="650" y2="0" stroke="#e1e8f0" stroke-width="1" opacity="1"/><line transform="translate(0,50)" x2="650" y2="0" stroke="#e1e8f0" stroke-width="1" opacity="1"/><line transform="translate(0,0)" x2="650" y2="0" stroke="#e1e8f0" stroke-width="1" opacity="1"/></g></g><path class="foreground" aria-hidden="true" d="" pointer-events="none" display="none"/></g></g><g class="mark-group role-axis" role="graphics-symbol" aria-roledescription="axis" aria-label="X-axis titled 'time' for a time scale with values from Wednesday, 05 March 2025, 1:12:23 AM to Wednesday, 05 March 2025, 1:13:34 AM"><g transform="translate(0.5,200.5)"><path class="background" aria-hidden="true" d="M0,0h0v0h0Z" pointer-events="none"/><g><g class="mark-rule role-axis-tick" pointer-events="none"><line transform="translate(10,0)" x2="0" y2="5" stroke="#888" stroke-width="1" opacity="1"/><line transform="translate(56,0)" x2="0" y2="5" stroke="#888" stroke-width="1" opacity="1"/><line transform="translate(102,0)" x2="0" y2="5" stroke="#888" stroke-width="1" opacity="1"/><line transform="translate(148,0)" x2="0" y2="5" stroke="#888" stroke-width="1" opacity="1"/><line transform="translate(194,0)" x2="0" y2="5" stroke="#888" stroke-width="1" opacity="1"/><line transform="translate(240,0)" x2="0" y2="5" stroke="#888" stroke-width="1" opacity="1"/><line transform="translate(287,0)" x2="0" y2="5" stroke="#888" stroke-width="1" opacity="1"/><line transform="translate(333,0)" x2="0" y2="5" stroke="#888" stroke-width="1" opacity="1"/><line transform="translate(379,0)" x2="0" y2="5" stroke="#888" stroke-width="1" opacity="1"/><line transform="translate(425,0)" x2="0" y2="5" stroke="#888" stroke-width="1" opacity="1"/><line transform="translate(471,0)" x2="0" y2="5" stroke="#888" stroke-width="1" opacity="1"/><line transform="translate(517,0)" x2="0" y2="5" stroke="#888" stroke-width="1" opacity="1"/><line transform="translate(563,0)" x2="0" y2="5" stroke="#888" stroke-width="1" opacity="1"/><line transform="translate(609,0)" x2="0" y2="5" stroke="#888" stroke-width="1" opacity="1"/></g><g class="mark-text role-axis-label" pointer-events="none"><text text-anchor="middle" transform="translate(9.912331720880088,15)" font-family="sans-serif" font-size="10px" fill="#000" opacity="1">:25</text><text text-anchor="middle" transform="translate(56.0162001900898,15)" font-family="sans-serif" font-size="10px" fill="#000" opacity="1">:30</text><text text-anchor="middle" transform="translate(102.1200686592995,15)" font-family="sans-serif" font-size="10px" fill="#000" opacity="1">:35</text><text text-anchor="middle" transform="translate(148.22393712850922,15)" font-family="sans-serif" font-size="10px" fill="#000" opacity="1">:40</text><text text-anchor="middle" transform="translate(194.3278055977189,15)" font-family="sans-serif" font-size="10px" fill="#000" opacity="1">:45</text><text text-anchor="middle" transform="translate(240.43167406692865,15)" font-family="sans-serif" font-size="10px" fill="#000" opacity="1">:50</text><text text-anchor="middle" transform="translate(286.53554253613834,15)" font-family="sans-serif" font-size="10px" fill="#000" opacity="1">:55</text><text text-anchor="middle" transform="translate(332.63941100534805,15)" font-family="sans-serif" font-size="10px" fill="#000" opacity="1">01:13</text><text text-anchor="middle" transform="translate(378.7432794745577,15)" font-family="sans-serif" font-size="10px" fill="#000" opacity="1">:05</text><text text-anchor="middle" transform="translate(424.8471479437675,15)" font-family="sans-serif" font-size="10px" fill="#000" opacity="1">:10</text><text text-anchor="middle" transform="translate(470.9510164129772,15)" font-family="sans-serif" font-size="10px" fill="#000" opacity="1">:15</text><text text-anchor="middle" transform="translate(517.0548848821869,15)" font-family="sans-serif" font-size="10px" fill="#000" opacity="1">:20</text><text text-anchor="middle" transform="translate(563.1587533513966,15)" font-family="sans-serif" font-size="10px" fill="#000" opacity="1">:25</text><text text-anchor="middle" transform="translate(609.2626218206063,15)" font-family="sans-serif" font-size="10px" fill="#000" opacity="1">:30</text></g><g class="mark-rule role-axis-domain" pointer-events="none"><line transform="translate(0,0)" x2="650" y2="0" stroke="#e1e8f0" stroke-width="1" opacity="1"/></g><g class="mark-text role-axis-title" pointer-events="none"><text text-anchor="middle" transform="translate(325,36)" font-family="sans-serif" font-size="11px" font-weight="400" fill="#1c2a3a" opacity="1">time</text></g></g><path class="foreground" aria-hidden="true" d="" pointer-events="none" display="none"/></g></g><g class="mark-group role-axis" role="graphics-symbol" aria-roledescription="axis" aria-label="Y-axis titled 'tps' for a linear scale with values from 0 to 2,000"><g transform="translate(0.5,0.5)"><path class="background" aria-hidden="true" d="M0,0h0v0h0Z" pointer-events="none"/><g><g class="mark-rule role-axis-tick" pointer-events="none"><line transform="translate(0,200)" x2="-5" y2="0" stroke="#888" stroke-width="1" opacity="1"/><line transform="translate(0,150)" x2="-5" y2="0" stroke="#888" stroke-width="1" opacity="1"/><line transform="translate(0,100)" x2="-5" y2="0" stroke="#888" stroke-width="1" opacity="1"/><line transform="translate(0,50)" x2="-5" y2="0" stroke="#888" stroke-width="1" opacity="1"/><line transform="translate(0,0)" x2="-5" y2="0" stroke="#888" stroke-width="1" opacity="1"/></g><g class="mark-text role-axis-label" pointer-events="none"><text text-anchor="end" transform="translate(-13,204)" font-family="sans-serif" font-size="12px" fill="#000" opacity="1">0</text><text text-anchor="end" transform="translate(-13,154)" font-family="sans-serif" font-size="12px" fill="#000" opacity="1">500</text><text text-anchor="end" transform="translate(-13,104)" font-family="sans-serif" font-size="12px" fill="#000" opacity="1">1,000</text><text text-anchor="end" transform="translate(-13,54)" font-family="sans-serif" font-size="12px" fill="#000" opacity="1">1,500</text><text text-anchor="end" transform="translate(-13,4)" font-family="sans-serif" font-size="12px" fill="#000" opacity="1">2,000</text></g><g class="mark-rule role-axis-domain" pointer-events="none"><line transform="translate(0,200)" x2="0" y2="-200" stroke="#888" stroke-width="1" opacity="1"/></g><g class="mark-text role-axis-title" pointer-events="none"><text text-anchor="middle" transform="translate(-53.662083808458505,100) rotate(-90) translate(0,-3)" font-family="sans-serif" font-size="12px" font-weight="400" fill="#1c2a3a" opacity="1">tps</text></g></g><path class="foreground" aria-hidden="true" d="" pointer-events="none" display="none"/></g></g><g class="mark-line role-mark concat_2_marks" role="graphics-object" aria-roledescription="line mark container"><path aria-label="time: Mar 05, 2025; tps: 0" role="graphics-symbol" aria-roledescription="line mark" d="M4.62,0.399C6.155,0.293,7.689,0.186,9.23,0.2C10.771,0.213,12.317,0.347,13.859,0.399C15.401,0.45,16.939,0.419,18.478,0.399C20.018,0.378,21.558,0.369,23.098,0.399C24.638,0.429,26.178,0.498,27.718,0.499C29.258,0.499,30.798,0.431,32.337,0.399C33.877,0.368,35.415,0.374,36.957,0.399C38.498,0.425,40.043,0.47,41.586,0.499C43.128,0.528,44.669,0.54,46.205,0.499C47.741,0.457,49.273,0.361,50.816,0.399C52.359,0.437,53.913,0.609,55.454,0.597C56.994,0.585,58.521,0.39,60.064,0.398C61.608,0.406,63.168,0.619,64.711,0.695C66.255,0.771,67.78,0.71,69.313,0.595C70.845,0.48,72.384,0.31,73.923,0.297C75.462,0.284,77.002,0.427,78.543,0.396C80.083,0.365,81.625,0.16,83.162,0.099C84.7,0.039,86.233,0.124,87.773,0.2C89.312,0.275,90.859,0.341,92.401,0.399C93.944,0.456,95.482,0.506,97.021,0.399C98.56,0.292,100.1,0.029,101.641,0.399C103.181,0.768,104.723,1.77,106.26,1.596C107.797,1.422,109.33,0.073,110.88,0.399C112.429,0.726,113.995,2.729,115.546,3.56C117.096,4.391,118.632,4.05,120.174,3.411C121.716,2.771,123.264,1.833,124.812,2.312C126.36,2.792,127.908,4.688,129.45,4.851C130.993,5.014,132.529,3.444,134.07,2.938C135.611,2.431,137.156,2.988,138.699,3.734C140.241,4.481,141.781,5.415,143.328,5.129C144.874,4.843,146.428,3.335,147.975,2.646C149.522,1.956,151.063,2.085,152.613,1.845C154.163,1.606,155.721,0.998,157.279,1.444C158.837,1.891,160.395,3.391,161.944,4.249C163.493,5.106,165.033,5.319,166.582,5.489C168.132,5.659,169.692,5.787,171.248,5.535C172.805,5.284,174.357,4.655,175.905,5.536C177.452,6.417,178.994,8.81,180.543,9.14C182.092,9.471,183.647,7.74,185.199,6.812C186.751,5.885,188.3,5.761,189.837,9.699C191.375,13.636,192.902,21.633,194.457,24.222C196.012,26.811,197.596,23.991,199.141,23.603C200.687,23.215,202.194,25.258,203.724,26.337C205.254,27.416,206.806,27.529,208.353,23.705C209.899,19.88,211.441,12.116,212.991,9.033C214.541,5.95,216.1,7.547,217.647,7.789C219.195,8.032,220.731,6.92,222.276,7.483C223.821,8.047,225.374,10.287,226.932,14.508C228.491,18.729,230.055,24.932,231.607,27.081C233.16,29.229,234.7,27.324,236.245,27.005C237.791,26.686,239.342,27.954,240.893,27.103C242.443,26.251,243.993,23.28,245.54,19.281C247.087,15.282,248.63,10.256,250.169,8.004C251.707,5.752,253.24,6.275,254.779,6.34C256.318,6.405,257.863,6.012,259.408,7.089C260.953,8.165,262.497,10.71,264.046,14.594C265.595,18.477,267.15,23.7,268.703,26.07C270.255,28.44,271.807,27.959,273.359,27.81C274.911,27.66,276.464,27.844,278.016,26.961C279.567,26.078,281.117,24.129,282.663,20.15C284.208,16.171,285.749,10.163,287.301,7.329C288.853,4.494,290.417,4.834,291.967,4.748C293.516,4.661,295.05,4.149,296.595,4.65C298.141,5.151,299.697,6.665,301.252,10.441C302.807,14.217,304.362,20.254,305.918,23.088C307.473,25.923,309.03,25.553,310.583,25.46C312.136,25.367,313.686,25.549,315.221,24.962C316.757,24.375,318.278,23.019,319.85,19.573C321.423,16.128,323.046,10.593,324.599,8.233C326.151,5.873,327.633,6.687,329.163,7.251C330.694,7.816,332.273,8.13,333.829,8.241C335.385,8.351,336.918,8.257,338.476,12.204C340.035,16.152,341.619,24.14,343.17,26.22C344.72,28.299,346.237,24.47,347.78,22.971C349.322,21.473,350.89,22.305,352.436,22.379C353.982,22.452,355.507,21.767,357.074,17.667C358.642,13.567,360.254,6.051,361.795,5.272C363.337,4.492,364.808,10.449,366.332,15.359C367.856,20.269,369.434,24.133,370.989,28.329C372.543,32.526,374.074,37.055,375.636,41.176C377.198,45.296,378.79,49.008,380.338,50.795C381.887,52.583,383.391,52.446,384.93,52.161C386.47,51.875,388.044,51.44,389.596,51.196C391.148,50.952,392.679,50.899,394.225,50.751C395.771,50.603,397.333,50.36,398.881,50.084C400.43,49.809,401.967,49.502,403.519,49.557C405.072,49.612,406.642,50.03,408.194,50.125C409.747,50.219,411.282,49.989,412.823,49.975C414.364,49.962,415.911,50.165,417.471,50.247C419.03,50.329,420.603,50.29,422.155,49.976C423.707,49.662,425.238,49.074,426.765,48.655C428.292,48.236,429.814,47.986,431.412,48.853C433.011,49.719,434.685,51.703,436.235,49.553C437.785,47.403,439.21,41.121,440.716,35.859C442.222,30.597,443.808,26.356,445.373,24.904C446.937,23.452,448.481,24.788,450.029,24.779C451.577,24.771,453.128,23.417,454.676,25.666C456.225,27.915,457.77,33.767,459.314,39.284C460.859,44.8,462.402,49.981,463.962,51.834C465.521,53.687,467.096,52.211,468.646,51.71C470.196,51.208,471.722,51.681,473.265,52.092C474.809,52.504,476.371,52.854,477.922,52.688C479.473,52.522,481.013,51.839,482.56,51.869C484.107,51.899,485.66,52.641,487.216,52.587C488.772,52.534,490.331,51.684,491.882,51.162C493.433,50.639,494.978,50.444,496.52,50.517C498.063,50.59,499.604,50.931,501.158,50.914C502.713,50.897,504.28,50.522,505.842,50.245C507.405,49.968,508.963,49.79,510.508,49.8C512.054,49.811,513.587,50.009,515.128,49.949C516.669,49.888,518.218,49.567,519.766,49.402C521.314,49.236,522.861,49.225,524.413,49.056C525.965,48.886,527.521,48.557,529.07,48.387C530.618,48.217,532.159,48.206,533.708,48.637C535.256,49.068,536.812,49.941,538.364,50.222C539.916,50.504,541.463,50.193,543.011,50.47C544.559,50.748,546.108,51.614,547.659,52.131C549.209,52.647,550.762,52.813,552.324,52.501C553.887,52.189,555.459,51.399,557.018,51.215C558.576,51.031,560.121,51.452,561.665,51.413C563.209,51.375,564.752,50.876,566.294,50.869C567.835,50.862,569.375,51.347,570.932,51.99C572.489,52.633,574.064,53.434,575.616,53.589C577.168,53.744,578.698,53.251,580.236,53.466C581.773,53.68,583.318,54.6,584.874,54.633C586.43,54.666,587.997,53.811,589.549,53.191C591.101,52.571,592.638,52.187,594.187,51.889C595.735,51.59,597.295,51.377,598.843,51.145C600.391,50.913,601.926,50.663,603.481,50.946C605.036,51.23,606.611,52.048,608.165,52.152C609.719,52.256,611.252,51.645,612.794,51.43C614.336,51.215,615.888,51.394,617.441,51.354C618.995,51.315,620.55,51.056,622.098,47.983C623.646,44.909,625.187,39.021,626.745,34.6C628.304,30.18,629.88,27.227,631.429,23.435C632.979,19.644,634.503,15.013,636.04,11.63C637.577,8.246,639.127,6.11,640.687,7.93C642.247,9.751,643.817,15.528,645.371,20.132C646.925,24.736,648.462,28.166,650,31.595" stroke="#6583ff" stroke-width="2"/></g><g class="mark-group role-title"><g transform="translate(292.66895809577073,-28)"><path class="background" aria-hidden="true" d="M0,0h0v0h0Z" pointer-events="none"/><g><g class="mark-text role-title-text" role="graphics-symbol" aria-roledescription="title" aria-label="Title text 'TPS'" pointer-events="none"><text text-anchor="middle" transform="translate(0,14)" font-family="Inter" font-size="18px" font-weight="400" fill="#445668" opacity="1">TPS</text></g></g><path class="foreground" aria-hidden="true" d="" pointer-events="none" display="none"/></g></g></g><path class="foreground" aria-hidden="true" d="" display="none"/></g></g><g class="mark-group role-legend" role="graphics-symbol" aria-roledescription="legend" aria-label="Symbol legend titled 'peer' for stroke color with 4 values: peer_0, peer_1, peer_2, peer_3"><g transform="translate(671,0)"><path class="background" aria-hidden="true" d="M0,0h55v84h-55Z" pointer-events="none"/><g><g class="mark-group role-legend-entry"><g transform="translate(0,23)"><path class="background" aria-hidden="true" d="M0,0h0v0h0Z" pointer-events="none"/><g><g class="mark-group role-scope" role="graphics-object" aria-roledescription="group mark container"><g transform="translate(0,0)"><path class="background" aria-hidden="true" d="M0,0h54.06349446741441v13h-54.06349446741441Z" pointer-events="none" opacity="1"/><g><g class="mark-symbol role-legend-symbol" pointer-events="none"><path transform="translate(6,6)" d="M5,0A5,5,0,1,1,-5,0A5,5,0,1,1,5,0" stroke="#6583ff" stroke-width="2" opacity="1"/></g><g class="mark-text role-legend-label" pointer-events="none"><text text-anchor="start" transform="translate(16,10)" font-family="sans-serif" font-size="12px" fill="#000" opacity="1">peer_0</text></g></g><path class="foreground" aria-hidden="true" d="" pointer-events="none" display="none"/></g><g transform="translate(0,16)"><path class="background" aria-hidden="true" d="M0,0h54.06349446741441v13h-54.06349446741441Z" pointer-events="none" opacity="1"/><g><g class="mark-symbol role-legend-symbol" pointer-events="none"><path transform="translate(6,6)" d="M5,0A5,5,0,1,1,-5,0A5,5,0,1,1,5,0" stroke="#ffa83f" stroke-width="2" opacity="1"/></g><g class="mark-text role-legend-label" pointer-events="none"><text text-anchor="start" transform="translate(16,10)" font-family="sans-serif" font-size="12px" fill="#000" opacity="1">peer_1</text></g></g><path class="foreground" aria-hidden="true" d="" pointer-events="none" display="none"/></g><g transform="translate(0,32)"><path class="background" aria-hidden="true" d="M0,0h54.06349446741441v13h-54.06349446741441Z" pointer-events="none" opacity="1"/><g><g class="mark-symbol role-legend-symbol" pointer-events="none"><path transform="translate(6,6)" d="M5,0A5,5,0,1,1,-5,0A5,5,0,1,1,5,0" stroke="#e2474d" stroke-width="2" opacity="1"/></g><g class="mark-text role-legend-label" pointer-events="none"><text text-anchor="start" transform="translate(16,10)" font-family="sans-serif" font-size="12px" fill="#000" opacity="1">peer_2</text></g></g><path class="foreground" aria-hidden="true" d="" pointer-events="none" display="none"/></g><g transform="translate(0,48)"><path class="background" aria-hidden="true" d="M0,0h54.06349446741441v13h-54.06349446741441Z" pointer-events="none" opacity="1"/><g><g class="mark-symbol role-legend-symbol" pointer-events="none"><path transform="translate(6,6)" d="M5,0A5,5,0,1,1,-5,0A5,5,0,1,1,5,0" stroke="#4aa148" stroke-width="2" opacity="1"/></g><g class="mark-text role-legend-label" pointer-events="none"><text text-anchor="start" transform="translate(16,10)" font-family="sans-serif" font-size="12px" fill="#000" opacity="1">peer_3</text></g></g><path class="foreground" aria-hidden="true" d="" pointer-events="none" display="none"/></g></g></g><path class="foreground" aria-hidden="true" d="" pointer-events="none" display="none"/></g></g><g class="mark-text role-legend-title" pointer-events="none"><text text-anchor="start" transform="translate(0,10)" font-family="sans-serif" font-size="13px" font-weight="400" fill="#000" opacity="1">peer</text></g></g><path class="foreground" aria-hidden="true" d="" pointer-events="none" display="none"/></g></g></g><path class="foreground" aria-hidden="true" d="" display="none"/></g></g></g></svg>