<svg xmlns="http://www.w3.org/2000/svg" xmlns:xlink="http://www.w3.org/1999/xlink" version="1.1" class="marks" width="861" height="716" viewBox="0 0 861 716"><rect width="861" height="716" fill="#fff"/><g fill="none" stroke-miterlimit="10" transform="translate(80,12)"><g class="mark-group role-frame root" role="graphics-object" aria-roledescription="group mark container"><g transform="translate(0,0)"><path class="background" aria-hidden="true" d="M0,0h700v0h-700Z"/><g><g class="mark-group role-scope concat_0_group" role="graphics-object" aria-roledescription="group mark container"><g transform="translate(0,0)"><path class="background" aria-hidden="true" d="M0.5,0.5h700v300h-700Z" stroke="#ddd"/><g><g class="mark-group role-axis" aria-hidden="true"><g transform="translate(0.5,300.5)"><path class="background" aria-hidden="true" d="M0,0h0v0h0Z" pointer-events="none"/><g><g class="mark-rule role-axis-grid" pointer-events="none"><line transform="translate(5,-300)" x2="0" y2="300" stroke="#ddd" stroke-width="1" opacity="1"/><line transform="translate(33,-300)" x2="0" y2="300" stroke="#ddd" stroke-width="1" opacity="1"/><line transform="translate(61,-300)" x2="0" y2="300" stroke="#ddd" stroke-width="1" opacity="1"/><line transform="translate(89,-300)" x2="0" y2="300" stroke="#ddd" stroke-width="1" opacity="1"/><line transform="translate(117,-300)" x2="0" y2="300" stroke="#ddd" stroke-width="1" opacity="1"/><line transform="translate(145,-300)" x2="0" y2="300" stroke="#ddd" stroke-width="1" opacity="1"/><line transform="translate(173,-300)" x2="0" y2="300" stroke="#ddd" stroke-width="1" opacity="1"/><line transform="translate(201,-300)" x2="0" y2="300" stroke="#ddd" stroke-width="1" opacity="1"/><line transform="translate(229,-300)" x2="0" y2="300" stroke="#ddd" stroke-width="1" opacity="1"/><line transform="translate(257,-300)" x2="0" y2="300" stroke="#ddd" stroke-width="1" opacity="1"/><line transform="translate(285,-300)" x2="0" y2="300" stroke="#ddd" stroke-width="1" opacity="1"/><line transform="translate(313,-300)" x2="0" y2="300" stroke="#ddd" stroke-width="1" opacity="1"/><line transform="translate(341,-300)" x2="0" y2="300" stroke="#ddd" stroke-width="1" opacity="1"/><line transform="translate(369,-300)" x2="0" y2="300" stroke="#ddd" stroke-width="1" opacity="1"/><line transform="translate(397,-300)" x2="0" y2="300" stroke="#ddd" stroke-width="1" opacity="1"/><line transform="translate(425,-300)" x2="0" y2="300" stroke="#ddd" stroke-width="1" opacity="1"/><line transform="translate(453,-300)" x2="0" y2="300" stroke="#ddd" stroke-width="1" opacity="1"/><line transform="translate(481,-300)" x2="0" y2="300" stroke="#ddd" stroke-width="1" opacity="1"/><line transform="translate(509,-300)" x2="0" y2="300" stroke="#ddd" stroke-width="1" opacity="1"/><line transform="translate(537,-300)" x2="0" y2="300" stroke="#ddd" stroke-width="1" opacity="1"/><line transform="translate(565,-300)" x2="0" y2="300" stroke="#ddd" stroke-width="1" opacity="1"/><line transform="translate(593,-300)" x2="0" y2="300" stroke="#ddd" stroke-width="1" opacity="1"/><line transform="translate(621,-300)" x2="0" y2="300" stroke="#ddd" stroke-width="1" opacity="1"/><line transform="translate(649,-300)" x2="0" y2="300" stroke="#ddd" stroke-width="1" opacity="1"/><line transform="translate(677,-300)" x2="0" y2="300" stroke="#ddd" stroke-width="1" opacity="1"/></g></g><path class="foreground" aria-hidden="true" d="" pointer-events="none" display="none"/></g></g><g class="mark-group role-axis" aria-hidden="true"><g transform="translate(0.5,0.5)"><path class="background" aria-hidden="true" d="M0,0h0v0h0Z" pointer-events="none"/><g><g class="mark-rule role-axis-grid" pointer-events="none"><line transform="translate(0,300)" x2="700" y2="0" stroke="#e1e8f0" stroke-width="1" opacity="1"/><line transform="translate(0,263)" x2="700" y2="0" stroke="#e1e8f0" stroke-width="1" opacity="1"/><line transform="translate(0,225)" x2="700" y2="0" stroke="#e1e8f0" stroke-width="1" opacity="1"/><line transform="translate(0,188)" x2="700" y2="0" stroke="#e1e8f0" stroke-width="1" opacity="1"/><line transform="translate(0,150)" x2="700" y2="0" stroke="#e1e8f0" stroke-width="1" opacity="1"/><line transform="translate(0,113)" x2="700" y2="0" stroke="#e1e8f0" stroke-width="1" opacity="1"/><line transform="translate(0,75)" x2="700" y2="0" stroke="#e1e8f0" stroke-width="1" opacity="1"/><line transform="translate(0,38)" x2="700" y2="0" stroke="#e1e8f0" stroke-width="1" opacity="1"/><line transform="translate(0,0)" x2="700" y2="0" stroke="#e1e8f0" stroke-width="1" opacity="1"/></g></g><path class="foreground" aria-hidden="true" d="" pointer-events="none" display="none"/></g></g><g class="mark-group role-axis" role="graphics-symbol" aria-roledescription="axis" aria-label="X-axis titled 'time' for a time scale with values from Friday, 28 February 2025, 9:20:24 AM to Friday, 28 February 2025, 9:22:29 AM"><g transform="translate(0.5,300.5)"><path class="background" aria-hidden="true" d="M0,0h0v0h0Z" pointer-events="none"/><g><g class="mark-rule role-axis-tick" pointer-events="none"><line transform="translate(5,0)" x2="0" y2="5" stroke="#888" stroke-width="1" opacity="1"/><line transform="translate(33,0)" x2="0" y2="5" stroke="#888" stroke-width="1" opacity="1"/><line transform="translate(61,0)" x2="0" y2="5" stroke="#888" stroke-width="1" opacity="1"/><line transform="translate(89,0)" x2="0" y2="5" stroke="#888" stroke-width="1" opacity="1"/><line transform="translate(117,0)" x2="0" y2="5" stroke="#888" stroke-width="1" opacity="1"/><line transform="translate(145,0)" x2="0" y2="5" stroke="#888" stroke-width="1" opacity="1"/><line transform="translate(173,0)" x2="0" y2="5" stroke="#888" stroke-width="1" opacity="1"/><line transform="translate(201,0)" x2="0" y2="5" stroke="#888" stroke-width="1" opacity="1"/><line transform="translate(229,0)" x2="0" y2="5" stroke="#888" stroke-width="1" opacity="1"/><line transform="translate(257,0)" x2="0" y2="5" stroke="#888" stroke-width="1" opacity="1"/><line transform="translate(285,0)" x2="0" y2="5" stroke="#888" stroke-width="1" opacity="1"/><line transform="translate(313,0)" x2="0" y2="5" stroke="#888" stroke-width="1" opacity="1"/><line transform="translate(341,0)" x2="0" y2="5" stroke="#888" stroke-width="1" opacity="1"/><line transform="translate(369,0)" x2="0" y2="5" stroke="#888" stroke-width="1" opacity="1"/><line transform="translate(397,0)" x2="0" y2="5" stroke="#888" stroke-width="1" opacity="1"/><line transform="translate(425,0)" x2="0" y2="5" stroke="#888" stroke-width="1" opacity="1"/><line transform="translate(453,0)" x2="0" y2="5" stroke="#888" stroke-width="1" opacity="1"/><line transform="translate(481,0)" x2="0" y2="5" stroke="#888" stroke-width="1" opacity="1"/><line transform="translate(509,0)" x2="0" y2="5" stroke="#888" stroke-width="1" opacity="1"/><line transform="translate(537,0)" x2="0" y2="5" stroke="#888" stroke-width="1" opacity="1"/><line transform="translate(565,0)" x2="0" y2="5" stroke="#888" stroke-width="1" opacity="1"/><line transform="translate(593,0)" x2="0" y2="5" stroke="#888" stroke-width="1" opacity="1"/><line transform="translate(621,0)" x2="0" y2="5" stroke="#888" stroke-width="1" opacity="1"/><line transform="translate(649,0)" x2="0" y2="5" stroke="#888" stroke-width="1" opacity="1"/><line transform="translate(677,0)" x2="0" y2="5" stroke="#888" stroke-width="1" opacity="1"/></g><g class="mark-text role-axis-label" pointer-events="none"><text text-anchor="middle" transform="translate(4.691673998240422,15)" font-family="sans-serif" font-size="10px" fill="#000" opacity="1">:25</text><text text-anchor="middle" transform="translate(32.68495561065344,15)" font-family="sans-serif" font-size="10px" fill="#000" opacity="1">:30</text><text text-anchor="middle" transform="translate(60.67823722306646,15)" font-family="sans-serif" font-size="10px" fill="#000" opacity="1">:35</text><text text-anchor="middle" transform="translate(88.67151883547949,15)" font-family="sans-serif" font-size="10px" fill="#000" opacity="1">:40</text><text text-anchor="middle" transform="translate(116.6648004478925,15)" font-family="sans-serif" font-size="10px" fill="#000" opacity="1">:45</text><text text-anchor="middle" transform="translate(144.65808206030553,15)" font-family="sans-serif" font-size="10px" fill="#000" opacity="1">:50</text><text text-anchor="middle" transform="translate(172.65136367271856,15)" font-family="sans-serif" font-size="10px" fill="#000" opacity="1">:55</text><text text-anchor="middle" transform="translate(200.64464528513156,15)" font-family="sans-serif" font-size="10px" fill="#000" opacity="1">09:21</text><text text-anchor="middle" transform="translate(228.6379268975446,15)" font-family="sans-serif" font-size="10px" fill="#000" opacity="1">:05</text><text text-anchor="middle" transform="translate(256.6312085099576,15)" font-family="sans-serif" font-size="10px" fill="#000" opacity="1">:10</text><text text-anchor="middle" transform="translate(284.6244901223706,15)" font-family="sans-serif" font-size="10px" fill="#000" opacity="1">:15</text><text text-anchor="middle" transform="translate(312.6177717347837,15)" font-family="sans-serif" font-size="10px" fill="#000" opacity="1">:20</text><text text-anchor="middle" transform="translate(340.6110533471967,15)" font-family="sans-serif" font-size="10px" fill="#000" opacity="1">:25</text><text text-anchor="middle" transform="translate(368.6043349596097,15)" font-family="sans-serif" font-size="10px" fill="#000" opacity="1">:30</text><text text-anchor="middle" transform="translate(396.5976165720227,15)" font-family="sans-serif" font-size="10px" fill="#000" opacity="1">:35</text><text text-anchor="middle" transform="translate(424.59089818443573,15)" font-family="sans-serif" font-size="10px" fill="#000" opacity="1">:40</text><text text-anchor="middle" transform="translate(452.5841797968488,15)" font-family="sans-serif" font-size="10px" fill="#000" opacity="1">:45</text><text text-anchor="middle" transform="translate(480.5774614092618,15)" font-family="sans-serif" font-size="10px" fill="#000" opacity="1">:50</text><text text-anchor="middle" transform="translate(508.57074302167484,15)" font-family="sans-serif" font-size="10px" fill="#000" opacity="1">:55</text><text text-anchor="middle" transform="translate(536.5640246340878,15)" font-family="sans-serif" font-size="10px" fill="#000" opacity="1">09:22</text><text text-anchor="middle" transform="translate(564.5573062465008,15)" font-family="sans-serif" font-size="10px" fill="#000" opacity="1">:05</text><text text-anchor="middle" transform="translate(592.5505878589139,15)" font-family="sans-serif" font-size="10px" fill="#000" opacity="1">:10</text><text text-anchor="middle" transform="translate(620.5438694713268,15)" font-family="sans-serif" font-size="10px" fill="#000" opacity="1">:15</text><text text-anchor="middle" transform="translate(648.5371510837399,15)" font-family="sans-serif" font-size="10px" fill="#000" opacity="1">:20</text><text text-anchor="middle" transform="translate(676.530432696153,15)" font-family="sans-serif" font-size="10px" fill="#000" opacity="1">:25</text></g><g class="mark-rule role-axis-domain" pointer-events="none"><line transform="translate(0,0)" x2="700" y2="0" stroke="#e1e8f0" stroke-width="1" opacity="1"/></g><g class="mark-text role-axis-title" pointer-events="none"><text text-anchor="middle" transform="translate(350,36)" font-family="sans-serif" font-size="11px" font-weight="400" fill="#1c2a3a" opacity="1">time</text></g></g><path class="foreground" aria-hidden="true" d="" pointer-events="none" display="none"/></g></g><g class="mark-group role-axis" role="graphics-symbol" aria-roledescription="axis" aria-label="Y-axis titled 'data.blocks' for a linear scale with values from 0 to 800"><g transform="translate(0.5,0.5)"><path class="background" aria-hidden="true" d="M0,0h0v0h0Z" pointer-events="none"/><g><g class="mark-rule role-axis-tick" pointer-events="none"><line transform="translate(0,300)" x2="-5" y2="0" stroke="#888" stroke-width="1" opacity="1"/><line transform="translate(0,263)" x2="-5" y2="0" stroke="#888" stroke-width="1" opacity="1"/><line transform="translate(0,225)" x2="-5" y2="0" stroke="#888" stroke-width="1" opacity="1"/><line transform="translate(0,188)" x2="-5" y2="0" stroke="#888" stroke-width="1" opacity="1"/><line transform="translate(0,150)" x2="-5" y2="0" stroke="#888" stroke-width="1" opacity="1"/><line transform="translate(0,113)" x2="-5" y2="0" stroke="#888" stroke-width="1" opacity="1"/><line transform="translate(0,75)" x2="-5" y2="0" stroke="#888" stroke-width="1" opacity="1"/><line transform="translate(0,38)" x2="-5" y2="0" stroke="#888" stroke-width="1" opacity="1"/><line transform="translate(0,0)" x2="-5" y2="0" stroke="#888" stroke-width="1" opacity="1"/></g><g class="mark-text role-axis-label" pointer-events="none"><text text-anchor="end" transform="translate(-13,304)" font-family="sans-serif" font-size="12px" fill="#000" opacity="1">0</text><text text-anchor="end" transform="translate(-13,266.5)" font-family="sans-serif" font-size="12px" fill="#000" opacity="1">100</text><text text-anchor="end" transform="translate(-13,229)" font-family="sans-serif" font-size="12px" fill="#000" opacity="1">200</text><text text-anchor="end" transform="translate(-13,191.5)" font-family="sans-serif" font-size="12px" fill="#000" opacity="1">300</text><text text-anchor="end" transform="translate(-13,154)" font-family="sans-serif" font-size="12px" fill="#000" opacity="1">400</text><text text-anchor="end" transform="translate(-13,116.5)" font-family="sans-serif" font-size="12px" fill="#000" opacity="1">500</text><text text-anchor="end" transform="translate(-13,79)" font-family="sans-serif" font-size="12px" fill="#000" opacity="1">600</text><text text-anchor="end" transform="translate(-13,41.5)" font-family="sans-serif" font-size="12px" fill="#000" opacity="1">700</text><text text-anchor="end" transform="translate(-13,4)" font-family="sans-serif" font-size="12px" fill="#000" opacity="1">800</text></g><g class="mark-rule role-axis-domain" pointer-events="none"><line transform="translate(0,300)" x2="0" y2="-300" stroke="#888" stroke-width="1" opacity="1"/></g><g class="mark-text role-axis-title" pointer-events="none"><text text-anchor="middle" transform="translate(-43.59811006127464,150) rotate(-90) translate(0,-3)" font-family="sans-serif" font-size="12px" font-weight="400" fill="#1c2a3a" opacity="1">data.blocks</text></g></g><path class="foreground" aria-hidden="true" d="" pointer-events="none" display="none"/></g></g><g class="mark-group role-scope concat_0_pathgroup" role="graphics-object" aria-roledescription="group mark container"><g transform="translate(0,0)"><path class="background" aria-hidden="true" d="M0,0h700v300h-700Z"/><g><g class="mark-line role-mark concat_0_marks" role="graphics-object" aria-roledescription="line mark container"><path aria-label="time: Feb 28, 2025; data.blocks: 0; peer: peer_1" role="graphics-symbol" aria-roledescription="line mark" d="M0,300L27.988,299.625L56.031,289.125L84.013,278.25L111.996,267.375L140.011,256.5L167.999,245.625L196.037,234.75L224.03,224.25L252.018,214.125L280.006,202.875L308.01,193.875L336.015,193.875L363.985,168L392.018,155.625L419.994,144L447.971,132.375L475.97,121.875L503.969,111L532.001,99L560.028,88.5L587.982,77.625L615.97,65.625L643.98,54.375L671.979,43.5L699.978,32.625" stroke="#ffa83f" stroke-width="2"/></g></g><path class="foreground" aria-hidden="true" d="" display="none"/></g><g transform="translate(0,0)"><path class="background" aria-hidden="true" d="M0,0h700v300h-700Z"/><g><g class="mark-line role-mark concat_0_marks" role="graphics-object" aria-roledescription="line mark container"><path aria-label="time: Feb 28, 2025; data.blocks: 0; peer: peer_2" role="graphics-symbol" aria-roledescription="line mark" d="M0.006,300L27.988,299.625L56.003,289.125L84.013,278.25L111.99,267.375L140,256.5L167.999,245.625L196.015,234.75L223.98,224.25L252.001,214.125L280,202.875L307.976,193.875L336.009,193.875L363.969,168L391.996,155.625L419.994,144L447.965,132.375L476.026,121.875L503.963,111L532.024,99L559.983,88.5L587.982,77.625L616.015,65.625L643.98,54.375L671.979,43.5L699.983,32.625" stroke="#e2474d" stroke-width="2"/></g></g><path class="foreground" aria-hidden="true" d="" display="none"/></g><g transform="translate(0,0)"><path class="background" aria-hidden="true" d="M0,0h700v300h-700Z"/><g><g class="mark-line role-mark concat_0_marks" role="graphics-object" aria-roledescription="line mark container"><path aria-label="time: Feb 28, 2025; data.blocks: 0; peer: peer_0" role="graphics-symbol" aria-roledescription="line mark" d="M0.006,300L27.993,299.625L56.015,289.125L84.002,278.25L111.984,267.375L140,256.5L168.004,245.625L196.015,234.75L224.025,224.25L252.001,214.125L280,202.875L307.976,193.875L335.97,193.875L364.008,168L392.018,155.625L419.989,144L448.016,132.375L475.964,121.875L504.002,111L531.99,99L559.978,88.5L588.004,77.625L615.97,65.625L644.002,54.375L671.979,43.5L699.983,32.625" stroke="#6583ff" stroke-width="2"/></g></g><path class="foreground" aria-hidden="true" d="" display="none"/></g><g transform="translate(0,0)"><path class="background" aria-hidden="true" d="M0,0h700v300h-700Z"/><g><g class="mark-line role-mark concat_0_marks" role="graphics-object" aria-roledescription="line mark container"><path aria-label="time: Feb 28, 2025; data.blocks: 0; peer: peer_3" role="graphics-symbol" aria-roledescription="line mark" d="M0.006,300L27.988,299.625L56.015,289.125L84.013,278.25L111.996,267.375L139.994,256.5L167.999,245.625L196.003,234.75L223.985,224.25L252.007,214.125L280,202.875L307.971,193.875L335.97,193.875L363.974,168L392.018,155.625L419.989,144L447.965,132.375L475.97,121.875L503.963,111L531.99,99L559.983,88.5L587.982,77.625L616.026,65.625L644.008,54.375L671.979,43.5L699.983,32.625" stroke="#4aa148" stroke-width="2"/></g></g><path class="foreground" aria-hidden="true" d="" display="none"/></g><g transform="translate(0,0)"><path class="background" aria-hidden="true" d="M0,0h700v300h-700Z"/><g><g class="mark-line role-mark concat_0_marks" role="graphics-object" aria-roledescription="line mark container"><path aria-label="time: Feb 28, 2025; data.blocks: 1; peer: peer_4" role="graphics-symbol" aria-roledescription="line mark" d="M27.993,299.625L56.015,289.125L84.013,278.25L111.99,267.375L140,256.5L167.999,245.625L196.015,234.75L223.985,224.25L251.996,214.125L280,202.875L307.976,193.875L335.975,193.875L363.974,168L391.996,155.625L419.989,144L447.971,132.375L475.97,121.875L503.969,111L531.99,99L559.983,88.5L587.976,77.625L615.97,65.625L643.98,54.75L671.979,43.5L700,32.625" stroke="#2d4cdb" stroke-width="2"/></g></g><path class="foreground" aria-hidden="true" d="" display="none"/></g></g></g><path class="foreground" aria-hidden="true" d="" display="none"/></g></g><g class="mark-group role-scope concat_1_group" role="graphics-object" aria-roledescription="group mark container"><g transform="translate(0,360)"><path class="background" aria-hidden="true" d="M0.5,0.5h700v300h-700Z" stroke="#ddd"/><g><g class="mark-group role-axis" aria-hidden="true"><g transform="translate(0.5,300.5)"><path class="background" aria-hidden="true" d="M0,0h0v0h0Z" pointer-events="none"/><g><g class="mark-rule role-axis-grid" pointer-events="none"><line transform="translate(5,-300)" x2="0" y2="300" stroke="#ddd" stroke-width="1" opacity="1"/><line transform="translate(33,-300)" x2="0" y2="300" stroke="#ddd" stroke-width="1" opacity="1"/><line transform="translate(61,-300)" x2="0" y2="300" stroke="#ddd" stroke-width="1" opacity="1"/><line transform="translate(89,-300)" x2="0" y2="300" stroke="#ddd" stroke-width="1" opacity="1"/><line transform="translate(117,-300)" x2="0" y2="300" stroke="#ddd" stroke-width="1" opacity="1"/><line transform="translate(145,-300)" x2="0" y2="300" stroke="#ddd" stroke-width="1" opacity="1"/><line transform="translate(173,-300)" x2="0" y2="300" stroke="#ddd" stroke-width="1" opacity="1"/><line transform="translate(201,-300)" x2="0" y2="300" stroke="#ddd" stroke-width="1" opacity="1"/><line transform="translate(229,-300)" x2="0" y2="300" stroke="#ddd" stroke-width="1" opacity="1"/><line transform="translate(257,-300)" x2="0" y2="300" stroke="#ddd" stroke-width="1" opacity="1"/><line transform="translate(285,-300)" x2="0" y2="300" stroke="#ddd" stroke-width="1" opacity="1"/><line transform="translate(313,-300)" x2="0" y2="300" stroke="#ddd" stroke-width="1" opacity="1"/><line transform="translate(341,-300)" x2="0" y2="300" stroke="#ddd" stroke-width="1" opacity="1"/><line transform="translate(369,-300)" x2="0" y2="300" stroke="#ddd" stroke-width="1" opacity="1"/><line transform="translate(397,-300)" x2="0" y2="300" stroke="#ddd" stroke-width="1" opacity="1"/><line transform="translate(425,-300)" x2="0" y2="300" stroke="#ddd" stroke-width="1" opacity="1"/><line transform="translate(453,-300)" x2="0" y2="300" stroke="#ddd" stroke-width="1" opacity="1"/><line transform="translate(481,-300)" x2="0" y2="300" stroke="#ddd" stroke-width="1" opacity="1"/><line transform="translate(509,-300)" x2="0" y2="300" stroke="#ddd" stroke-width="1" opacity="1"/><line transform="translate(537,-300)" x2="0" y2="300" stroke="#ddd" stroke-width="1" opacity="1"/><line transform="translate(565,-300)" x2="0" y2="300" stroke="#ddd" stroke-width="1" opacity="1"/><line transform="translate(593,-300)" x2="0" y2="300" stroke="#ddd" stroke-width="1" opacity="1"/><line transform="translate(621,-300)" x2="0" y2="300" stroke="#ddd" stroke-width="1" opacity="1"/><line transform="translate(649,-300)" x2="0" y2="300" stroke="#ddd" stroke-width="1" opacity="1"/><line transform="translate(677,-300)" x2="0" y2="300" stroke="#ddd" stroke-width="1" opacity="1"/></g></g><path class="foreground" aria-hidden="true" d="" pointer-events="none" display="none"/></g></g><g class="mark-group role-axis" aria-hidden="true"><g transform="translate(0.5,0.5)"><path class="background" aria-hidden="true" d="M0,0h0v0h0Z" pointer-events="none"/><g><g class="mark-rule role-axis-grid" pointer-events="none"><line transform="translate(0,300)" x2="700" y2="0" stroke="#e1e8f0" stroke-width="1" opacity="1"/><line transform="translate(0,254)" x2="700" y2="0" stroke="#e1e8f0" stroke-width="1" opacity="1"/><line transform="translate(0,208)" x2="700" y2="0" stroke="#e1e8f0" stroke-width="1" opacity="1"/><line transform="translate(0,162)" x2="700" y2="0" stroke="#e1e8f0" stroke-width="1" opacity="1"/><line transform="translate(0,115)" x2="700" y2="0" stroke="#e1e8f0" stroke-width="1" opacity="1"/><line transform="translate(0,69)" x2="700" y2="0" stroke="#e1e8f0" stroke-width="1" opacity="1"/><line transform="translate(0,23)" x2="700" y2="0" stroke="#e1e8f0" stroke-width="1" opacity="1"/></g></g><path class="foreground" aria-hidden="true" d="" pointer-events="none" display="none"/></g></g><g class="mark-group role-axis" role="graphics-symbol" aria-roledescription="axis" aria-label="X-axis titled 'time' for a time scale with values from Friday, 28 February 2025, 9:20:24 AM to Friday, 28 February 2025, 9:22:29 AM"><g transform="translate(0.5,300.5)"><path class="background" aria-hidden="true" d="M0,0h0v0h0Z" pointer-events="none"/><g><g class="mark-rule role-axis-tick" pointer-events="none"><line transform="translate(5,0)" x2="0" y2="5" stroke="#888" stroke-width="1" opacity="1"/><line transform="translate(33,0)" x2="0" y2="5" stroke="#888" stroke-width="1" opacity="1"/><line transform="translate(61,0)" x2="0" y2="5" stroke="#888" stroke-width="1" opacity="1"/><line transform="translate(89,0)" x2="0" y2="5" stroke="#888" stroke-width="1" opacity="1"/><line transform="translate(117,0)" x2="0" y2="5" stroke="#888" stroke-width="1" opacity="1"/><line transform="translate(145,0)" x2="0" y2="5" stroke="#888" stroke-width="1" opacity="1"/><line transform="translate(173,0)" x2="0" y2="5" stroke="#888" stroke-width="1" opacity="1"/><line transform="translate(201,0)" x2="0" y2="5" stroke="#888" stroke-width="1" opacity="1"/><line transform="translate(229,0)" x2="0" y2="5" stroke="#888" stroke-width="1" opacity="1"/><line transform="translate(257,0)" x2="0" y2="5" stroke="#888" stroke-width="1" opacity="1"/><line transform="translate(285,0)" x2="0" y2="5" stroke="#888" stroke-width="1" opacity="1"/><line transform="translate(313,0)" x2="0" y2="5" stroke="#888" stroke-width="1" opacity="1"/><line transform="translate(341,0)" x2="0" y2="5" stroke="#888" stroke-width="1" opacity="1"/><line transform="translate(369,0)" x2="0" y2="5" stroke="#888" stroke-width="1" opacity="1"/><line transform="translate(397,0)" x2="0" y2="5" stroke="#888" stroke-width="1" opacity="1"/><line transform="translate(425,0)" x2="0" y2="5" stroke="#888" stroke-width="1" opacity="1"/><line transform="translate(453,0)" x2="0" y2="5" stroke="#888" stroke-width="1" opacity="1"/><line transform="translate(481,0)" x2="0" y2="5" stroke="#888" stroke-width="1" opacity="1"/><line transform="translate(509,0)" x2="0" y2="5" stroke="#888" stroke-width="1" opacity="1"/><line transform="translate(537,0)" x2="0" y2="5" stroke="#888" stroke-width="1" opacity="1"/><line transform="translate(565,0)" x2="0" y2="5" stroke="#888" stroke-width="1" opacity="1"/><line transform="translate(593,0)" x2="0" y2="5" stroke="#888" stroke-width="1" opacity="1"/><line transform="translate(621,0)" x2="0" y2="5" stroke="#888" stroke-width="1" opacity="1"/><line transform="translate(649,0)" x2="0" y2="5" stroke="#888" stroke-width="1" opacity="1"/><line transform="translate(677,0)" x2="0" y2="5" stroke="#888" stroke-width="1" opacity="1"/></g><g class="mark-text role-axis-label" pointer-events="none"><text text-anchor="middle" transform="translate(4.691673998240422,15)" font-family="sans-serif" font-size="10px" fill="#000" opacity="1">:25</text><text text-anchor="middle" transform="translate(32.68495561065344,15)" font-family="sans-serif" font-size="10px" fill="#000" opacity="1">:30</text><text text-anchor="middle" transform="translate(60.67823722306646,15)" font-family="sans-serif" font-size="10px" fill="#000" opacity="1">:35</text><text text-anchor="middle" transform="translate(88.67151883547949,15)" font-family="sans-serif" font-size="10px" fill="#000" opacity="1">:40</text><text text-anchor="middle" transform="translate(116.6648004478925,15)" font-family="sans-serif" font-size="10px" fill="#000" opacity="1">:45</text><text text-anchor="middle" transform="translate(144.65808206030553,15)" font-family="sans-serif" font-size="10px" fill="#000" opacity="1">:50</text><text text-anchor="middle" transform="translate(172.65136367271856,15)" font-family="sans-serif" font-size="10px" fill="#000" opacity="1">:55</text><text text-anchor="middle" transform="translate(200.64464528513156,15)" font-family="sans-serif" font-size="10px" fill="#000" opacity="1">09:21</text><text text-anchor="middle" transform="translate(228.6379268975446,15)" font-family="sans-serif" font-size="10px" fill="#000" opacity="1">:05</text><text text-anchor="middle" transform="translate(256.6312085099576,15)" font-family="sans-serif" font-size="10px" fill="#000" opacity="1">:10</text><text text-anchor="middle" transform="translate(284.6244901223706,15)" font-family="sans-serif" font-size="10px" fill="#000" opacity="1">:15</text><text text-anchor="middle" transform="translate(312.6177717347837,15)" font-family="sans-serif" font-size="10px" fill="#000" opacity="1">:20</text><text text-anchor="middle" transform="translate(340.6110533471967,15)" font-family="sans-serif" font-size="10px" fill="#000" opacity="1">:25</text><text text-anchor="middle" transform="translate(368.6043349596097,15)" font-family="sans-serif" font-size="10px" fill="#000" opacity="1">:30</text><text text-anchor="middle" transform="translate(396.5976165720227,15)" font-family="sans-serif" font-size="10px" fill="#000" opacity="1">:35</text><text text-anchor="middle" transform="translate(424.59089818443573,15)" font-family="sans-serif" font-size="10px" fill="#000" opacity="1">:40</text><text text-anchor="middle" transform="translate(452.5841797968488,15)" font-family="sans-serif" font-size="10px" fill="#000" opacity="1">:45</text><text text-anchor="middle" transform="translate(480.5774614092618,15)" font-family="sans-serif" font-size="10px" fill="#000" opacity="1">:50</text><text text-anchor="middle" transform="translate(508.57074302167484,15)" font-family="sans-serif" font-size="10px" fill="#000" opacity="1">:55</text><text text-anchor="middle" transform="translate(536.5640246340878,15)" font-family="sans-serif" font-size="10px" fill="#000" opacity="1">09:22</text><text text-anchor="middle" transform="translate(564.5573062465008,15)" font-family="sans-serif" font-size="10px" fill="#000" opacity="1">:05</text><text text-anchor="middle" transform="translate(592.5505878589139,15)" font-family="sans-serif" font-size="10px" fill="#000" opacity="1">:10</text><text text-anchor="middle" transform="translate(620.5438694713268,15)" font-family="sans-serif" font-size="10px" fill="#000" opacity="1">:15</text><text text-anchor="middle" transform="translate(648.5371510837399,15)" font-family="sans-serif" font-size="10px" fill="#000" opacity="1">:20</text><text text-anchor="middle" transform="translate(676.530432696153,15)" font-family="sans-serif" font-size="10px" fill="#000" opacity="1">:25</text></g><g class="mark-rule role-axis-domain" pointer-events="none"><line transform="translate(0,0)" x2="700" y2="0" stroke="#e1e8f0" stroke-width="1" opacity="1"/></g><g class="mark-text role-axis-title" pointer-events="none"><text text-anchor="middle" transform="translate(350,36)" font-family="sans-serif" font-size="11px" font-weight="400" fill="#1c2a3a" opacity="1">time</text></g></g><path class="foreground" aria-hidden="true" d="" pointer-events="none" display="none"/></g></g><g class="mark-group role-axis" role="graphics-symbol" aria-roledescription="axis" aria-label="Y-axis titled 'data.queueSize' for a linear scale with values from 0 to 65,000"><g transform="translate(0.5,0.5)"><path class="background" aria-hidden="true" d="M0,0h0v0h0Z" pointer-events="none"/><g><g class="mark-rule role-axis-tick" pointer-events="none"><line transform="translate(0,300)" x2="-5" y2="0" stroke="#888" stroke-width="1" opacity="1"/><line transform="translate(0,254)" x2="-5" y2="0" stroke="#888" stroke-width="1" opacity="1"/><line transform="translate(0,208)" x2="-5" y2="0" stroke="#888" stroke-width="1" opacity="1"/><line transform="translate(0,162)" x2="-5" y2="0" stroke="#888" stroke-width="1" opacity="1"/><line transform="translate(0,115)" x2="-5" y2="0" stroke="#888" stroke-width="1" opacity="1"/><line transform="translate(0,69)" x2="-5" y2="0" stroke="#888" stroke-width="1" opacity="1"/><line transform="translate(0,23)" x2="-5" y2="0" stroke="#888" stroke-width="1" opacity="1"/></g><g class="mark-text role-axis-label" pointer-events="none"><text text-anchor="end" transform="translate(-13,304)" font-family="sans-serif" font-size="12px" fill="#000" opacity="1">0</text><text text-anchor="end" transform="translate(-13,257.8461538461538)" font-family="sans-serif" font-size="12px" fill="#000" opacity="1">10,000</text><text text-anchor="end" transform="translate(-13,211.69230769230768)" font-family="sans-serif" font-size="12px" fill="#000" opacity="1">20,000</text><text text-anchor="end" transform="translate(-13,165.53846153846152)" font-family="sans-serif" font-size="12px" fill="#000" opacity="1">30,000</text><text text-anchor="end" transform="translate(-13,119.38461538461537)" font-family="sans-serif" font-size="12px" fill="#000" opacity="1">40,000</text><text text-anchor="end" transform="translate(-13,73.23076923076921)" font-family="sans-serif" font-size="12px" fill="#000" opacity="1">50,000</text><text text-anchor="end" transform="translate(-13,27.076923076923062)" font-family="sans-serif" font-size="12px" fill="#000" opacity="1">60,000</text></g><g class="mark-rule role-axis-domain" pointer-events="none"><line transform="translate(0,300)" x2="0" y2="-300" stroke="#888" stroke-width="1" opacity="1"/></g><g class="mark-text role-axis-title" pointer-events="none"><text text-anchor="middle" transform="translate(-60.536025311748425,150) rotate(-90) translate(0,-3)" font-family="sans-serif" font-size="12px" font-weight="400" fill="#1c2a3a" opacity="1">data.queueSize</text></g></g><path class="foreground" aria-hidden="true" d="" pointer-events="none" display="none"/></g></g><g class="mark-group role-scope concat_1_pathgroup" role="graphics-object" aria-roledescription="group mark container"><g transform="translate(0,0)"><path class="background" aria-hidden="true" d="M0,0h700v300h-700Z"/><g><g class="mark-line role-mark concat_1_marks" role="graphics-object" aria-roledescription="line mark container"><path aria-label="time: Feb 28, 2025; data.queueSize: 0; peer: peer_1" role="graphics-symbol" aria-roledescription="line mark" d="M0,300L27.988,300L56.031,296.326L84.013,298.532L111.996,297.997L140.011,296.631L167.999,296.968L196.037,295.869L224.03,295.417L252.018,297.152L280.006,296.155L308.01,292.426L336.015,246.42L363.985,235.74L392.018,223.237L419.994,218.22L447.971,209.455L475.97,193.172L503.969,187.02L532.001,170.534L560.028,149.211L587.982,146.354L615.97,126.332L643.98,111.115L671.979,94.906L699.978,77.825" stroke="#ffa83f" stroke-width="2"/></g></g><path class="foreground" aria-hidden="true" d="" display="none"/></g><g transform="translate(0,0)"><path class="background" aria-hidden="true" d="M0,0h700v300h-700Z"/><g><g class="mark-line role-mark concat_1_marks" role="graphics-object" aria-roledescription="line mark container"><path aria-label="time: Feb 28, 2025; data.queueSize: 0; peer: peer_2" role="graphics-symbol" aria-roledescription="line mark" d="M0.006,300L27.988,300L56.003,297.651L84.013,298.306L111.99,297.752L140,296.622L167.999,298.952L196.015,297.328L223.98,295.809L252.001,296.451L280,296.086L307.976,292.675L336.009,246.683L363.969,296.372L391.996,294.374L419.994,295.214L447.965,294.134L476.026,291.138L503.963,295.925L532.024,292.491L559.983,295.56L587.982,292.989L616.015,294.942L643.98,292.754L671.979,294.088L699.983,292.865" stroke="#e2474d" stroke-width="2"/></g></g><path class="foreground" aria-hidden="true" d="" display="none"/></g><g transform="translate(0,0)"><path class="background" aria-hidden="true" d="M0,0h700v300h-700Z"/><g><g class="mark-line role-mark concat_1_marks" role="graphics-object" aria-roledescription="line mark container"><path aria-label="time: Feb 28, 2025; data.queueSize: 0; peer: peer_0" role="graphics-symbol" aria-roledescription="line mark" d="M0.006,300L27.993,300L56.015,296.843L84.002,298.915L111.984,297.997L140,296.672L168.004,297.194L196.015,295.869L224.025,296.04L252.001,297.152L280,296.211L307.976,292.865L335.97,246.702L364.008,294.032L392.018,296.737L419.989,296.626L448.016,293.774L475.964,293.423L504.002,293.885L531.99,295.934L559.978,295.754L588.004,293.035L615.97,294.942L644.002,293.917L671.979,294.055L699.983,292.865" stroke="#6583ff" stroke-width="2"/></g></g><path class="foreground" aria-hidden="true" d="" display="none"/></g><g transform="translate(0,0)"><path class="background" aria-hidden="true" d="M0,0h700v300h-700Z"/><g><g class="mark-line role-mark concat_1_marks" role="graphics-object" aria-roledescription="line mark container"><path aria-label="time: Feb 28, 2025; data.queueSize: 0; peer: peer_3" role="graphics-symbol" aria-roledescription="line mark" d="M0.006,300L27.988,300L56.015,284.617L84.013,275.303L111.996,260.363L139.994,248.012L167.999,240.78L196.003,223.038L223.985,216.803L252.007,216.817L280,203.612L307.971,185.4L335.97,148.338L363.974,255.212L392.018,290.589L419.989,295.214L447.965,295.671L475.97,293.709L503.963,295.98L531.99,293.298L559.983,294.854L587.982,293.068L616.026,292.634L644.008,292.754L671.979,294.028L699.983,292.865" stroke="#4aa148" stroke-width="2"/></g></g><path class="foreground" aria-hidden="true" d="" display="none"/></g><g transform="translate(0,0)"><path class="background" aria-hidden="true" d="M0,0h700v300h-700Z"/><g><g class="mark-line role-mark concat_1_marks" role="graphics-object" aria-roledescription="line mark container"><path aria-label="time: Feb 28, 2025; data.queueSize: 0; peer: peer_4" role="graphics-symbol" aria-roledescription="line mark" d="M27.993,300L56.015,285.032L84.013,275.852L111.99,260.285L140,247.431L167.999,232.145L196.015,221.977L223.985,209.091L251.996,206.972L280,203.197L307.976,185.206L335.975,148.735L363.974,172.814L391.996,154.994L419.989,136.135L447.971,117.397L475.97,118.228L503.969,104.326L531.99,92.797L559.983,78.175L587.976,75.609L615.97,54.665L643.98,26.211L671.979,20.072L700,6.092" stroke="#2d4cdb" stroke-width="2"/></g></g><path class="foreground" aria-hidden="true" d="" display="none"/></g></g></g><path class="foreground" aria-hidden="true" d="" display="none"/></g></g><g class="mark-group role-legend" role="graphics-symbol" aria-roledescription="legend" aria-label="Symbol legend titled 'peer' for stroke color with 5 values: peer_0, peer_1, peer_2, peer_3, peer_4"><g transform="translate(721,0)"><path class="background" aria-hidden="true" d="M0,0h55v100h-55Z" pointer-events="none"/><g><g class="mark-group role-legend-entry"><g transform="translate(0,23)"><path class="background" aria-hidden="true" d="M0,0h0v0h0Z" pointer-events="none"/><g><g class="mark-group role-scope" role="graphics-object" aria-roledescription="group mark container"><g transform="translate(0,0)"><path class="background" aria-hidden="true" d="M0,0h54.06832262816295v13h-54.06832262816295Z" pointer-events="none" opacity="1"/><g><g class="mark-symbol role-legend-symbol" pointer-events="none"><path transform="translate(6,6)" d="M5,0A5,5,0,1,1,-5,0A5,5,0,1,1,5,0" stroke="#6583ff" stroke-width="2" opacity="1"/></g><g class="mark-text role-legend-label" pointer-events="none"><text text-anchor="start" transform="translate(16,10)" font-family="sans-serif" font-size="12px" fill="#000" opacity="1">peer_0</text></g></g><path class="foreground" aria-hidden="true" d="" pointer-events="none" display="none"/></g><g transform="translate(0,16)"><path class="background" aria-hidden="true" d="M0,0h54.06832262816295v13h-54.06832262816295Z" pointer-events="none" opacity="1"/><g><g class="mark-symbol role-legend-symbol" pointer-events="none"><path transform="translate(6,6)" d="M5,0A5,5,0,1,1,-5,0A5,5,0,1,1,5,0" stroke="#ffa83f" stroke-width="2" opacity="1"/></g><g class="mark-text role-legend-label" pointer-events="none"><text text-anchor="start" transform="translate(16,10)" font-family="sans-serif" font-size="12px" fill="#000" opacity="1">peer_1</text></g></g><path class="foreground" aria-hidden="true" d="" pointer-events="none" display="none"/></g><g transform="translate(0,32)"><path class="background" aria-hidden="true" d="M0,0h54.06832262816295v13h-54.06832262816295Z" pointer-events="none" opacity="1"/><g><g class="mark-symbol role-legend-symbol" pointer-events="none"><path transform="translate(6,6)" d="M5,0A5,5,0,1,1,-5,0A5,5,0,1,1,5,0" stroke="#e2474d" stroke-width="2" opacity="1"/></g><g class="mark-text role-legend-label" pointer-events="none"><text text-anchor="start" transform="translate(16,10)" font-family="sans-serif" font-size="12px" fill="#000" opacity="1">peer_2</text></g></g><path class="foreground" aria-hidden="true" d="" pointer-events="none" display="none"/></g><g transform="translate(0,48)"><path class="background" aria-hidden="true" d="M0,0h54.06832262816295v13h-54.06832262816295Z" pointer-events="none" opacity="1"/><g><g class="mark-symbol role-legend-symbol" pointer-events="none"><path transform="translate(6,6)" d="M5,0A5,5,0,1,1,-5,0A5,5,0,1,1,5,0" stroke="#4aa148" stroke-width="2" opacity="1"/></g><g class="mark-text role-legend-label" pointer-events="none"><text text-anchor="start" transform="translate(16,10)" font-family="sans-serif" font-size="12px" fill="#000" opacity="1">peer_3</text></g></g><path class="foreground" aria-hidden="true" d="" pointer-events="none" display="none"/></g><g transform="translate(0,64)"><path class="background" aria-hidden="true" d="M0,0h54.06832262816295v13h-54.06832262816295Z" pointer-events="none" opacity="1"/><g><g class="mark-symbol role-legend-symbol" pointer-events="none"><path transform="translate(6,6)" d="M5,0A5,5,0,1,1,-5,0A5,5,0,1,1,5,0" stroke="#2d4cdb" stroke-width="2" opacity="1"/></g><g class="mark-text role-legend-label" pointer-events="none"><text text-anchor="start" transform="translate(16,10)" font-family="sans-serif" font-size="12px" fill="#000" opacity="1">peer_4</text></g></g><path class="foreground" aria-hidden="true" d="" pointer-events="none" display="none"/></g></g></g><path class="foreground" aria-hidden="true" d="" pointer-events="none" display="none"/></g></g><g class="mark-text role-legend-title" pointer-events="none"><text text-anchor="start" transform="translate(0,10)" font-family="sans-serif" font-size="13px" font-weight="400" fill="#000" opacity="1">peer</text></g></g><path class="foreground" aria-hidden="true" d="" pointer-events="none" display="none"/></g></g></g><path class="foreground" aria-hidden="true" d="" display="none"/></g></g></g></svg>