<svg xmlns="http://www.w3.org/2000/svg" xmlns:xlink="http://www.w3.org/1999/xlink" version="1.1" class="marks" width="924" height="376" viewBox="0 0 924 376"><rect width="924" height="376" fill="#fff"/><g fill="none" stroke-miterlimit="10" transform="translate(72,33)"><g class="mark-group role-frame root" role="graphics-object" aria-roledescription="group mark container"><g transform="translate(0,0)"><path class="background" aria-hidden="true" d="M0.5,0.5h700v300h-700Z" stroke="#ddd"/><g><g class="mark-group role-axis" aria-hidden="true"><g transform="translate(0.5,300.5)"><path class="background" aria-hidden="true" d="M0,0h0v0h0Z" pointer-events="none"/><g><g class="mark-rule role-axis-grid" pointer-events="none"><line transform="translate(2,-300)" x2="0" y2="300" stroke="#ddd" stroke-width="1" opacity="1"/><line transform="translate(25,-300)" x2="0" y2="300" stroke="#ddd" stroke-width="1" opacity="1"/><line transform="translate(47,-300)" x2="0" y2="300" stroke="#ddd" stroke-width="1" opacity="1"/><line transform="translate(70,-300)" x2="0" y2="300" stroke="#ddd" stroke-width="1" opacity="1"/><line transform="translate(92,-300)" x2="0" y2="300" stroke="#ddd" stroke-width="1" opacity="1"/><line transform="translate(115,-300)" x2="0" y2="300" stroke="#ddd" stroke-width="1" opacity="1"/><line transform="translate(138,-300)" x2="0" y2="300" stroke="#ddd" stroke-width="1" opacity="1"/><line transform="translate(160,-300)" x2="0" y2="300" stroke="#ddd" stroke-width="1" opacity="1"/><line transform="translate(183,-300)" x2="0" y2="300" stroke="#ddd" stroke-width="1" opacity="1"/><line transform="translate(205,-300)" x2="0" y2="300" stroke="#ddd" stroke-width="1" opacity="1"/><line transform="translate(228,-300)" x2="0" y2="300" stroke="#ddd" stroke-width="1" opacity="1"/><line transform="translate(250,-300)" x2="0" y2="300" stroke="#ddd" stroke-width="1" opacity="1"/><line transform="translate(273,-300)" x2="0" y2="300" stroke="#ddd" stroke-width="1" opacity="1"/><line transform="translate(296,-300)" x2="0" y2="300" stroke="#ddd" stroke-width="1" opacity="1"/><line transform="translate(318,-300)" x2="0" y2="300" stroke="#ddd" stroke-width="1" opacity="1"/><line transform="translate(341,-300)" x2="0" y2="300" stroke="#ddd" stroke-width="1" opacity="1"/><line transform="translate(363,-300)" x2="0" y2="300" stroke="#ddd" stroke-width="1" opacity="1"/><line transform="translate(386,-300)" x2="0" y2="300" stroke="#ddd" stroke-width="1" opacity="1"/><line transform="translate(408,-300)" x2="0" y2="300" stroke="#ddd" stroke-width="1" opacity="1"/><line transform="translate(431,-300)" x2="0" y2="300" stroke="#ddd" stroke-width="1" opacity="1"/><line transform="translate(454,-300)" x2="0" y2="300" stroke="#ddd" stroke-width="1" opacity="1"/><line transform="translate(476,-300)" x2="0" y2="300" stroke="#ddd" stroke-width="1" opacity="1"/><line transform="translate(499,-300)" x2="0" y2="300" stroke="#ddd" stroke-width="1" opacity="1"/><line transform="translate(521,-300)" x2="0" y2="300" stroke="#ddd" stroke-width="1" opacity="1"/><line transform="translate(544,-300)" x2="0" y2="300" stroke="#ddd" stroke-width="1" opacity="1"/><line transform="translate(566,-300)" x2="0" y2="300" stroke="#ddd" stroke-width="1" opacity="1"/><line transform="translate(589,-300)" x2="0" y2="300" stroke="#ddd" stroke-width="1" opacity="1"/><line transform="translate(612,-300)" x2="0" y2="300" stroke="#ddd" stroke-width="1" opacity="1"/><line transform="translate(634,-300)" x2="0" y2="300" stroke="#ddd" stroke-width="1" opacity="1"/><line transform="translate(657,-300)" x2="0" y2="300" stroke="#ddd" stroke-width="1" opacity="1"/><line transform="translate(679,-300)" x2="0" y2="300" stroke="#ddd" stroke-width="1" opacity="1"/></g></g><path class="foreground" aria-hidden="true" d="" pointer-events="none" display="none"/></g></g><g class="mark-group role-axis" aria-hidden="true"><g transform="translate(0.5,0.5)"><path class="background" aria-hidden="true" d="M0,0h0v0h0Z" pointer-events="none"/><g><g class="mark-rule role-axis-grid" pointer-events="none"><line transform="translate(0,300)" x2="700" y2="0" stroke="#e1e8f0" stroke-width="1" opacity="1"/><line transform="translate(0,273)" x2="700" y2="0" stroke="#e1e8f0" stroke-width="1" opacity="1"/><line transform="translate(0,245)" x2="700" y2="0" stroke="#e1e8f0" stroke-width="1" opacity="1"/><line transform="translate(0,218)" x2="700" y2="0" stroke="#e1e8f0" stroke-width="1" opacity="1"/><line transform="translate(0,191)" x2="700" y2="0" stroke="#e1e8f0" stroke-width="1" opacity="1"/><line transform="translate(0,164)" x2="700" y2="0" stroke="#e1e8f0" stroke-width="1" opacity="1"/><line transform="translate(0,136)" x2="700" y2="0" stroke="#e1e8f0" stroke-width="1" opacity="1"/><line transform="translate(0,109)" x2="700" y2="0" stroke="#e1e8f0" stroke-width="1" opacity="1"/><line transform="translate(0,82)" x2="700" y2="0" stroke="#e1e8f0" stroke-width="1" opacity="1"/><line transform="translate(0,55)" x2="700" y2="0" stroke="#e1e8f0" stroke-width="1" opacity="1"/><line transform="translate(0,27)" x2="700" y2="0" stroke="#e1e8f0" stroke-width="1" opacity="1"/><line transform="translate(0,0)" x2="700" y2="0" stroke="#e1e8f0" stroke-width="1" opacity="1"/></g></g><path class="foreground" aria-hidden="true" d="" pointer-events="none" display="none"/></g></g><g class="mark-group role-axis" role="graphics-symbol" aria-roledescription="axis" aria-label="X-axis titled 'time' for a time scale with values from Friday, 28 February 2025, 9:37:54 AM to Friday, 28 February 2025, 9:40:29 AM"><g transform="translate(0.5,300.5)"><path class="background" aria-hidden="true" d="M0,0h0v0h0Z" pointer-events="none"/><g><g class="mark-rule role-axis-tick" pointer-events="none"><line transform="translate(2,0)" x2="0" y2="5" stroke="#888" stroke-width="1" opacity="1"/><line transform="translate(25,0)" x2="0" y2="5" stroke="#888" stroke-width="1" opacity="1"/><line transform="translate(47,0)" x2="0" y2="5" stroke="#888" stroke-width="1" opacity="1"/><line transform="translate(70,0)" x2="0" y2="5" stroke="#888" stroke-width="1" opacity="1"/><line transform="translate(92,0)" x2="0" y2="5" stroke="#888" stroke-width="1" opacity="1"/><line transform="translate(115,0)" x2="0" y2="5" stroke="#888" stroke-width="1" opacity="1"/><line transform="translate(138,0)" x2="0" y2="5" stroke="#888" stroke-width="1" opacity="1"/><line transform="translate(160,0)" x2="0" y2="5" stroke="#888" stroke-width="1" opacity="1"/><line transform="translate(183,0)" x2="0" y2="5" stroke="#888" stroke-width="1" opacity="1"/><line transform="translate(205,0)" x2="0" y2="5" stroke="#888" stroke-width="1" opacity="1"/><line transform="translate(228,0)" x2="0" y2="5" stroke="#888" stroke-width="1" opacity="1"/><line transform="translate(250,0)" x2="0" y2="5" stroke="#888" stroke-width="1" opacity="1"/><line transform="translate(273,0)" x2="0" y2="5" stroke="#888" stroke-width="1" opacity="1"/><line transform="translate(296,0)" x2="0" y2="5" stroke="#888" stroke-width="1" opacity="1"/><line transform="translate(318,0)" x2="0" y2="5" stroke="#888" stroke-width="1" opacity="1"/><line transform="translate(341,0)" x2="0" y2="5" stroke="#888" stroke-width="1" opacity="1"/><line transform="translate(363,0)" x2="0" y2="5" stroke="#888" stroke-width="1" opacity="1"/><line transform="translate(386,0)" x2="0" y2="5" stroke="#888" stroke-width="1" opacity="1"/><line transform="translate(408,0)" x2="0" y2="5" stroke="#888" stroke-width="1" opacity="1"/><line transform="translate(431,0)" x2="0" y2="5" stroke="#888" stroke-width="1" opacity="1"/><line transform="translate(454,0)" x2="0" y2="5" stroke="#888" stroke-width="1" opacity="1"/><line transform="translate(476,0)" x2="0" y2="5" stroke="#888" stroke-width="1" opacity="1"/><line transform="translate(499,0)" x2="0" y2="5" stroke="#888" stroke-width="1" opacity="1"/><line transform="translate(521,0)" x2="0" y2="5" stroke="#888" stroke-width="1" opacity="1"/><line transform="translate(544,0)" x2="0" y2="5" stroke="#888" stroke-width="1" opacity="1"/><line transform="translate(566,0)" x2="0" y2="5" stroke="#888" stroke-width="1" opacity="1"/><line transform="translate(589,0)" x2="0" y2="5" stroke="#888" stroke-width="1" opacity="1"/><line transform="translate(612,0)" x2="0" y2="5" stroke="#888" stroke-width="1" opacity="1"/><line transform="translate(634,0)" x2="0" y2="5" stroke="#888" stroke-width="1" opacity="1"/><line transform="translate(657,0)" x2="0" y2="5" stroke="#888" stroke-width="1" opacity="1"/><line transform="translate(679,0)" x2="0" y2="5" stroke="#888" stroke-width="1" opacity="1"/></g><g class="mark-text role-axis-label" pointer-events="none"><text text-anchor="middle" transform="translate(2.1220603980959507,15)" font-family="sans-serif" font-size="10px" fill="#000" opacity="1">:55</text><text text-anchor="middle" transform="translate(24.697171016137975,15)" font-family="sans-serif" font-size="10px" fill="#000" opacity="1">09:38</text><text text-anchor="middle" transform="translate(47.272281634180004,15)" font-family="sans-serif" font-size="10px" fill="#000" opacity="1">:05</text><text text-anchor="middle" transform="translate(69.84739225222204,15)" font-family="sans-serif" font-size="10px" fill="#000" opacity="1">:10</text><text text-anchor="middle" transform="translate(92.42250287026405,15)" font-family="sans-serif" font-size="10px" fill="#000" opacity="1">:15</text><text text-anchor="middle" transform="translate(114.99761348830609,15)" font-family="sans-serif" font-size="10px" fill="#000" opacity="1">:20</text><text text-anchor="middle" transform="translate(137.57272410634812,15)" font-family="sans-serif" font-size="10px" fill="#000" opacity="1">:25</text><text text-anchor="middle" transform="translate(160.14783472439015,15)" font-family="sans-serif" font-size="10px" fill="#000" opacity="1">:30</text><text text-anchor="middle" transform="translate(182.72294534243218,15)" font-family="sans-serif" font-size="10px" fill="#000" opacity="1">:35</text><text text-anchor="middle" transform="translate(205.29805596047422,15)" font-family="sans-serif" font-size="10px" fill="#000" opacity="1">:40</text><text text-anchor="middle" transform="translate(227.87316657851625,15)" font-family="sans-serif" font-size="10px" fill="#000" opacity="1">:45</text><text text-anchor="middle" transform="translate(250.44827719655825,15)" font-family="sans-serif" font-size="10px" fill="#000" opacity="1">:50</text><text text-anchor="middle" transform="translate(273.0233878146003,15)" font-family="sans-serif" font-size="10px" fill="#000" opacity="1">:55</text><text text-anchor="middle" transform="translate(295.5984984326423,15)" font-family="sans-serif" font-size="10px" fill="#000" opacity="1">09:39</text><text text-anchor="middle" transform="translate(318.1736090506844,15)" font-family="sans-serif" font-size="10px" fill="#000" opacity="1">:05</text><text text-anchor="middle" transform="translate(340.7487196687264,15)" font-family="sans-serif" font-size="10px" fill="#000" opacity="1">:10</text><text text-anchor="middle" transform="translate(363.3238302867684,15)" font-family="sans-serif" font-size="10px" fill="#000" opacity="1">:15</text><text text-anchor="middle" transform="translate(385.89894090481044,15)" font-family="sans-serif" font-size="10px" fill="#000" opacity="1">:20</text><text text-anchor="middle" transform="translate(408.47405152285245,15)" font-family="sans-serif" font-size="10px" fill="#000" opacity="1">:25</text><text text-anchor="middle" transform="translate(431.0491621408945,15)" font-family="sans-serif" font-size="10px" fill="#000" opacity="1">:30</text><text text-anchor="middle" transform="translate(453.6242727589365,15)" font-family="sans-serif" font-size="10px" fill="#000" opacity="1">:35</text><text text-anchor="middle" transform="translate(476.1993833769786,15)" font-family="sans-serif" font-size="10px" fill="#000" opacity="1">:40</text><text text-anchor="middle" transform="translate(498.7744939950206,15)" font-family="sans-serif" font-size="10px" fill="#000" opacity="1">:45</text><text text-anchor="middle" transform="translate(521.3496046130626,15)" font-family="sans-serif" font-size="10px" fill="#000" opacity="1">:50</text><text text-anchor="middle" transform="translate(543.9247152311046,15)" font-family="sans-serif" font-size="10px" fill="#000" opacity="1">:55</text><text text-anchor="middle" transform="translate(566.4998258491466,15)" font-family="sans-serif" font-size="10px" fill="#000" opacity="1">09:40</text><text text-anchor="middle" transform="translate(589.0749364671886,15)" font-family="sans-serif" font-size="10px" fill="#000" opacity="1">:05</text><text text-anchor="middle" transform="translate(611.6500470852308,15)" font-family="sans-serif" font-size="10px" fill="#000" opacity="1">:10</text><text text-anchor="middle" transform="translate(634.2251577032728,15)" font-family="sans-serif" font-size="10px" fill="#000" opacity="1">:15</text><text text-anchor="middle" transform="translate(656.8002683213148,15)" font-family="sans-serif" font-size="10px" fill="#000" opacity="1">:20</text><text text-anchor="middle" transform="translate(679.3753789393568,15)" font-family="sans-serif" font-size="10px" fill="#000" opacity="1">:25</text></g><g class="mark-rule role-axis-domain" pointer-events="none"><line transform="translate(0,0)" x2="700" y2="0" stroke="#e1e8f0" stroke-width="1" opacity="1"/></g><g class="mark-text role-axis-title" pointer-events="none"><text text-anchor="middle" transform="translate(350,36)" font-family="sans-serif" font-size="11px" font-weight="400" fill="#1c2a3a" opacity="1">time</text></g></g><path class="foreground" aria-hidden="true" d="" pointer-events="none" display="none"/></g></g><g class="mark-group role-axis" role="graphics-symbol" aria-roledescription="axis" aria-label="Y-axis titled 'data.blocks' for a linear scale with values from 0 to 1,100"><g transform="translate(0.5,0.5)"><path class="background" aria-hidden="true" d="M0,0h0v0h0Z" pointer-events="none"/><g><g class="mark-rule role-axis-tick" pointer-events="none"><line transform="translate(0,300)" x2="-5" y2="0" stroke="#888" stroke-width="1" opacity="1"/><line transform="translate(0,273)" x2="-5" y2="0" stroke="#888" stroke-width="1" opacity="1"/><line transform="translate(0,245)" x2="-5" y2="0" stroke="#888" stroke-width="1" opacity="1"/><line transform="translate(0,218)" x2="-5" y2="0" stroke="#888" stroke-width="1" opacity="1"/><line transform="translate(0,191)" x2="-5" y2="0" stroke="#888" stroke-width="1" opacity="1"/><line transform="translate(0,164)" x2="-5" y2="0" stroke="#888" stroke-width="1" opacity="1"/><line transform="translate(0,136)" x2="-5" y2="0" stroke="#888" stroke-width="1" opacity="1"/><line transform="translate(0,109)" x2="-5" y2="0" stroke="#888" stroke-width="1" opacity="1"/><line transform="translate(0,82)" x2="-5" y2="0" stroke="#888" stroke-width="1" opacity="1"/><line transform="translate(0,55)" x2="-5" y2="0" stroke="#888" stroke-width="1" opacity="1"/><line transform="translate(0,27)" x2="-5" y2="0" stroke="#888" stroke-width="1" opacity="1"/><line transform="translate(0,0)" x2="-5" y2="0" stroke="#888" stroke-width="1" opacity="1"/></g><g class="mark-text role-axis-label" pointer-events="none"><text text-anchor="end" transform="translate(-13,304)" font-family="sans-serif" font-size="12px" fill="#000" opacity="1">0</text><text text-anchor="end" transform="translate(-13,276.7272727272727)" font-family="sans-serif" font-size="12px" fill="#000" opacity="1">100</text><text text-anchor="end" transform="translate(-13,249.45454545454544)" font-family="sans-serif" font-size="12px" fill="#000" opacity="1">200</text><text text-anchor="end" transform="translate(-13,222.1818181818182)" font-family="sans-serif" font-size="12px" fill="#000" opacity="1">300</text><text text-anchor="end" transform="translate(-13,194.9090909090909)" font-family="sans-serif" font-size="12px" fill="#000" opacity="1">400</text><text text-anchor="end" transform="translate(-13,167.63636363636363)" font-family="sans-serif" font-size="12px" fill="#000" opacity="1">500</text><text text-anchor="end" transform="translate(-13,140.36363636363637)" font-family="sans-serif" font-size="12px" fill="#000" opacity="1">600</text><text text-anchor="end" transform="translate(-13,113.0909090909091)" font-family="sans-serif" font-size="12px" fill="#000" opacity="1">700</text><text text-anchor="end" transform="translate(-13,85.81818181818181)" font-family="sans-serif" font-size="12px" fill="#000" opacity="1">800</text><text text-anchor="end" transform="translate(-13,58.54545454545453)" font-family="sans-serif" font-size="12px" fill="#000" opacity="1">900</text><text text-anchor="end" transform="translate(-13,31.27272727272728)" font-family="sans-serif" font-size="12px" fill="#000" opacity="1">1,000</text><text text-anchor="end" transform="translate(-13,4)" font-family="sans-serif" font-size="12px" fill="#000" opacity="1">1,100</text></g><g class="mark-rule role-axis-domain" pointer-events="none"><line transform="translate(0,300)" x2="0" y2="-300" stroke="#888" stroke-width="1" opacity="1"/></g><g class="mark-text role-axis-title" pointer-events="none"><text text-anchor="middle" transform="translate(-53.67062652361322,150) rotate(-90) translate(0,-3)" font-family="sans-serif" font-size="12px" font-weight="400" fill="#1c2a3a" opacity="1">data.blocks</text></g></g><path class="foreground" aria-hidden="true" d="" pointer-events="none" display="none"/></g></g><g class="mark-group role-axis" role="graphics-symbol" aria-roledescription="axis" aria-label="Y-axis titled 'data.queueSize' for a linear scale with values from 0 to 70,000"><g transform="translate(700.5,0.5)"><path class="background" aria-hidden="true" d="M0,0h0v0h0Z" pointer-events="none"/><g><g class="mark-rule role-axis-tick" pointer-events="none"><line transform="translate(0,300)" x2="5" y2="0" stroke="#888" stroke-width="1" opacity="1"/><line transform="translate(0,257)" x2="5" y2="0" stroke="#888" stroke-width="1" opacity="1"/><line transform="translate(0,214)" x2="5" y2="0" stroke="#888" stroke-width="1" opacity="1"/><line transform="translate(0,171)" x2="5" y2="0" stroke="#888" stroke-width="1" opacity="1"/><line transform="translate(0,129)" x2="5" y2="0" stroke="#888" stroke-width="1" opacity="1"/><line transform="translate(0,86)" x2="5" y2="0" stroke="#888" stroke-width="1" opacity="1"/><line transform="translate(0,43)" x2="5" y2="0" stroke="#888" stroke-width="1" opacity="1"/><line transform="translate(0,0)" x2="5" y2="0" stroke="#888" stroke-width="1" opacity="1"/></g><g class="mark-text role-axis-label" pointer-events="none"><text text-anchor="start" transform="translate(13,304)" font-family="sans-serif" font-size="12px" fill="#000" opacity="1">0</text><text text-anchor="start" transform="translate(13,261.14285714285717)" font-family="sans-serif" font-size="12px" fill="#000" opacity="1">10,000</text><text text-anchor="start" transform="translate(13,218.28571428571428)" font-family="sans-serif" font-size="12px" fill="#000" opacity="1">20,000</text><text text-anchor="start" transform="translate(13,175.42857142857142)" font-family="sans-serif" font-size="12px" fill="#000" opacity="1">30,000</text><text text-anchor="start" transform="translate(13,132.57142857142858)" font-family="sans-serif" font-size="12px" fill="#000" opacity="1">40,000</text><text text-anchor="start" transform="translate(13,89.71428571428571)" font-family="sans-serif" font-size="12px" fill="#000" opacity="1">50,000</text><text text-anchor="start" transform="translate(13,46.85714285714287)" font-family="sans-serif" font-size="12px" fill="#000" opacity="1">60,000</text><text text-anchor="start" transform="translate(13,4)" font-family="sans-serif" font-size="12px" fill="#000" opacity="1">70,000</text></g><g class="mark-rule role-axis-domain" pointer-events="none"><line transform="translate(0,300)" x2="0" y2="-300" stroke="#888" stroke-width="1" opacity="1"/></g><g class="mark-text role-axis-title" pointer-events="none"><text text-anchor="middle" transform="translate(60.53401560590967,150) rotate(90) translate(0,-3)" font-family="sans-serif" font-size="12px" font-weight="400" fill="#1c2a3a" opacity="1">data.queueSize</text></g></g><path class="foreground" aria-hidden="true" d="" pointer-events="none" display="none"/></g></g><g class="mark-group role-scope layer_0_pathgroup" role="graphics-object" aria-roledescription="group mark container"><g transform="translate(0,0)"><path class="background" aria-hidden="true" d="M0,0h700v300h-700Z"/><g><g class="mark-line role-mark layer_0_marks" role="graphics-object" aria-roledescription="line mark container"><path aria-label="time: Feb 28, 2025; data.blocks: 0; peer: peer_1" role="graphics-symbol" aria-roledescription="line mark" d="M0,300L22.58,299.727L45.15,296.182L67.73,295.909L90.309,295.909L112.894,289.909L135.469,289.909L158.048,288.818L180.628,288.818L203.212,287.727L225.846,287.727L248.426,286.636L270.946,286.636L293.576,285.545L316.119,285.545L338.726,284.455L361.31,284.455L383.881,283.364L406.492,283.364L429.067,282.273L451.606,282.273L474.181,281.182L496.761,281.182L519.331,280.091L541.911,280.091L564.491,279L587.075,279L609.654,277.909L632.23,277.909L654.827,276.818L677.407,276.818L699.973,275.727" stroke="#ffa83f" stroke-width="2"/></g></g><path class="foreground" aria-hidden="true" d="" display="none"/></g><g transform="translate(0,0)"><path class="background" aria-hidden="true" d="M0,0h700v300h-700Z"/><g><g class="mark-line role-mark layer_0_marks" role="graphics-object" aria-roledescription="line mark container"><path aria-label="time: Feb 28, 2025; data.blocks: 0; peer: peer_0" role="graphics-symbol" aria-roledescription="line mark" d="M0.005,300L22.58,299.727L45.186,296.182L67.766,295.909L90.309,295.909L112.912,265.364L135.491,249.818L158.053,238.091L180.858,228.273L203.217,228L225.792,228L248.38,227.727L271.163,216.273L293.576,185.727L316.155,167.182L338.69,156.818L361.269,145.636L383.845,145.364L406.429,145.364L429.022,145.091L451.755,134.182L474.226,103.364L496.919,87.273L519.345,79.636L541.916,68.455L564.513,68.182L587.093,68.182L609.677,67.909L632.365,57L654.823,26.182L677.66,19.909L700,19.909" stroke="#6583ff" stroke-width="2"/></g></g><path class="foreground" aria-hidden="true" d="" display="none"/></g><g transform="translate(0,0)"><path class="background" aria-hidden="true" d="M0,0h700v300h-700Z"/><g><g class="mark-line role-mark layer_0_marks" role="graphics-object" aria-roledescription="line mark container"><path aria-label="time: Feb 28, 2025; data.blocks: 0; peer: peer_2" role="graphics-symbol" aria-roledescription="line mark" d="M0.005,300L22.58,299.727L45.155,296.182L67.77,295.909L90.341,295.909L112.898,265.364L135.532,249.818L158.053,238.091L180.642,228.273L203.217,228L225.796,228L248.38,227.727L270.951,216.273L293.54,185.727L316.3,167.182L338.69,156.818L361.269,145.636L383.872,145.364L406.442,145.364L429.022,145.091L451.602,134.182L474.181,103.364L496.801,87.273L519.331,79.636L542.385,68.455L564.491,68.182L587.219,68.182L609.654,67.909L632.234,57L654.827,26.182L677.411,19.909L699.973,19.909" stroke="#e2474d" stroke-width="2"/></g></g><path class="foreground" aria-hidden="true" d="" display="none"/></g><g transform="translate(0,0)"><path class="background" aria-hidden="true" d="M0,0h700v300h-700Z"/><g><g class="mark-line role-mark layer_0_marks" role="graphics-object" aria-roledescription="line mark container"><path aria-label="time: Feb 28, 2025; data.blocks: 1; peer: peer_3" role="graphics-symbol" aria-roledescription="line mark" d="M22.584,299.727L45.191,296.182L67.766,295.909L90.337,295.909L112.916,265.364L135.487,249.818L158.066,238.091L180.637,228.273L203.217,228L226.013,228L248.38,227.727L270.951,216.273L293.54,185.727L316.124,167.182L338.69,156.818L361.482,145.636L383.849,145.364L406.6,145.364L429.022,145.091L451.602,134.182L474.181,103.364L496.761,87.273L519.336,79.636L541.911,68.455L564.518,68.182L587.07,68.182L609.668,67.909L632.252,57L654.827,26.182L677.407,19.909L699.973,19.909" stroke="#4aa148" stroke-width="2"/></g></g><path class="foreground" aria-hidden="true" d="" display="none"/></g></g><g class="mark-group role-scope layer_1_pathgroup" role="graphics-object" aria-roledescription="group mark container"><g transform="translate(0,0)"><path class="background" aria-hidden="true" d="M0,0h700v300h-700Z"/><g><g class="mark-line role-mark layer_1_marks" role="graphics-object" aria-roledescription="line mark container"><path aria-label="time: Feb 28, 2025; data.queueSize: 0; peer: peer_1" role="graphics-symbol" aria-roledescription="line mark" d="M0,300L22.58,300L45.15,282.917L67.73,235.204L90.309,190.423L112.894,142.65L135.469,99.437L158.048,58.174L180.628,19.131L203.212,19.131L225.846,19.131L248.426,19.131L270.946,19.131L293.576,19.131L316.119,19.131L338.726,19.131L361.31,19.131L383.881,19.131L406.492,19.131L429.067,19.131L451.606,19.131L474.181,19.131L496.761,23.027L519.331,33.339L541.911,30.969L564.491,41.576L587.075,35.451L609.654,37.92L632.23,23.593L654.827,19.131L677.407,19.131L699.973,19.131" stroke="#ffa83f" stroke-width="2" stroke-dasharray="8,8" opacity="0.8"/></g></g><path class="foreground" aria-hidden="true" d="" display="none"/></g><g transform="translate(0,0)"><path class="background" aria-hidden="true" d="M0,0h700v300h-700Z"/><g><g class="mark-line role-mark layer_1_marks" role="graphics-object" aria-roledescription="line mark container"><path aria-label="time: Feb 28, 2025; data.queueSize: 0; peer: peer_0" role="graphics-symbol" aria-roledescription="line mark" d="M0.005,300L22.58,300L45.186,282.921L67.766,232.183L90.309,189.947L112.912,272.7L135.491,296.576L158.053,298.44L180.858,298.397L203.217,247.466L225.792,207.086L248.38,162.493L271.163,176.156L293.576,257.241L316.155,295.847L338.69,296.246L361.269,296.841L383.845,257.833L406.429,209.289L429.022,174.21L451.755,182.704L474.226,267.514L496.919,298.873L519.345,296.426L541.916,296.16L564.513,254.511L587.093,209.147L609.677,169.101L632.365,176.344L654.823,262.539L677.66,242.601L700,193.654" stroke="#6583ff" stroke-width="2" stroke-dasharray="8,8" opacity="0.8"/></g></g><path class="foreground" aria-hidden="true" d="" display="none"/></g><g transform="translate(0,0)"><path class="background" aria-hidden="true" d="M0,0h700v300h-700Z"/><g><g class="mark-line role-mark layer_1_marks" role="graphics-object" aria-roledescription="line mark container"><path aria-label="time: Feb 28, 2025; data.queueSize: 0; peer: peer_2" role="graphics-symbol" aria-roledescription="line mark" d="M0.005,300L22.58,300L45.155,283.397L67.77,234.776L90.341,189.823L112.898,275.7L135.532,296.679L158.053,298.264L180.642,296.074L203.217,246.249L225.796,207.814L248.38,163.98L270.951,170.49L293.54,258.154L316.3,298.294L338.69,296.837L361.269,296.576L383.872,256.024L406.442,210.943L429.022,174.42L451.602,176.37L474.181,267.986L496.801,295.269L519.331,294.531L542.385,298.539L564.491,252.441L587.219,208.933L609.654,169.093L632.234,171.051L654.827,254.61L677.411,233.619L699.973,190.269" stroke="#e2474d" stroke-width="2" stroke-dasharray="8,8" opacity="0.8"/></g></g><path class="foreground" aria-hidden="true" d="" display="none"/></g><g transform="translate(0,0)"><path class="background" aria-hidden="true" d="M0,0h700v300h-700Z"/><g><g class="mark-line role-mark layer_1_marks" role="graphics-object" aria-roledescription="line mark container"><path aria-label="time: Feb 28, 2025; data.queueSize: 0; peer: peer_3" role="graphics-symbol" aria-roledescription="line mark" d="M22.584,300L45.191,277.843L67.766,228.994L90.337,186.064L112.916,273.034L135.487,297.249L158.066,296.301L180.637,296.854L203.217,245.691L226.013,208.371L248.38,164.541L270.951,171.879L293.54,255.167L316.124,295.847L338.69,296.473L361.482,299.34L383.849,257.546L406.6,210.056L429.022,173.627L451.602,181.86L474.181,267.334L496.761,295.367L519.336,294.604L541.911,296.13L564.518,253.873L587.07,208.727L609.668,168.236L632.252,166.959L654.827,256.697L677.407,236.443L699.973,190.479" stroke="#4aa148" stroke-width="2" stroke-dasharray="8,8" opacity="0.8"/></g></g><path class="foreground" aria-hidden="true" d="" display="none"/></g></g><g class="mark-group role-legend" role="graphics-symbol" aria-roledescription="legend" aria-label="Symbol legend titled 'peer' for stroke color with 4 values: peer_0, peer_1, peer_2, peer_3"><g transform="translate(792,0)"><path class="background" aria-hidden="true" d="M0,0h55v84h-55Z" pointer-events="none"/><g><g class="mark-group role-legend-entry"><g transform="translate(0,23)"><path class="background" aria-hidden="true" d="M0,0h0v0h0Z" pointer-events="none"/><g><g class="mark-group role-scope" role="graphics-object" aria-roledescription="group mark container"><g transform="translate(0,0)"><path class="background" aria-hidden="true" d="M0,0h54.06236977705515v13h-54.06236977705515Z" pointer-events="none" opacity="1"/><g><g class="mark-symbol role-legend-symbol" pointer-events="none"><path transform="translate(6,6)" d="M5,0A5,5,0,1,1,-5,0A5,5,0,1,1,5,0" stroke="#6583ff" stroke-width="2" opacity="1"/></g><g class="mark-text role-legend-label" pointer-events="none"><text text-anchor="start" transform="translate(16,10)" font-family="sans-serif" font-size="12px" fill="#000" opacity="1">peer_0</text></g></g><path class="foreground" aria-hidden="true" d="" pointer-events="none" display="none"/></g><g transform="translate(0,16)"><path class="background" aria-hidden="true" d="M0,0h54.06236977705515v13h-54.06236977705515Z" pointer-events="none" opacity="1"/><g><g class="mark-symbol role-legend-symbol" pointer-events="none"><path transform="translate(6,6)" d="M5,0A5,5,0,1,1,-5,0A5,5,0,1,1,5,0" stroke="#ffa83f" stroke-width="2" opacity="1"/></g><g class="mark-text role-legend-label" pointer-events="none"><text text-anchor="start" transform="translate(16,10)" font-family="sans-serif" font-size="12px" fill="#000" opacity="1">peer_1</text></g></g><path class="foreground" aria-hidden="true" d="" pointer-events="none" display="none"/></g><g transform="translate(0,32)"><path class="background" aria-hidden="true" d="M0,0h54.06236977705515v13h-54.06236977705515Z" pointer-events="none" opacity="1"/><g><g class="mark-symbol role-legend-symbol" pointer-events="none"><path transform="translate(6,6)" d="M5,0A5,5,0,1,1,-5,0A5,5,0,1,1,5,0" stroke="#e2474d" stroke-width="2" opacity="1"/></g><g class="mark-text role-legend-label" pointer-events="none"><text text-anchor="start" transform="translate(16,10)" font-family="sans-serif" font-size="12px" fill="#000" opacity="1">peer_2</text></g></g><path class="foreground" aria-hidden="true" d="" pointer-events="none" display="none"/></g><g transform="translate(0,48)"><path class="background" aria-hidden="true" d="M0,0h54.06236977705515v13h-54.06236977705515Z" pointer-events="none" opacity="1"/><g><g class="mark-symbol role-legend-symbol" pointer-events="none"><path transform="translate(6,6)" d="M5,0A5,5,0,1,1,-5,0A5,5,0,1,1,5,0" stroke="#4aa148" stroke-width="2" opacity="1"/></g><g class="mark-text role-legend-label" pointer-events="none"><text text-anchor="start" transform="translate(16,10)" font-family="sans-serif" font-size="12px" fill="#000" opacity="1">peer_3</text></g></g><path class="foreground" aria-hidden="true" d="" pointer-events="none" display="none"/></g></g></g><path class="foreground" aria-hidden="true" d="" pointer-events="none" display="none"/></g></g><g class="mark-text role-legend-title" pointer-events="none"><text text-anchor="start" transform="translate(0,10)" font-family="sans-serif" font-size="13px" font-weight="400" fill="#000" opacity="1">peer</text></g></g><path class="foreground" aria-hidden="true" d="" pointer-events="none" display="none"/></g></g><g class="mark-group role-title"><g transform="translate(390.1646867381934,-28)"><path class="background" aria-hidden="true" d="M0,0h0v0h0Z" pointer-events="none"/><g><g class="mark-text role-title-text" role="graphics-symbol" aria-roledescription="title" aria-label="Title text 'Metrics: Height &amp; Queue Size'" pointer-events="none"><text text-anchor="middle" transform="translate(0,14)" font-family="Inter" font-size="18px" font-weight="400" fill="#445668" opacity="1">Metrics: Height &amp; Queue Size</text></g></g><path class="foreground" aria-hidden="true" d="" pointer-events="none" display="none"/></g></g></g><path class="foreground" aria-hidden="true" d="" display="none"/></g></g></g></svg>